<svg version="1.1" id="Layer_1" xmlns="http://www.w3.org/2000/svg" xmlns:xlink="http://www.w3.org/1999/xlink" x="0px" y="0px"
	 width="100%" viewBox="0 0 500 500" enable-background="new 0 0 500 500" xml:space="preserve">
<path fill="#FFFFFF" opacity="1.000000" stroke="none" 
	d="
M336.000000,501.000000 
	C225.333359,501.000000 115.166695,500.979584 5.000179,501.095367 
	C1.576371,501.098969 0.903033,500.423889 0.905298,497.000031 
	C1.013776,333.000122 1.013758,169.000153 0.905339,5.000260 
	C0.903076,1.576990 1.575752,0.903019 4.999863,0.905285 
	C168.999756,1.013775 332.999725,1.013760 496.999634,0.905354 
	C500.422638,0.903092 501.097015,1.575404 501.094757,4.999743 
	C500.986237,168.999634 500.986237,332.999603 501.094604,496.999512 
	C501.096893,500.422272 500.426178,501.106262 497.000183,501.097351 
	C443.500397,500.958313 390.000153,501.000000 336.000000,501.000000 
z"/>
<path fill="#E5E5E7" opacity="1.000000" stroke="none" 
	d="
M210.752350,199.174225 
	C212.544510,197.158478 214.612366,196.823746 216.834274,197.016525 
	C218.517822,197.162613 220.704666,196.373917 220.994659,199.215668 
	C221.233521,201.556213 220.775452,203.911118 218.408554,204.560379 
	C212.735687,206.116470 212.491089,210.069992 211.717606,215.044830 
	C211.230499,218.177872 211.011719,220.259094 212.638062,222.867218 
	C213.403885,224.095367 212.198425,224.798584 210.813766,224.994476 
	C207.803406,225.420349 202.899460,222.321091 203.475082,219.149292 
	C204.489548,213.559433 201.925018,207.291595 206.691742,202.171967 
	C207.963379,200.832352 209.622833,200.625305 210.752350,199.174225 
z"/>
<path fill="#E5E5E7" opacity="1.000000" stroke="none" 
	d="
M258.384827,345.014099 
	C257.720886,342.596893 258.350311,340.497528 259.949677,338.625977 
	C260.370880,338.133087 260.532990,337.547394 261.344147,337.545197 
	C267.750397,337.527863 269.041199,336.271942 270.505585,328.636932 
	C268.641663,327.898285 268.328064,329.477142 267.735321,330.527802 
	C266.983826,331.859833 266.317444,333.230499 264.389954,332.850861 
	C263.097504,332.596344 262.281158,331.841400 262.152740,330.536041 
	C261.979218,328.772278 262.426941,327.015808 264.089966,326.295654 
	C266.799042,325.122498 269.652710,323.617828 272.479034,323.544037 
	C276.279724,323.444885 278.411133,322.263458 279.116913,318.545929 
	C279.339966,317.371307 279.827728,316.011169 281.319183,316.687439 
	C282.279510,317.122803 282.107971,318.507416 281.638794,319.390839 
	C280.943237,320.700592 280.300171,322.439331 279.141602,323.032898 
	C274.037933,325.647583 272.677948,330.779724 270.358887,335.274261 
	C267.841553,340.153076 264.336670,343.806213 258.384827,345.014099 
z"/>
<path fill="#EAE9EC" opacity="1.000000" stroke="none" 
	d="
M167.352509,192.961975 
	C165.840012,196.391205 164.268600,199.458633 160.341354,200.962738 
	C159.831726,201.127548 159.669464,201.256332 159.261139,201.195374 
	C159.008163,199.834808 158.862000,198.459869 159.910202,197.767899 
	C162.932449,195.772720 163.070694,193.762909 160.762558,190.987411 
	C159.440247,189.397339 160.833969,187.610764 162.151627,186.776627 
	C163.872864,185.686981 163.546585,187.755112 164.150528,188.532654 
	C166.107742,191.052490 168.884796,190.808395 170.397079,188.650711 
	C176.191956,180.382736 184.367569,174.521683 191.215408,167.336990 
	C191.759842,166.765778 192.587753,166.464722 193.657822,166.031693 
	C194.024124,167.499023 193.050522,168.409653 192.121567,169.365448 
	C185.794785,175.874985 178.996353,181.932053 173.346970,189.093140 
	C171.901382,190.925568 170.070999,192.366333 167.352509,192.961975 
z"/>
<path fill="#EAE9EC" opacity="1.000000" stroke="none" 
	d="
M308.929810,288.739746 
	C311.961914,289.900452 310.296417,291.138306 309.322235,292.122345 
	C302.583527,298.929138 295.807953,305.699615 289.013062,312.450409 
	C288.112915,313.344727 286.866974,314.803894 285.716095,313.414703 
	C284.557098,312.015686 286.403137,311.036865 287.295105,310.322784 
	C290.187836,308.006927 292.808502,305.832733 292.145508,301.421997 
	C291.723541,298.614807 294.263245,299.153687 296.012848,299.039185 
	C297.507904,298.941284 299.376648,300.870850 300.423492,298.627258 
	C301.167328,297.033081 300.138824,295.450684 299.137756,294.124268 
	C298.290588,293.001801 296.445953,291.736725 297.924957,290.504730 
	C299.452850,289.231964 300.309357,291.338959 301.332275,292.334930 
	C302.381073,293.356140 303.625366,294.454590 305.226868,293.179230 
	C306.491974,292.171753 307.337769,291.097534 306.017242,289.431122 
	C304.756653,287.840363 304.246796,285.380463 306.307465,284.818939 
	C309.154572,284.043060 307.120850,287.687927 308.929810,288.739746 
z"/>
<path fill="#E5E5E7" opacity="1.000000" stroke="none" 
	d="
M358.363251,241.212830 
	C359.793152,237.094604 364.081360,235.552948 366.218445,231.784805 
	C367.531403,229.469772 369.093719,226.795166 371.739197,225.110321 
	C373.444550,224.024200 372.537048,222.503586 371.054962,221.132935 
	C370.187561,220.330750 367.573181,216.993362 372.474457,218.564575 
	C372.800385,218.669067 373.469421,218.394150 373.656708,218.094406 
	C374.027252,217.501389 373.939423,216.624023 373.254669,216.408844 
	C368.421295,214.890045 368.619476,212.657593 371.395844,208.931808 
	C372.098633,207.988678 369.893188,204.878372 369.033264,202.355759 
	C371.207550,202.234451 371.824036,204.201019 372.727448,205.646530 
	C377.350616,213.043823 375.873444,225.448105 369.675171,231.781616 
	C366.708710,234.812759 364.887848,239.001205 360.347229,240.894455 
	C359.631012,241.344482 359.169098,241.473938 358.363251,241.212830 
z"/>
<path fill="#E5E5E7" opacity="1.000000" stroke="none" 
	d="
M128.753540,199.213135 
	C129.745056,195.387909 133.001160,193.817795 135.193314,191.425919 
	C138.675247,187.626755 142.419693,184.065659 146.106491,180.458450 
	C147.096420,179.489929 148.608292,177.785721 149.681900,179.187500 
	C150.891953,180.767426 151.620285,183.142822 150.624283,185.325119 
	C149.681961,187.389740 148.468872,186.329330 146.997299,185.668976 
	C144.414429,184.509964 140.580383,187.897415 138.917252,192.393143 
	C136.950684,197.709167 133.481445,201.495392 127.429085,202.918411 
	C126.373291,201.254715 127.732620,200.478928 128.753540,199.213135 
z"/>
<path fill="#EAE9EC" opacity="1.000000" stroke="none" 
	d="
M231.323517,134.407104 
	C230.338867,147.477646 221.968231,156.385620 210.741760,156.478806 
	C211.242783,154.549866 213.111084,154.843719 214.325180,154.477676 
	C218.151260,153.324127 221.796936,152.500885 220.540146,146.929657 
	C220.334152,146.016495 220.311691,141.202255 224.673294,143.558548 
	C226.702545,144.654816 227.689545,142.558289 227.633728,141.346985 
	C227.369644,135.616333 229.680878,130.258331 229.819214,124.085915 
	C232.320084,127.377167 232.401855,130.596680 231.323517,134.407104 
z"/>
<path fill="#EAE9EC" opacity="1.000000" stroke="none" 
	d="
M357.653900,242.035309 
	C358.015686,244.129852 356.314545,245.139160 355.063904,246.396912 
	C346.567627,254.941452 338.008789,263.423950 329.538666,271.994202 
	C327.111237,274.450378 324.909729,277.129822 322.304565,279.858887 
	C321.382111,279.350433 321.276855,278.581665 321.767212,277.403900 
	C327.350952,270.767059 333.047424,264.859772 339.073914,259.153503 
	C344.153870,254.343521 349.216095,249.404297 354.145325,244.382355 
	C355.062988,243.447388 355.880249,242.331787 357.653900,242.035309 
z"/>
<path fill="#E5E5E7" opacity="1.000000" stroke="none" 
	d="
M226.035965,293.356567 
	C229.633438,294.677765 235.534348,295.353180 240.683136,295.058075 
	C244.653122,294.830505 248.651154,294.875763 252.626404,295.043640 
	C254.765808,295.133972 256.664825,296.517059 256.242676,298.714417 
	C255.874176,300.632538 253.490936,301.772766 251.839172,300.663452 
	C246.367889,296.988892 240.521820,298.175232 234.926086,299.305206 
	C229.663467,300.367920 227.672943,297.702332 226.035965,293.356567 
z"/>
<path fill="#E5E5E7" opacity="1.000000" stroke="none" 
	d="
M199.943329,266.665344 
	C194.002792,263.584869 188.664566,259.276581 183.500412,254.792709 
	C181.774429,253.294113 180.342957,251.528519 178.229813,250.437424 
	C176.449127,249.517990 175.820526,247.788437 176.088165,245.402008 
	C176.465866,244.622040 176.913162,244.463028 177.763550,244.740875 
	C181.967270,246.161621 184.000137,249.620590 186.625336,252.272308 
	C191.154099,256.846832 196.282303,260.871429 199.943329,266.665344 
z"/>
<path fill="#E5E5E7" opacity="1.000000" stroke="none" 
	d="
M317.041656,183.344406 
	C321.267334,184.094986 322.944672,188.028305 325.611328,190.841537 
	C332.268555,197.864609 339.945953,203.882721 345.954620,211.536118 
	C346.316254,211.996689 346.485138,212.608536 346.225677,213.600769 
	C336.464752,203.634705 325.255005,195.178329 317.041656,183.344406 
z"/>
<path fill="#E5E5E7" opacity="1.000000" stroke="none" 
	d="
M216.954941,244.658691 
	C215.400406,245.431961 211.545563,241.295074 212.777191,247.178848 
	C212.923569,247.878235 212.615768,248.508224 211.858551,248.687729 
	C210.842346,248.928635 210.323364,248.345917 210.128220,247.426437 
	C209.856003,246.143829 209.113678,244.691040 209.465775,243.599091 
	C210.339264,240.890121 209.568787,240.023575 206.846634,239.873016 
	C203.749908,239.701721 206.894745,236.453354 204.697357,235.209564 
	C202.481628,233.955429 200.782425,231.739700 198.971390,229.836349 
	C197.700531,228.500732 197.184586,226.792236 197.161728,223.826111 
	C203.163971,232.065552 210.997177,237.215286 216.954941,244.658691 
z"/>
<path fill="#EAE9EC" opacity="1.000000" stroke="none" 
	d="
M178.023743,244.601166 
	C177.641144,244.961502 177.200241,244.983170 176.431244,245.011902 
	C170.983536,240.222885 166.204681,235.212967 160.039642,231.411331 
	C156.850388,229.444672 155.145721,224.409317 152.250259,221.123688 
	C152.046661,220.892700 152.205734,220.109589 152.451035,219.764221 
	C152.951492,219.059662 153.597748,219.411407 154.165588,219.799362 
	C154.302460,219.892883 154.453674,219.985596 154.550659,220.114502 
	C161.344940,229.144165 170.553650,235.832367 178.023743,244.601166 
z"/>
<path fill="#EAE9EC" opacity="1.000000" stroke="none" 
	d="
M309.371674,252.986206 
	C309.444916,248.875534 312.691864,246.977188 315.539795,244.780670 
	C320.475098,240.974182 323.850952,235.454926 329.639221,232.117264 
	C330.339966,231.644653 330.794250,231.498352 331.614685,231.763275 
	C331.873199,233.106995 332.200378,234.445023 330.631195,234.830948 
	C326.028870,235.962860 324.119324,239.967331 321.261475,243.112106 
	C317.881622,246.831345 314.668610,250.964157 309.371674,252.986206 
z"/>
<path fill="#EAE9EC" opacity="1.000000" stroke="none" 
	d="
M329.968750,164.653656 
	C328.055634,165.268280 326.539886,161.905090 324.235779,164.364853 
	C323.827057,164.801193 323.135864,163.985443 323.086243,163.239029 
	C322.739227,158.019882 318.311462,155.939438 315.045715,153.088409 
	C310.953644,149.516006 309.763153,146.101593 312.237671,140.285614 
	C312.209656,151.285065 321.186920,154.244583 326.552429,160.098923 
	C327.769531,161.426910 329.473602,162.375351 329.968750,164.653656 
z"/>
<path fill="#E5E5E7" opacity="1.000000" stroke="none" 
	d="
M167.748871,160.789337 
	C169.161240,163.045624 168.747391,164.275024 166.364334,165.058853 
	C163.041031,166.151962 161.144165,168.405930 160.312210,172.057251 
	C159.191269,176.976746 158.033615,177.333679 151.286346,176.510818 
	C155.825623,170.682556 160.864487,165.717880 166.553452,160.976074 
	C167.080643,160.790680 167.281357,160.683746 167.748871,160.789337 
z"/>
<path fill="#E5E5E7" opacity="1.000000" stroke="none" 
	d="
M188.979462,296.023926 
	C185.651657,292.423645 181.521118,290.061371 179.762878,285.421631 
	C188.848862,291.794098 196.251419,299.944855 203.314713,308.489868 
	C197.932022,305.223724 193.698471,300.601135 188.979462,296.023926 
z"/>
<path fill="#E5E5E7" opacity="1.000000" stroke="none" 
	d="
M224.945450,114.660172 
	C223.203064,114.853745 222.020584,113.784348 220.715408,112.704887 
	C217.115280,109.727356 213.519333,106.988907 208.467438,110.509827 
	C206.674850,111.759178 203.938812,111.174774 201.668640,110.652435 
	C200.822037,110.457642 199.463287,110.160843 199.815979,108.841240 
	C200.048538,107.971077 200.715286,106.870201 201.475983,106.543007 
	C207.371262,104.007202 220.952484,108.544823 224.945450,114.660172 
z"/>
<path fill="#E5E5E7" opacity="1.000000" stroke="none" 
	d="
M265.406189,121.285477 
	C268.451355,114.463882 272.582153,109.418793 280.189880,108.379272 
	C278.779724,110.495071 274.924683,111.076828 276.701385,114.935837 
	C277.011780,115.610008 276.035126,116.542587 275.214844,116.678703 
	C271.320129,117.324997 268.897736,119.598740 266.760895,122.862663 
	C265.591064,124.649529 265.149414,122.862839 265.406189,121.285477 
z"/>
<path fill="#EAE9EC" opacity="1.000000" stroke="none" 
	d="
M257.363190,265.999939 
	C260.739288,259.390228 266.617554,254.830704 272.652924,250.052505 
	C273.187500,253.625290 272.752655,256.541260 268.198364,257.221466 
	C265.903687,257.564178 264.437958,259.574371 263.927643,262.129822 
	C263.263397,265.456177 261.513275,267.446533 257.363190,265.999939 
z"/>
<path fill="#EAE9EC" opacity="1.000000" stroke="none" 
	d="
M168.342148,160.851227 
	C167.826263,160.991196 167.636841,160.980545 167.163666,160.933746 
	C168.481705,156.346832 173.080185,154.967667 176.576233,152.020386 
	C177.626862,151.241028 178.117966,150.352402 178.802582,149.226913 
	C178.976501,148.976700 179.000000,149.000000 178.988098,148.987640 
	C179.662704,148.498093 180.401733,148.274857 181.559631,148.743362 
	C181.123917,151.692337 177.918472,153.653702 179.633820,157.223648 
	C179.993759,157.972748 178.915802,159.739273 177.268448,159.875443 
	C175.188217,160.047394 175.571045,158.869278 175.587143,157.381607 
	C175.606293,155.612793 173.764359,156.445786 173.764893,157.045334 
	C173.768295,160.834473 170.408936,159.589584 168.342148,160.851227 
z"/>
<path fill="#EAE9EC" opacity="1.000000" stroke="none" 
	d="
M217.227768,267.244629 
	C213.975189,266.621155 212.604874,264.080017 210.833008,262.231659 
	C205.237961,256.395111 198.824631,251.335541 194.041931,244.342392 
	C195.719528,243.968185 196.675797,245.191299 197.724960,246.245544 
	C204.399979,252.952774 211.069580,259.665405 217.897949,266.673096 
	C217.876007,267.135620 217.697098,267.301239 217.227768,267.244629 
z"/>
<path fill="#EAE9EC" opacity="1.000000" stroke="none" 
	d="
M206.798050,273.140015 
	C213.545746,279.207306 220.874146,284.644135 225.968933,292.651184 
	C226.001526,292.997559 226.000000,293.000000 225.998779,293.000610 
	C222.272797,292.601898 218.830399,292.171875 218.736710,287.004547 
	C218.695145,284.712738 215.728302,284.198730 214.247040,282.711395 
	C211.573685,280.027100 208.932449,277.310791 206.130859,274.309143 
	C206.146820,273.730042 206.351791,273.484863 206.798050,273.140015 
z"/>
<path fill="#E5E5E7" opacity="1.000000" stroke="none" 
	d="
M186.364304,186.962677 
	C188.868011,178.341309 196.794647,176.286377 203.950729,173.216003 
	C198.397247,178.026932 193.429688,183.565643 186.364304,186.962677 
z"/>
<path fill="#EAE9EC" opacity="1.000000" stroke="none" 
	d="
M298.980133,222.061096 
	C299.248718,221.064346 298.745911,219.458542 299.812225,219.937866 
	C301.268250,220.592407 302.693512,222.771591 301.170898,223.907867 
	C296.744690,227.211014 294.072540,231.432251 292.452209,236.587173 
	C292.002228,238.018753 290.236084,238.409760 289.072449,237.632126 
	C287.244659,236.410751 287.944550,234.756866 289.141296,233.398727 
	C292.389496,229.712509 295.683319,226.066528 298.980133,222.061096 
z"/>
<path fill="#E5E5E7" opacity="1.000000" stroke="none" 
	d="
M270.789734,150.259171 
	C267.427216,147.194427 265.239288,143.967514 265.976959,139.157242 
	C268.560120,148.335907 276.222290,152.076492 283.640808,156.146378 
	C278.202820,156.691910 274.757843,153.322067 270.789734,150.259171 
z"/>
<path fill="#E5E5E7" opacity="1.000000" stroke="none" 
	d="
M301.910828,183.194580 
	C301.007965,180.944992 298.617737,179.968384 298.304504,177.594299 
	C304.484131,178.875290 312.676971,188.733994 312.383240,195.126923 
	C308.514557,191.176315 308.210663,184.618225 301.910828,183.194580 
z"/>
<path fill="#E5E5E7" opacity="1.000000" stroke="none" 
	d="
M227.381226,339.635132 
	C226.964996,337.978729 224.818863,337.372925 225.904419,334.940063 
	C228.273529,340.447968 236.709641,338.213776 237.496002,345.724335 
	C233.494476,344.724030 230.007309,343.301453 227.381226,339.635132 
z"/>
<path fill="#E5E5E7" opacity="1.000000" stroke="none" 
	d="
M186.002975,187.002930 
	C184.399078,193.082367 182.001785,198.960052 181.803818,205.841827 
	C178.726700,201.590607 180.765503,192.341827 185.682678,187.149185 
	C185.994980,186.996323 186.000122,187.000107 186.002975,187.002930 
z"/>
<path fill="#E5E5E7" opacity="1.000000" stroke="none" 
	d="
M281.649719,126.055695 
	C279.318054,132.665848 281.691315,137.460709 288.382538,140.977432 
	C283.505585,141.085358 280.859009,139.068100 278.751526,134.371735 
	C277.176392,130.861816 278.864838,128.372711 281.649719,126.055695 
z"/>
<path fill="#EAE9EC" opacity="1.000000" stroke="none" 
	d="
M302.992767,168.634888 
	C299.288361,167.768402 297.507416,164.351151 295.088623,161.761948 
	C292.803406,159.315750 290.756500,157.147781 286.141357,158.457520 
	C290.753204,155.076767 293.377563,156.250961 295.925720,159.616119 
	C298.163910,162.571945 301.493134,164.658493 302.992767,168.634888 
z"/>
<path fill="#E5E5E7" opacity="1.000000" stroke="none" 
	d="
M238.151642,328.760559 
	C236.321335,324.893982 233.436676,321.471863 237.388885,316.905457 
	C236.917801,323.509827 240.372345,327.626099 245.085068,331.800964 
	C241.827347,331.831268 239.975113,330.657288 238.151642,328.760559 
z"/>
<path fill="#EAE9EC" opacity="1.000000" stroke="none" 
	d="
M188.820496,116.587173 
	C187.266144,117.418350 186.038116,118.083580 184.104858,119.130829 
	C185.277679,113.379570 190.283920,112.438728 193.117966,109.379669 
	C192.245651,112.027039 192.898270,115.461212 188.820496,116.587173 
z"/>
<path fill="#E5E5E7" opacity="1.000000" stroke="none" 
	d="
M231.317963,282.774445 
	C230.054871,281.360199 228.536392,280.524414 228.210419,277.958313 
	C232.591843,280.592529 237.009796,281.948792 239.582031,286.430847 
	C235.610886,288.010498 234.262466,283.888489 231.317963,282.774445 
z"/>
<path fill="#EAE9EC" opacity="1.000000" stroke="none" 
	d="
M314.961304,180.652313 
	C309.838257,178.482040 306.399902,174.149048 303.005829,169.380661 
	C302.959167,169.041412 303.001831,168.998306 303.024048,168.976288 
	C309.358826,170.272095 310.976807,176.511917 314.961304,180.652313 
z"/>
<path fill="#E5E5E7" opacity="1.000000" stroke="none" 
	d="
M217.097015,267.319519 
	C217.123398,267.013641 217.309464,267.004913 217.775238,266.983093 
	C224.247452,267.029236 224.099884,272.821442 226.484253,276.349762 
	C222.091980,274.823151 219.885147,270.995728 217.097015,267.319519 
z"/>
<path fill="#E5E5E7" opacity="1.000000" stroke="none" 
	d="
M124.561508,206.804901 
	C124.522400,209.297089 124.317307,211.604691 123.781067,213.832581 
	C123.460106,215.166107 123.041946,217.317581 121.090607,216.559967 
	C119.591278,215.977844 118.863808,213.934067 119.840340,212.388901 
	C120.595451,211.194092 121.128159,210.139343 120.990372,208.376709 
	C121.913635,207.148285 122.814003,206.239075 124.561508,206.804901 
z"/>
<path fill="#E5E5E7" opacity="1.000000" stroke="none" 
	d="
M321.638794,277.064392 
	C322.005310,277.804230 322.004486,278.538818 322.004089,279.642151 
	C319.730774,282.184204 317.570953,284.498230 314.348083,285.964020 
	C314.947571,281.820129 316.651367,278.254456 321.638794,277.064392 
z"/>
<path fill="#E5E5E7" opacity="1.000000" stroke="none" 
	d="
M293.029053,192.355865 
	C299.166046,192.806900 300.631134,196.981354 300.643738,203.764648 
	C297.641449,199.387665 295.351013,196.048477 293.029053,192.355865 
z"/>
<path fill="#E5E5E7" opacity="1.000000" stroke="none" 
	d="
M332.092773,231.680984 
	C331.481628,231.984940 331.044464,231.987839 330.277527,231.987152 
	C331.160583,227.787064 335.006348,226.081924 337.944275,223.513321 
	C338.910065,222.669006 339.915619,221.900162 340.623840,223.612823 
	C341.142975,224.868301 341.313812,226.711594 339.509583,226.745361 
	C335.989227,226.811264 334.264343,229.200989 332.092773,231.680984 
z"/>
<path fill="#E5E5E7" opacity="1.000000" stroke="none" 
	d="
M292.655212,141.243683 
	C291.274872,141.503143 289.226746,141.989426 291.153168,140.119827 
	C293.100037,138.230408 295.760071,137.075851 298.118530,135.592545 
	C299.722687,141.408478 298.935028,142.251678 292.655212,141.243683 
z"/>
<path fill="#E5E5E7" opacity="1.000000" stroke="none" 
	d="
M274.340881,248.969971 
	C276.110565,243.999847 280.012146,241.392105 285.622803,241.042221 
	C281.992035,243.687958 278.361237,246.333694 274.340881,248.969971 
z"/>
<path fill="#E5E5E7" opacity="1.000000" stroke="none" 
	d="
M258.742554,329.070709 
	C257.187927,331.868896 254.402039,330.510834 252.429153,331.560486 
	C251.740936,331.926605 250.983200,331.106567 251.196503,330.552948 
	C252.052261,328.331635 254.139435,326.944824 255.961563,325.935425 
	C257.816406,324.907928 258.522888,327.059967 258.742554,329.070709 
z"/>
<path fill="#EAE9EC" opacity="1.000000" stroke="none" 
	d="
M231.804657,259.779144 
	C236.571213,261.693329 238.740829,265.783325 241.545959,269.274994 
	C237.250351,267.365997 234.418427,263.720062 231.040466,260.340149 
	C231.164444,259.867798 231.343369,259.729431 231.804657,259.779144 
z"/>
<path fill="#EAE9EC" opacity="1.000000" stroke="none" 
	d="
M124.913605,206.988785 
	C123.799492,207.328354 122.732086,207.633652 121.325714,207.967468 
	C121.822113,203.707886 124.833748,201.200363 128.638428,199.013824 
	C129.114304,200.424164 128.113785,201.328644 127.190659,202.622070 
	C126.702606,203.432205 126.356689,203.960587 125.990349,204.816360 
	C126.378441,205.787460 126.015884,206.194885 125.288559,206.719559 
	C125.042923,206.873306 124.960312,206.954529 124.913605,206.988785 
z"/>
<path fill="#E5E5E7" opacity="1.000000" stroke="none" 
	d="
M201.776764,124.755417 
	C199.543304,126.115746 199.320480,129.104721 196.188599,129.829300 
	C196.806656,123.915375 201.177689,122.901947 205.706390,121.018913 
	C205.116745,123.563416 203.187851,123.618118 201.776764,124.755417 
z"/>
<path fill="#E5E5E7" opacity="1.000000" stroke="none" 
	d="
M312.689209,127.398079 
	C312.066406,124.664314 311.585663,122.307945 311.104889,119.951576 
	C314.653473,123.496521 314.835022,127.822098 314.637085,132.881561 
	C312.307861,131.284653 313.430878,129.254059 312.689209,127.398079 
z"/>
<path fill="#E5E5E7" opacity="1.000000" stroke="none" 
	d="
M263.303131,281.859314 
	C264.349121,277.064880 268.887238,275.321167 272.262268,272.406342 
	C270.758484,276.837036 267.033386,279.136139 263.303131,281.859314 
z"/>
<path fill="#E5E5E7" opacity="1.000000" stroke="none" 
	d="
M295.659729,265.035217 
	C295.592804,269.387787 292.371918,271.144440 288.505585,272.333801 
	C290.039703,269.283142 292.230713,266.797394 295.659729,265.035217 
z"/>
<path fill="#E5E5E7" opacity="1.000000" stroke="none" 
	d="
M225.862885,253.694489 
	C220.762558,253.671448 219.946838,248.573730 216.996368,245.389694 
	C216.953659,245.046478 216.998138,245.001892 217.021118,244.979111 
	C221.351624,246.304977 223.024445,250.379013 225.862885,253.694489 
z"/>
<path fill="#EAE9EC" opacity="1.000000" stroke="none" 
	d="
M309.004761,253.004807 
	C307.190613,256.868408 304.154480,259.597046 300.338776,261.956848 
	C301.548553,257.883240 304.265350,254.859894 308.638184,253.022278 
	C308.989502,252.989685 308.999878,252.999847 309.004761,253.004807 
z"/>
<path fill="#E5E5E7" opacity="1.000000" stroke="none" 
	d="
M281.331329,263.951111 
	C282.182373,259.797363 286.289459,258.206848 288.701202,255.079544 
	C287.799408,259.196136 285.141571,261.878906 281.331329,263.951111 
z"/>
<path fill="#E5E5E7" opacity="1.000000" stroke="none" 
	d="
M210.380417,138.372772 
	C212.438644,137.691772 213.157242,135.522125 215.772079,135.312668 
	C214.577011,139.687775 211.328491,140.784225 207.651779,141.974136 
	C207.232468,139.567657 209.485977,139.685944 210.380417,138.372772 
z"/>
<path fill="#EAE9EC" opacity="1.000000" stroke="none" 
	d="
M257.006470,266.006775 
	C255.938950,270.383606 251.816269,271.346252 248.639053,273.385376 
	C250.139114,269.854675 253.437119,268.182526 256.638306,266.020294 
	C256.984711,265.985077 256.999512,265.999512 257.006470,266.006775 
z"/>
<path fill="#E5E5E7" opacity="1.000000" stroke="none" 
	d="
M215.961853,320.658630 
	C212.236008,319.784790 209.770416,317.154755 208.030762,313.351105 
	C211.752090,314.236542 213.929504,317.176758 215.961853,320.658630 
z"/>
<path fill="#E5E5E7" opacity="1.000000" stroke="none" 
	d="
M303.042480,111.344070 
	C307.375153,110.962265 308.532715,114.610397 310.531158,117.310905 
	C307.539825,116.060493 304.859863,114.447891 303.042480,111.344070 
z"/>
<path fill="#E5E5E7" opacity="1.000000" stroke="none" 
	d="
M277.409241,283.990295 
	C278.769226,281.390350 281.972412,280.125031 283.658752,277.060425 
	C283.547668,280.728943 283.197662,284.548859 277.409241,283.990295 
z"/>
<path fill="#E5E5E7" opacity="1.000000" stroke="none" 
	d="
M158.714478,201.149750 
	C159.015076,201.005661 159.504593,201.002701 159.749283,201.000732 
	C158.824615,204.785980 155.786942,206.874207 152.334381,208.940308 
	C152.919434,205.384018 156.137970,203.740570 158.714478,201.149750 
z"/>
<path fill="#E5E5E7" opacity="1.000000" stroke="none" 
	d="
M356.145569,190.337143 
	C359.586029,190.919693 361.338135,194.125153 363.940979,196.669006 
	C360.528992,195.982880 356.832672,195.243546 356.145569,190.337143 
z"/>
<path fill="#E5E5E7" opacity="1.000000" stroke="none" 
	d="
M187.033691,236.696533 
	C183.851669,235.410629 183.769684,232.480469 183.385208,228.167999 
	C185.713989,231.372269 188.962112,232.579422 187.033691,236.696533 
z"/>
<path fill="#EAE9EC" opacity="1.000000" stroke="none" 
	d="
M201.952789,190.716003 
	C204.833771,189.017227 207.061798,186.602142 211.265671,186.858353 
	C208.190292,188.901459 205.719162,190.619675 203.167786,192.209091 
	C201.665619,193.144882 200.939423,192.834595 201.952789,190.716003 
z"/>
<path fill="#E5E5E7" opacity="1.000000" stroke="none" 
	d="
M249.241791,201.802094 
	C244.227570,204.626450 243.195465,200.149948 241.043060,197.344788 
	C244.179276,197.004944 244.949097,201.282715 248.632980,200.996613 
	C249.136261,201.162292 249.274185,201.337952 249.241791,201.802094 
z"/>
<path fill="#E5E5E7" opacity="1.000000" stroke="none" 
	d="
M338.664642,173.486481 
	C342.218140,174.006989 344.080444,176.380981 346.482117,179.994263 
	C342.296021,178.512985 340.339905,176.133789 338.664642,173.486481 
z"/>
<path fill="#E5E5E7" opacity="1.000000" stroke="none" 
	d="
M293.001221,191.998779 
	C289.376434,192.088028 287.460205,189.023682 284.586823,187.707687 
	C288.364044,186.780136 290.720215,188.848282 292.944153,191.658676 
	C292.997559,192.002441 293.000000,192.000000 293.001221,191.998779 
z"/>
<path fill="#E5E5E7" opacity="1.000000" stroke="none" 
	d="
M153.958008,259.629028 
	C150.992676,259.544891 149.912613,257.026947 147.676208,254.980316 
	C152.188446,253.877563 153.070038,256.545563 153.958008,259.629028 
z"/>
<path fill="#E5E5E7" opacity="1.000000" stroke="none" 
	d="
M166.512421,170.296600 
	C165.393784,167.013687 167.850647,167.000336 169.577713,166.445862 
	C170.307098,166.211716 170.926529,166.890793 170.772827,167.540649 
	C170.286423,169.597198 169.252914,171.119553 166.512421,170.296600 
z"/>
<path fill="#EAE9EC" opacity="1.000000" stroke="none" 
	d="
M200.346252,140.212860 
	C197.548141,138.589996 197.059036,136.124298 197.025696,133.282761 
	C198.664185,135.288391 200.302658,137.294037 201.974442,139.648193 
	C201.610016,140.317429 201.156158,140.462479 200.346252,140.212860 
z"/>
<path fill="#E5E5E7" opacity="1.000000" stroke="none" 
	d="
M281.318359,185.928589 
	C282.462463,186.998474 281.479248,187.066513 281.029846,186.972641 
	C277.609802,186.258316 274.196228,185.626190 270.656769,186.154068 
	C274.049377,184.592056 277.489899,184.746887 281.318359,185.928589 
z"/>
<path fill="#E5E5E7" opacity="1.000000" stroke="none" 
	d="
M257.354126,192.966797 
	C258.165253,189.449493 261.797577,189.260620 264.243256,187.438400 
	C263.207245,190.712936 260.425751,191.782684 257.354126,192.966797 
z"/>
<path fill="#EAE9EC" opacity="1.000000" stroke="none" 
	d="
M212.634125,126.318970 
	C211.565659,124.847450 209.308350,124.832474 209.423813,122.326210 
	C211.594711,122.506264 213.272232,123.375496 214.563828,124.795609 
	C215.200165,125.495270 215.269150,126.733154 214.343582,127.395271 
	C213.715195,127.844803 213.205750,127.131348 212.634125,126.318970 
z"/>
<path fill="#E5E5E7" opacity="1.000000" stroke="none" 
	d="
M332.366730,168.318207 
	C335.066071,167.112869 335.880920,169.184296 336.558655,170.992889 
	C336.870178,171.824265 335.583588,172.332245 334.883301,172.409821 
	C331.766113,172.755188 333.675018,169.622559 332.366730,168.318207 
z"/>
<path fill="#E5E5E7" opacity="1.000000" stroke="none" 
	d="
M225.025146,114.975136 
	C225.371689,115.010506 225.740448,114.992027 225.998581,115.152016 
	C227.989700,116.386078 229.494141,118.151123 229.446594,120.485527 
	C229.425797,121.506088 227.882523,122.472824 227.202942,120.571854 
	C226.769455,119.359314 226.629822,118.072151 225.690720,117.066292 
	C225.376007,116.729195 225.257248,116.209145 224.993561,115.417282 
	C224.938217,115.061829 224.996094,115.003960 225.025146,114.975136 
z"/>
<path fill="#E5E5E7" opacity="1.000000" stroke="none" 
	d="
M217.037842,322.347168 
	C219.826630,322.524872 221.338104,324.571106 222.586227,326.869904 
	C222.656494,326.999359 221.932861,327.823639 221.784424,327.768677 
	C219.389786,326.882660 218.266449,324.755798 217.037842,322.347168 
z"/>
<path fill="#EAE9EC" opacity="1.000000" stroke="none" 
	d="
M197.230789,162.172577 
	C194.764175,161.659378 194.856842,160.356445 195.672836,158.802414 
	C196.125366,157.940598 196.592926,156.913177 197.839722,157.298035 
	C199.320175,157.755035 198.871597,159.130066 199.029236,160.584198 
	C198.776611,161.173141 198.546417,161.400970 198.181335,161.836960 
	C198.023865,162.022308 198.001221,162.011719 198.012421,162.022858 
	C197.845673,162.135147 197.667725,162.236328 197.230789,162.172577 
z"/>
<path fill="#E5E5E7" opacity="1.000000" stroke="none" 
	d="
M172.967941,278.652588 
	C170.055527,278.286316 168.330948,276.238983 167.032776,273.344055 
	C169.989746,273.616119 171.619598,275.784363 172.967941,278.652588 
z"/>
<path fill="#E5E5E7" opacity="1.000000" stroke="none" 
	d="
M205.958221,272.658752 
	C203.013794,272.360138 201.390259,270.193695 199.982574,267.398071 
	C199.938736,267.060669 199.994034,267.005768 200.022400,266.977661 
	C202.946564,267.702179 204.653198,269.767151 205.958221,272.658752 
z"/>
<path fill="#E5E5E7" opacity="1.000000" stroke="none" 
	d="
M305.333923,239.939835 
	C305.643341,237.357742 307.366577,235.444901 309.254639,233.594910 
	C309.560120,236.500427 308.247589,238.538788 305.333923,239.939835 
z"/>
<path fill="#E5E5E7" opacity="1.000000" stroke="none" 
	d="
M152.034973,209.034637 
	C151.325943,211.908188 149.336639,213.499374 146.090164,215.098877 
	C147.084412,211.685181 149.044220,210.253983 151.584229,208.973465 
	C151.917877,208.916718 151.995834,208.995438 152.034973,209.034637 
z"/>
<path fill="#E5E5E7" opacity="1.000000" stroke="none" 
	d="
M277.047882,284.046814 
	C276.344971,286.935699 274.315491,288.489624 271.082916,290.117188 
	C272.084656,286.691071 274.046906,285.263275 276.590942,283.984863 
	C276.924561,283.924591 277.006592,284.006256 277.047882,284.046814 
z"/>
<path fill="#E5E5E7" opacity="1.000000" stroke="none" 
	d="
M182.204620,148.832306 
	C181.158310,148.983078 180.432526,148.987442 179.341461,148.983536 
	C179.438110,148.111862 179.825378,147.196533 180.380829,146.398193 
	C181.076202,145.398743 182.186874,144.559753 183.248917,145.484558 
	C184.644135,146.699524 183.582550,147.790558 182.204620,148.832306 
z"/>
<path fill="#E5E5E7" opacity="1.000000" stroke="none" 
	d="
M173.027908,278.971863 
	C175.722427,279.315491 176.873337,281.622284 178.545197,283.302582 
	C175.967560,283.252014 174.036530,282.233032 173.009644,279.385406 
	C172.957565,279.043304 173.004395,278.995636 173.027908,278.971863 
z"/>
<path fill="#EAE9EC" opacity="1.000000" stroke="none" 
	d="
M249.399109,202.013489 
	C249.054306,201.906982 249.037155,201.723373 249.009171,201.263184 
	C250.121185,199.182724 250.513809,196.633942 253.857819,196.397842 
	C252.946442,198.941498 251.417557,200.495529 249.399109,202.013489 
z"/>
<path fill="#E5E5E7" opacity="1.000000" stroke="none" 
	d="
M167.005768,272.994507 
	C164.425766,272.655609 163.088791,270.863953 162.050140,268.337463 
	C164.547256,268.439789 165.989563,270.098145 166.953491,272.668884 
	C166.989151,273.011566 167.000000,273.000000 167.005768,272.994507 
z"/>
<path fill="#E5E5E7" opacity="1.000000" stroke="none" 
	d="
M263.010681,282.011658 
	C262.013916,284.399780 260.377441,285.783051 257.181885,285.728607 
	C258.321411,283.121460 260.557434,282.945984 262.620178,282.011902 
	C262.971954,281.972504 262.998169,281.998322 263.010681,282.011658 
z"/>
<path fill="#E5E5E7" opacity="1.000000" stroke="none" 
	d="
M281.991791,125.991600 
	C282.028320,125.658295 281.986237,125.286674 282.131348,125.015099 
	C282.864777,123.642677 282.943878,121.683838 285.042389,121.506920 
	C285.278076,121.487053 285.822754,122.189644 285.799377,122.527824 
	C285.668121,124.424805 284.336975,125.329895 282.365448,125.972641 
	C282.014801,126.014320 281.999481,125.999420 281.991791,125.991600 
z"/>
<path fill="#E5E5E7" opacity="1.000000" stroke="none" 
	d="
M154.054199,259.943207 
	C156.945328,259.446442 158.911591,259.816040 157.541016,263.548248 
	C155.602570,263.338318 155.369110,261.506989 154.099213,260.368835 
	C153.938339,260.078278 154.014481,259.987274 154.054199,259.943207 
z"/>
<path fill="#E5E5E7" opacity="1.000000" stroke="none" 
	d="
M191.210419,241.218201 
	C189.450089,240.159088 187.569992,239.734039 186.988037,237.391022 
	C186.934036,237.066162 187.005981,236.993637 187.043015,236.955902 
	C189.084946,237.482010 191.166260,237.937485 191.931519,240.657196 
	C191.803268,241.135727 191.637222,241.269852 191.210419,241.218201 
z"/>
<path fill="#E5E5E7" opacity="1.000000" stroke="none" 
	d="
M242.271820,287.685364 
	C245.244995,286.397522 248.512558,287.176819 251.818878,287.929932 
	C248.725540,287.929932 245.632217,287.929932 242.271820,287.685364 
z"/>
<path fill="#E5E5E7" opacity="1.000000" stroke="none" 
	d="
M203.623413,156.296127 
	C205.467087,155.918991 206.844742,156.150299 208.751068,158.007660 
	C206.278854,158.007660 204.321121,158.486282 202.776611,157.891617 
	C200.643555,157.070404 203.094574,156.943863 203.623413,156.296127 
z"/>
<path fill="#EAE9EC" opacity="1.000000" stroke="none" 
	d="
M210.596588,198.957169 
	C211.288162,201.384598 210.048721,202.217392 207.400940,202.003754 
	C207.117203,199.962296 208.275726,199.042725 210.596588,198.957169 
z"/>
<path fill="#E5E5E7" opacity="1.000000" stroke="none" 
	d="
M355.995026,190.004761 
	C354.056274,189.799988 352.790771,188.827591 352.247437,186.551941 
	C354.543518,186.283844 355.299225,187.721344 355.978912,189.651947 
	C356.010651,189.989044 356.000244,189.999771 355.995026,190.004761 
z"/>
<path fill="#E5E5E7" opacity="1.000000" stroke="none" 
	d="
M233.907364,189.058655 
	C235.046188,190.643738 234.181870,190.949707 233.043518,190.766678 
	C232.040848,190.605438 231.058228,189.896210 231.553680,188.803757 
	C232.009735,187.798203 232.932541,188.623093 233.907364,189.058655 
z"/>
<path fill="#E5E5E7" opacity="1.000000" stroke="none" 
	d="
M200.087509,140.319885 
	C200.481964,139.995636 200.917542,139.997330 201.680420,139.997864 
	C202.836426,140.525772 204.243835,141.464264 203.472290,142.121964 
	C201.995758,143.380646 200.890686,142.005661 200.087509,140.319885 
z"/>
<path fill="#E5E5E7" opacity="1.000000" stroke="none" 
	d="
M161.974106,268.025757 
	C160.359039,267.852234 159.165863,267.150421 158.655716,265.459198 
	C160.596329,264.632202 161.383545,265.764038 162.009369,267.611298 
	C162.058212,267.941528 162.002167,267.997711 161.974106,268.025757 
z"/>
<path fill="#E5E5E7" opacity="1.000000" stroke="none" 
	d="
M293.398651,124.507072 
	C292.572876,123.783638 291.902954,123.155548 292.807770,122.425140 
	C293.330750,122.002975 294.071106,122.038162 294.475647,122.638901 
	C295.120453,123.596458 295.054077,124.405769 293.398651,124.507072 
z"/>
<path fill="#EAE9EC" opacity="1.000000" stroke="none" 
	d="
M190.997574,241.368530 
	C191.119629,241.024170 191.289581,241.015869 191.714432,241.004608 
	C193.031845,241.444046 193.756866,242.175308 193.992874,243.664612 
	C194.013138,243.986786 194.000397,243.999603 193.993958,244.005905 
	C192.447479,243.956131 191.424820,243.240448 190.997574,241.368530 
z"/>
<path fill="#E5E5E7" opacity="1.000000" stroke="none" 
	d="
M300.467072,206.640503 
	C300.457947,205.083649 301.186401,205.166855 301.980194,205.741867 
	C302.540161,206.147491 302.942169,206.832809 302.273163,207.386780 
	C301.655487,207.898239 301.072296,207.382828 300.467072,206.640503 
z"/>
<path fill="#E5E5E7" opacity="1.000000" stroke="none" 
	d="
M207.991898,313.007935 
	C206.800049,312.958282 205.752701,312.621918 205.419098,311.346924 
	C205.358383,311.114899 205.879822,310.460144 206.123428,310.464905 
	C207.273987,310.487427 207.655746,311.392792 207.973969,312.662445 
	C208.014023,312.985657 207.999512,313.000458 207.991898,313.007935 
z"/>
<path fill="#E5E5E7" opacity="1.000000" stroke="none" 
	d="
M239.006042,194.351959 
	C240.422638,194.079849 241.031448,194.890717 241.028442,196.612061 
	C241.039703,196.961319 241.002975,196.997025 240.984024,197.015213 
	C239.528885,196.907471 238.989563,196.037415 239.006042,194.351959 
z"/>
<path fill="#E5E5E7" opacity="1.000000" stroke="none" 
	d="
M313.998810,285.998779 
	C313.878723,286.975952 313.645538,287.913605 312.393890,287.808014 
	C312.074951,287.781128 311.522736,287.263947 311.544891,287.013336 
	C311.639923,285.938385 312.606476,286.148315 313.661377,286.005310 
	C314.002441,286.002441 314.000000,286.000000 313.998810,285.998779 
z"/>
<path fill="#E5E5E7" opacity="1.000000" stroke="none" 
	d="
M125.365753,206.901245 
	C125.286224,206.445999 125.529533,206.018692 125.871384,205.367584 
	C126.617577,205.136780 127.458626,205.184509 127.476494,205.909225 
	C127.504707,207.053131 126.439415,206.836929 125.365753,206.901245 
z"/>
<path fill="#EAE9EC" opacity="1.000000" stroke="none" 
	d="
M257.000000,193.000305 
	C256.921204,193.642365 256.911316,194.359238 256.088623,194.497940 
	C255.915070,194.527191 255.675491,194.164993 255.466339,193.983154 
	C255.787354,193.675827 256.108368,193.368515 256.714111,193.030518 
	C256.998779,192.999847 257.000000,193.000000 257.000000,193.000305 
z"/>
<path fill="#E5E5E7" opacity="1.000000" stroke="none" 
	d="
M257.995422,344.995056 
	C257.896790,345.610016 257.907227,346.323242 257.107758,346.475067 
	C256.940979,346.506714 256.701385,346.154572 256.495361,345.979248 
	C256.814362,345.682159 257.133392,345.385071 257.731140,345.048523 
	C258.009827,345.009064 258.000000,345.000000 257.995422,344.995056 
z"/>
<path fill="#E5E5E7" opacity="1.000000" stroke="none" 
	d="
M302.971344,110.709366 
	C302.483704,110.754204 301.954620,110.529312 301.469910,110.232002 
	C301.418335,110.200371 301.571838,109.562790 301.723969,109.516838 
	C302.467804,109.292175 302.764557,109.803383 302.971344,110.709366 
z"/>
<path fill="#EAE9EC" opacity="1.000000" stroke="none" 
	d="
M182.402390,120.954422 
	C182.801788,120.220123 183.205170,120.208229 183.562576,120.734085 
	C183.637360,120.844124 183.635193,121.097023 183.557861,121.204506 
	C183.187195,121.719734 182.784149,121.697739 182.402390,120.954422 
z"/>
<path fill="#EAE9EC" opacity="1.000000" stroke="none" 
	d="
M181.598541,128.042938 
	C181.199753,128.777725 180.796814,128.784271 180.439636,128.263184 
	C180.364838,128.154053 180.367386,127.900642 180.444824,127.793907 
	C180.814575,127.284363 181.217194,127.297302 181.598541,128.042938 
z"/>
<path fill="#E5E5E7" opacity="1.000000" stroke="none" 
	d="
M178.688583,149.119232 
	C179.005569,150.163376 178.547333,151.094101 177.224243,151.856262 
	C176.988831,150.843903 177.459991,149.924911 178.688583,149.119232 
z"/>
<path fill="#E5E5E7" opacity="1.000000" stroke="none" 
	d="
M315.004700,180.992584 
	C315.924896,181.033325 316.682190,181.311279 316.996887,182.629547 
	C317.055542,182.943268 316.997406,183.002228 316.967102,183.032364 
	C316.042267,182.946854 315.279755,182.656357 315.023071,181.327377 
	C314.985443,181.008728 315.000275,181.000076 315.004700,180.992584 
z"/>
<path fill="#E5E5E7" opacity="1.000000" stroke="none" 
	d="
M239.005753,193.994659 
	C238.378479,193.904922 237.659973,193.909821 237.512283,193.094910 
	C237.481339,192.924210 237.839111,192.683044 238.017761,192.474350 
	C238.317139,192.798325 238.616531,193.122299 238.952667,193.728912 
	C238.989410,194.011536 239.000000,194.000000 239.005753,193.994659 
z"/>
<path fill="#E5E5E7" opacity="1.000000" stroke="none" 
	d="
M232.016159,259.653687 
	C231.903564,259.975464 231.720093,259.983704 231.261078,259.999054 
	C230.662033,259.540192 230.338547,259.074219 230.012695,258.298615 
	C230.917847,258.063416 231.687164,258.335724 232.016159,259.653687 
z"/>
<path fill="#E5E5E7" opacity="1.000000" stroke="none" 
	d="
M364.009155,196.991211 
	C364.668182,197.080551 365.383759,197.130157 365.501282,197.957672 
	C365.526367,198.134445 365.159698,198.366821 364.973511,198.573578 
	C364.661499,198.248032 364.349487,197.922470 364.007751,197.309723 
	C363.978027,197.022552 363.998688,197.001343 364.009155,196.991211 
z"/>
<path fill="#E5E5E7" opacity="1.000000" stroke="none" 
	d="
M227.954071,255.683838 
	C227.058395,255.965881 226.276566,255.711746 226.015808,254.342621 
	C225.979965,254.020554 225.998840,254.001221 226.008591,253.991760 
	C226.917007,254.070786 227.688812,254.336578 227.954071,255.683838 
z"/>
<path fill="#E5E5E7" opacity="1.000000" stroke="none" 
	d="
M228.008759,255.991608 
	C228.920319,256.067749 229.694366,256.330902 229.965927,257.671204 
	C230.010315,257.989014 229.999832,258.000183 229.993958,258.005859 
	C229.069016,257.955383 228.301559,257.683105 228.021027,256.339661 
	C227.980911,256.019714 227.999359,256.000702 228.008759,255.991608 
z"/>
<path fill="#EAE9EC" opacity="1.000000" stroke="none" 
	d="
M295.996002,264.992798 
	C296.053467,264.071777 296.327637,263.307892 297.687897,263.049530 
	C297.965088,263.950287 297.686005,264.714813 296.334473,264.971252 
	C296.014343,265.007599 296.000000,265.000000 295.996002,264.992798 
z"/>
<path fill="#EAE9EC" opacity="1.000000" stroke="none" 
	d="
M297.992676,262.988617 
	C298.446136,262.652496 298.911285,262.331879 299.671265,261.988495 
	C299.966095,261.965759 299.994934,261.995331 300.007751,262.011932 
	C299.554565,262.348877 299.088531,262.669220 298.327118,263.010803 
	C298.031769,263.032043 298.004395,263.004089 297.992676,262.988617 
z"/>
<path fill="#EAE9EC" opacity="1.000000" stroke="none" 
	d="
M358.041443,241.236328 
	C358.504974,240.990784 358.941681,240.997147 359.707123,241.014633 
	C359.558014,241.340897 359.080200,241.656036 358.303955,241.988342 
	C358.005524,242.005493 358.000000,242.000000 357.997559,241.997253 
	C358.001617,241.825760 358.008148,241.656998 358.041443,241.236328 
z"/>
<path fill="#E5E5E7" opacity="1.000000" stroke="none" 
	d="
M305.017761,240.026306 
	C304.657013,240.539200 304.339996,241.307312 303.612488,240.414871 
	C303.887360,240.268295 304.162201,240.121735 304.683472,239.951141 
	C304.929840,239.927109 304.989868,239.992020 305.017761,240.026306 
z"/>
<path fill="#E5E5E7" opacity="1.000000" stroke="none" 
	d="
M296.992981,126.752647 
	C296.526306,126.655937 295.680939,126.390594 296.594086,125.641594 
	C296.732727,125.919456 296.871368,126.197319 296.992981,126.752647 
z"/>
<path fill="#E5E5E7" opacity="1.000000" stroke="none" 
	d="
M299.019287,108.214355 
	C299.145355,108.401474 299.084259,108.589561 299.023163,108.777649 
	C298.959473,108.590210 298.895782,108.402771 299.019287,108.214355 
z"/>
<path fill="#E5E5E7" opacity="1.000000" stroke="none" 
	d="
M216.006409,320.994934 
	C216.342453,321.073395 216.608459,321.251770 216.922073,321.741608 
	C217.033066,321.958527 216.997116,321.999939 216.975800,322.018433 
	C216.627777,321.938812 216.368362,321.748779 216.082520,321.240479 
	C215.988831,321.014038 215.999771,321.000366 216.006409,320.994934 
z"/>
<path fill="#EAE9EC" opacity="1.000000" stroke="none" 
	d="
M182.532257,125.552139 
	C182.477264,125.585655 182.587234,125.518616 182.532257,125.552139 
z"/>
<path fill="#E5E5E7" opacity="1.000000" stroke="none" 
	d="
M281.023621,264.031799 
	C280.911377,264.055786 280.820923,264.965424 280.779480,264.014435 
	C280.928497,263.941040 280.994049,263.999390 281.023621,264.031799 
z"/>
<path fill="#E5E5E7" opacity="1.000000" stroke="none" 
	d="
M283.575714,316.449127 
	C283.626007,316.525116 283.425568,316.552338 283.425568,316.552338 
	C283.425568,316.552338 283.525421,316.373138 283.575714,316.449127 
z"/>
<path fill="#E5E5E7" opacity="1.000000" stroke="none" 
	d="
M229.463989,337.444031 
	C229.524658,337.406769 229.403336,337.481323 229.463989,337.444031 
z"/>
<path fill="#E5E5E7" opacity="1.000000" stroke="none" 
	d="
M297.017853,126.985878 
	C297.161560,127.141022 297.289734,127.309372 297.417908,127.477722 
	C297.313385,127.430244 297.208893,127.382774 297.040161,127.182709 
	C296.975983,127.030113 297.002319,126.999084 297.017853,126.985878 
z"/>
<path fill="#EAE9EC" opacity="1.000000" stroke="none" 
	d="
M215.465256,129.438477 
	C215.524445,129.401047 215.406067,129.475906 215.465256,129.438477 
z"/>
<path fill="#EAE9EC" opacity="1.000000" stroke="none" 
	d="
M193.986145,165.982086 
	C194.105026,166.017029 194.057724,165.147995 194.179123,165.961090 
	C194.031723,166.025269 193.999725,165.998138 193.986145,165.982086 
z"/>
<path fill="#E5E5E7" opacity="1.000000" stroke="none" 
	d="
M198.253479,161.913757 
	C198.209427,161.748581 198.394989,161.474869 198.804962,161.084625 
	C198.847275,161.247147 198.665176,161.526169 198.253479,161.913757 
z"/>
<path fill="#E5E5E7" opacity="1.000000" stroke="none" 
	d="
M197.058441,162.193726 
	C197.147156,162.008270 197.322510,162.008942 197.760742,162.021790 
	C197.837357,162.419998 197.650665,162.804947 197.058441,162.193726 
z"/>
<path fill="#E5E5E7" opacity="1.000000" stroke="none" 
	d="
M276.546143,268.474060 
	C276.575775,268.526184 276.516479,268.421936 276.546143,268.474060 
z"/>
<path fill="#EAE9EC" opacity="1.000000" stroke="none" 
	d="
M329.996216,165.002960 
	C330.115540,165.143295 330.238617,165.280685 330.361694,165.418091 
	C330.278198,165.368118 330.194702,165.318161 330.058472,165.130341 
	C330.005737,164.992477 330.000000,165.000000 329.996216,165.002960 
z"/>
<path fill="#E5E5E7" opacity="1.000000" stroke="none" 
	d="
M274.022522,249.029144 
	C273.949036,249.381287 273.762817,249.644363 273.265442,249.951141 
	C273.045135,250.059158 272.997772,250.004669 272.969849,249.980225 
	C273.044800,249.632019 273.235046,249.372238 273.731995,249.068481 
	C273.951294,248.960510 274.000671,249.004395 274.022522,249.029144 
z"/>
<path fill="#E5E5E7" opacity="1.000000" stroke="none" 
	d="
M351.528076,184.550293 
	C351.477142,184.580460 351.579010,184.520111 351.528076,184.550293 
z"/>
<path fill="#E5E5E7" opacity="1.000000" stroke="none" 
	d="
M278.442139,266.418091 
	C278.520813,266.363647 278.550323,266.575836 278.550323,266.575836 
	C278.550323,266.575836 278.363495,266.472504 278.442139,266.418091 
z"/>
<path fill="#E5E5E7" opacity="1.000000" stroke="none" 
	d="
M283.992676,276.990479 
	C284.080505,276.654114 284.266022,276.390747 284.781982,276.104279 
	C284.941345,276.354614 284.758026,276.621033 284.247620,276.917419 
	C284.022034,277.017242 284.001129,277.000580 283.992676,276.990479 
z"/>
<path fill="#E5E5E7" opacity="1.000000" stroke="none" 
	d="
M284.992401,275.989960 
	C285.080261,275.653442 285.265778,275.390228 285.782196,275.104614 
	C285.941742,275.355347 285.758301,275.621613 285.248596,275.918365 
	C285.023163,276.018341 285.001221,276.000671 284.992401,275.989960 
z"/>
<path fill="#E5E5E7" opacity="1.000000" stroke="none" 
	d="
M285.991852,274.989502 
	C286.117615,275.060608 286.047607,274.164459 286.172821,274.963379 
	C286.024323,275.019592 286.001312,275.000732 285.991852,274.989502 
z"/>
<path fill="#E5E5E7" opacity="1.000000" stroke="none" 
	d="
M367.929810,200.852570 
	C367.822815,200.879303 367.695007,200.698196 367.567169,200.517090 
	C367.681122,200.559616 367.795044,200.602158 367.929810,200.852570 
z"/>
<path fill="#E5E5E7" opacity="1.000000" stroke="none" 
	d="
M206.754303,272.995178 
	C206.897568,273.332947 206.708191,273.596222 206.206512,273.902679 
	C205.983917,274.010406 205.967484,273.518494 205.969681,273.272827 
	C205.971878,273.027130 205.998535,273.001404 206.011841,272.987946 
	C206.025162,272.974487 206.511353,272.985168 206.754303,272.995178 
z"/>
<path fill="#E5E5E7" opacity="1.000000" stroke="none" 
	d="
M368.967773,202.025040 
	C368.618134,201.953323 368.358276,201.769058 368.056000,201.278244 
	C367.950623,201.060425 367.998535,201.005676 368.026215,200.980652 
	C368.370728,201.060623 368.627777,201.247742 368.933746,201.732300 
	C369.042450,201.947617 368.994659,202.001221 368.967773,202.025040 
z"/>
<path fill="#E5E5E7" opacity="1.000000" stroke="none" 
	d="
M181.470383,227.452271 
	C181.523483,227.421249 181.417282,227.483276 181.470383,227.452271 
z"/>
<path fill="#E5E5E7" opacity="1.000000" stroke="none" 
	d="
M274.526489,270.545959 
	C274.471497,270.577972 274.581451,270.513916 274.526489,270.545959 
z"/>
<path fill="#FFFFFF" opacity="1.000000" stroke="none" 
	d="
M212.632767,205.040985 
	C212.260330,205.341553 211.891556,205.383087 211.522766,205.424622 
	C211.525513,205.161972 211.528244,204.899323 211.530991,204.636673 
	C211.899460,204.685089 212.267944,204.733521 212.632767,205.040985 
z"/>
<path fill="#FFFFFF" opacity="1.000000" stroke="none" 
	d="
M167.001221,192.999054 
	C166.876312,192.851517 166.750183,192.704926 166.624054,192.558350 
	C166.714355,192.609131 166.804642,192.659912 166.946518,192.856567 
	C166.998108,193.002441 167.000000,193.000000 167.001221,192.999054 
z"/>
</svg>