<?xml version="1.0" encoding="UTF-8"?>
<svg version="1.1" xmlns="http://www.w3.org/2000/svg" width="512" height="512">
<path d="M0 0 C0.79223969 -0.00067474 1.58447937 -0.00134949 2.40072632 -0.00204468 C59.25704146 0.0744164 114.17205717 19.08538068 158.875 54.25 C159.75027344 54.93191406 160.62554687 55.61382812 161.52734375 56.31640625 C187.59987833 77.10551973 208.34425829 102.36622037 224.875 131.25 C225.24093262 131.88325195 225.60686523 132.51650391 225.98388672 133.16894531 C240.87974629 159.19888447 250.51879578 188.61283298 254.875 218.25 C255.05232666 219.44882813 255.22965332 220.64765625 255.41235352 221.8828125 C257.04088616 233.70883441 257.23402724 245.45158524 257.1875 257.375 C257.18534485 258.36922974 257.1831897 259.36345947 257.18096924 260.38781738 C256.9567949 324.82303647 232.43454734 385.56036556 188.91796875 432.9609375 C187.50603873 434.54294705 186.14766013 436.17380524 184.8359375 437.83984375 C183.0979893 439.9759275 181.41236116 441.6732538 179.3125 443.4375 C176.02767506 446.23747993 172.84814685 449.12300628 169.6875 452.0625 C147.56820457 472.19594709 108.42132061 501.70687803 77.1875 502.8125 C72.46884484 502.47997732 69.7253437 500.76992518 66.125 497.8125 C63.04911411 493.96764264 63.72372772 488.90318421 63.71728516 484.21533203 C63.71220444 483.40818253 63.70712372 482.60103302 63.70188904 481.76942444 C63.69119809 480.01740728 63.68257292 478.26537657 63.67576981 476.51334 C63.66393709 473.72829446 63.64446834 470.94340097 63.62265015 468.15841675 C63.56121498 460.23977837 63.50722216 452.32115305 63.47363281 444.40234375 C63.45251798 439.55408453 63.41707416 434.70609914 63.37287521 429.85799789 C63.3588377 428.02190278 63.35002089 426.18575918 63.34682083 424.34961319 C63.31300712 406.79025894 61.77996064 390.14181207 50.20703125 376.00390625 C48.81448275 374.170316 47.87731372 372.3168216 46.875 370.25 C47.62894043 370.12471924 48.38288086 369.99943848 49.15966797 369.87036133 C85.66892851 363.74287469 119.89734873 355.24851793 142.8671875 323.49609375 C157.01557758 301.94319602 161.39553412 277.55036091 162.875 252.25 C162.91641113 251.54891113 162.95782227 250.84782227 163.00048828 250.12548828 C164.30757017 224.10864722 156.29442184 197.79797962 138.875 178.25 C138.545 177.92 138.215 177.59 137.875 177.25 C137.99987395 172.86020041 138.72645462 168.54398297 139.875 164.3125 C144.46849939 147.03545751 141.15860685 129.31520864 135.8984375 112.63671875 C134.875 109.25 134.875 109.25 134.875 107.25 C124.4238823 108.20123946 114.80578438 109.65344566 104.875 113.25 C104.08609375 113.51296875 103.2971875 113.7759375 102.484375 114.046875 C95.11336936 116.70444846 88.34359625 120.68623966 81.53515625 124.51953125 C80.78411621 124.93936279 80.03307617 125.35919434 79.25927734 125.79174805 C76.78715389 127.24858759 76.78715389 127.24858759 74.30712891 129.20239258 C69.25462638 132.92944645 66.00112204 134.83561372 59.640625 133.91015625 C57.45868005 133.42049414 55.28635427 132.88625992 53.125 132.3125 C50.82354997 131.78498975 48.52146757 131.26023057 46.21875 130.73828125 C45.12304688 130.47611816 44.02734375 130.21395508 42.8984375 129.94384766 C10.70138222 122.55495626 -23.50565846 126.00318882 -55.42211914 132.70922852 C-56.31406982 132.88768311 -57.20602051 133.0661377 -58.125 133.25 C-59.14601807 133.47993652 -60.16703613 133.70987305 -61.21899414 133.94677734 C-64.46007868 134.28496326 -65.43162591 133.99759365 -68.0859375 132.22265625 C-69.15183105 131.53453857 -69.15183105 131.53453857 -70.23925781 130.83251953 C-70.98530273 130.33091309 -71.73134766 129.82930664 -72.5 129.3125 C-74.10367068 128.28550746 -75.71050642 127.26344212 -77.3203125 126.24609375 C-78.12500977 125.73675293 -78.92970703 125.22741211 -79.75878906 124.70263672 C-96.25259653 114.57695013 -113.80748587 108.49207367 -133.125 107.25 C-134.1586233 110.9080002 -135.14914212 114.57618209 -136.125 118.25 C-136.53685547 119.7659375 -136.53685547 119.7659375 -136.95703125 121.3125 C-141.02419652 137.3407375 -141.83024707 155.47939835 -136.125 171.25 C-135.5625 174.125 -135.5625 174.125 -136.125 177.25 C-137.64961992 179.22412792 -139.34370888 180.98199079 -141.0546875 182.796875 C-153.22661241 197.21945772 -160.39874241 218.52518464 -161.125 237.25 C-161.16496094 238.27222656 -161.20492187 239.29445312 -161.24609375 240.34765625 C-161.8773403 274.47210189 -155.27941317 309.42241177 -131.32177734 335.02636719 C-108.38580753 358.77054942 -76.67171834 365.81543274 -45.125 370.25 C-46.52361839 373.34349585 -48.22209354 375.62823888 -50.4375 378.1875 C-55.87918245 385.08029777 -58.96319753 393.00800087 -59.5625 401.75 C-59.94921875 404.15234375 -59.94921875 404.15234375 -61.125 406.25 C-73.97594742 413.44852553 -91.51498684 414.11376951 -105.81640625 411.6015625 C-112.79009794 409.47399554 -118.50833382 405.84366568 -124.125 401.25 C-124.72699219 400.76144531 -125.32898438 400.27289063 -125.94921875 399.76953125 C-130.70436964 395.45775108 -133.95110338 390.14148199 -137.43359375 384.80859375 C-145.45609882 372.56756778 -155.35251812 363.78174456 -169.625 359.5 C-175.43934555 358.91856545 -180.78981416 358.4963557 -186.125 361.25 C-184.50690584 367.36280017 -179.79200455 370.26647511 -174.9453125 373.87109375 C-162.07959623 383.50925144 -154.29503062 395.88926416 -148.0625 410.5 C-145.18763026 417.20247006 -142.26320378 422.95742958 -137.125 428.25 C-136.48304688 428.930625 -135.84109375 429.61125 -135.1796875 430.3125 C-122.57299118 442.5935621 -105.42954441 447.03835441 -88.21386719 447.29492188 C-82.18416769 447.16525092 -76.18339376 446.30656296 -70.22045898 445.44946289 C-67.51646749 445.19207491 -64.83934904 445.22084454 -62.125 445.25 C-62.0742473 451.85193597 -62.03924424 458.45382153 -62.01513672 465.0559082 C-62.00508556 467.30137004 -61.99144256 469.54681881 -61.97412109 471.79223633 C-61.94983419 475.02167997 -61.93850793 478.25095038 -61.9296875 481.48046875 C-61.91420364 482.98386055 -61.91420364 482.98386055 -61.89840698 484.5176239 C-61.89825592 485.45822159 -61.89810486 486.39881927 -61.89794922 487.36791992 C-61.893508 488.19176682 -61.88906677 489.01561371 -61.88449097 489.86442566 C-62.38810613 494.85971167 -64.33434172 498.03368388 -68.125 501.25 C-75.97669861 503.86723287 -83.08399869 502.07403596 -90.4375 498.875 C-91.71729736 498.33806519 -91.71729736 498.33806519 -93.02294922 497.7902832 C-95.73606614 496.63667638 -98.43195094 495.44965294 -101.125 494.25 C-102.00752441 493.8595752 -102.89004883 493.46915039 -103.79931641 493.06689453 C-131.51249192 480.679212 -158.20283047 463.43875827 -179.125 441.25 C-179.970625 440.404375 -180.81625 439.55875 -181.6875 438.6875 C-182.8940625 437.4809375 -182.8940625 437.4809375 -184.125 436.25 C-184.68316406 435.72664063 -185.24132812 435.20328125 -185.81640625 434.6640625 C-192.32089055 428.43552601 -197.70386179 421.41320722 -203.125 414.25 C-203.83914062 413.30769531 -204.55328125 412.36539062 -205.2890625 411.39453125 C-238.27901424 366.90409833 -255.64727959 313.50608994 -255.4375 258.1875 C-255.43567719 257.19143738 -255.43385437 256.19537476 -255.43197632 255.16912842 C-255.38723255 240.65669713 -254.92969043 226.52690481 -252.125 212.25 C-251.96402832 211.35442383 -251.80305664 210.45884766 -251.63720703 209.53613281 C-243.85593562 166.52610813 -224.54014854 125.47889903 -196.125 92.25 C-195.16602188 91.10600895 -194.20772649 89.96144534 -193.25 88.81640625 C-184.90229301 78.89067267 -176.12135848 69.54730745 -166.125 61.25 C-165.6084082 60.81961426 -165.09181641 60.38922852 -164.55957031 59.94580078 C-118.00388681 21.349806 -60.55789783 0.04661764 0 0 Z " fill="#000000" transform="translate(255.125,4.75)"/>
</svg>
