<?xml version="1.0" encoding="UTF-8"?>
<svg version="1.1" xmlns="http://www.w3.org/2000/svg" width="512" height="512">
<path d="M0 0 C1.45108658 0.00273422 1.45108658 0.00273422 2.93148804 0.00552368 C17.26440977 0.05095174 31.21023917 0.55983928 45.3125 3.3125 C46.65803955 3.55395752 46.65803955 3.55395752 48.03076172 3.80029297 C107.84088904 14.62287989 165.35495829 48.68064457 202.3125 97.3125 C202.72918945 97.85277832 203.14587891 98.39305664 203.57519531 98.94970703 C211.2584873 108.9447116 218.00092968 119.40459036 224.3125 130.3125 C224.70679199 130.98974121 225.10108398 131.66698242 225.50732422 132.36474609 C238.68961173 155.2833756 247.29510918 180.85822563 252.625 206.6875 C252.77243652 207.39817627 252.91987305 208.10885254 253.07177734 208.84106445 C256.05713787 224.48358366 256.6873098 240.11919606 256.625 256 C256.62226578 257.45108658 256.62226578 257.45108658 256.61947632 258.93148804 C256.57404826 273.26440977 256.06516072 287.21023917 253.3125 301.3125 C253.15152832 302.20952637 252.99055664 303.10655273 252.82470703 304.03076172 C242.00212011 363.84088904 207.94435543 421.35495829 159.3125 458.3125 C158.77222168 458.72918945 158.23194336 459.14587891 157.67529297 459.57519531 C147.6802884 467.2584873 137.22040964 474.00092968 126.3125 480.3125 C125.63525879 480.70679199 124.95801758 481.10108398 124.26025391 481.50732422 C98.34126191 496.41535371 68.84898362 505.97401819 39.3125 510.3125 C38.10787109 510.48982666 36.90324219 510.66715332 35.66210938 510.84985352 C24.00482646 512.448825 12.44063902 512.6709053 0.6875 512.625 C-0.76733292 512.62226578 -0.76733292 512.62226578 -2.2515564 512.61947632 C-16.60306055 512.57408309 -30.56692918 512.0687347 -44.6875 509.3125 C-45.58452637 509.15152832 -46.48155273 508.99055664 -47.40576172 508.82470703 C-107.21588904 498.00212011 -164.72995829 463.94435543 -201.6875 415.3125 C-202.10418945 414.77222168 -202.52087891 414.23194336 -202.95019531 413.67529297 C-210.6334873 403.6802884 -217.37592968 393.22040964 -223.6875 382.3125 C-224.08179199 381.63525879 -224.47608398 380.95801758 -224.88232422 380.26025391 C-238.06461173 357.3416244 -246.67010918 331.76677437 -252 305.9375 C-252.14743652 305.22682373 -252.29487305 304.51614746 -252.44677734 303.78393555 C-255.43213787 288.14141634 -256.0623098 272.50580394 -256 256.625 C-255.99817719 255.65760895 -255.99635437 254.6902179 -255.99447632 253.69351196 C-255.94904826 239.36059023 -255.44016072 225.41476083 -252.6875 211.3125 C-252.44604248 209.96696045 -252.44604248 209.96696045 -252.19970703 208.59423828 C-241.37712011 148.78411096 -207.31935543 91.27004171 -158.6875 54.3125 C-158.14722168 53.89581055 -157.60694336 53.47912109 -157.05029297 53.04980469 C-147.0552884 45.3665127 -136.59540964 38.62407032 -125.6875 32.3125 C-125.01025879 31.91820801 -124.33301758 31.52391602 -123.63525391 31.11767578 C-100.7166244 17.93538827 -75.14177437 9.32989082 -49.3125 4 C-48.60182373 3.85256348 -47.89114746 3.70512695 -47.15893555 3.55322266 C-31.51641634 0.56786213 -15.88080394 -0.0623098 0 0 Z " fill="#007AB9" transform="translate(255.6875,-0.3125)"/>
<path d="M0 0 C16.46291642 13.82700003 24.7923665 33.79775278 27 55 C27.51637793 64.258847 27.35057424 73.54358254 27.29296875 82.8125 C27.28736314 85.48006941 27.28294971 88.14761451 27.28010559 90.81518555 C27.270855 97.07627275 27.24633812 103.33719907 27.21605712 109.59821606 C27.17896816 117.44044627 27.16275477 125.28270371 27.14648438 133.125 C27.11743437 147.08345802 27.05731109 161.041566 27 175 C6.87 175 -13.26 175 -34 175 C-34.03738281 167.35457031 -34.07476562 159.70914063 -34.11328125 151.83203125 C-34.14358076 146.96937911 -34.17474171 142.1067627 -34.20898438 137.24414062 C-34.26317533 129.53720974 -34.3142906 121.8303495 -34.34643555 114.12329102 C-34.37257111 107.90508495 -34.41304572 101.68711808 -34.46318626 95.4690609 C-34.47978581 93.10462115 -34.49134289 90.7401401 -34.49761391 88.37565041 C-34.18247621 63.69611801 -34.18247621 63.69611801 -45.44140625 42.37890625 C-52.22366258 36.15105779 -59.72508817 35.42509574 -68.53515625 35.66015625 C-77.93674072 36.58229588 -84.76416382 41.0247366 -91 48 C-97.04224665 56.57704281 -98.29696827 64.72636925 -98.31884766 74.98413086 C-98.33391609 76.60963364 -98.33391609 76.60963364 -98.34928894 78.26797485 C-98.38006714 81.83359265 -98.3971414 85.39913554 -98.4140625 88.96484375 C-98.43277843 91.44349306 -98.45235216 93.92213603 -98.4727478 96.40077209 C-98.5240299 102.91248838 -98.56367678 109.42422531 -98.60089111 115.93603516 C-98.64676695 123.7555826 -98.70958513 131.57502234 -98.76873779 139.39447784 C-98.85690221 151.26294391 -98.92670126 163.13139087 -99 175 C-119.13 175 -139.26 175 -160 175 C-160 114.28 -160 53.56 -160 -9 C-139.87 -9 -119.74 -9 -99 -9 C-98.505 3.375 -98.505 3.375 -98 16 C-96.906875 14.370625 -95.81375 12.74125 -94.6875 11.0625 C-87.42887504 1.13770173 -78.29322177 -5.30201974 -67 -10 C-66.19820313 -10.3403125 -65.39640625 -10.680625 -64.5703125 -11.03125 C-44.23389808 -18.04828756 -16.96244951 -12.61447986 0 0 Z " fill="#EFF1F1" transform="translate(382,207)"/>
<path d="M0 0 C20.13 0 40.26 0 61 0 C61 60.72 61 121.44 61 184 C40.87 184 20.74 184 0 184 C0 123.28 0 62.56 0 0 Z " fill="#F0F1F1" transform="translate(127,198)"/>
<path d="M0 0 C0.79124268 -0.01023193 1.58248535 -0.02046387 2.39770508 -0.03100586 C12.34159919 0.11633399 20.40334546 3.33735902 27.4375 10.4375 C34.11876436 19.54194829 35.43374288 27.2092567 34.4375 38.4375 C32.28542669 47.31873913 28.0406968 53.41126455 20.4375 58.4375 C10.54519811 64.39619142 -0.36599239 65.08329809 -11.51953125 62.84375 C-19.65652733 60.07588992 -27.16791148 53.76775219 -31.125 46.125 C-34.36514073 37.81333465 -35.17821544 28.63640724 -32.50390625 20.03125 C-28.63389185 11.72487763 -23.43626891 6.11448994 -15.25 2 C-10.22357544 0.18923836 -5.28747315 0.05274671 0 0 Z " fill="#EFF1F1" transform="translate(157.5625,109.5625)"/>
</svg>
