<svg width="9025" height="6724" viewBox="0 0 9025 6724" fill="none" xmlns="http://www.w3.org/2000/svg">
<path d="M9024.39 5908.69H0.798584V5913.2H9024.39V5908.69Z" fill="#EBEBEB"/>
<path d="M8120.23 6080.5H6479.74V6085.01H8120.23V6080.5Z" fill="#EBEBEB"/>
<path d="M5978.39 6031.59H5529.19V6036.1H5978.39V6031.59Z" fill="#EBEBEB"/>
<path d="M7005.09 6248.15H6308.65V6252.67H7005.09V6248.15Z" fill="#EBEBEB"/>
<path d="M1356.14 6217.83H947.554V6222.35H1356.14V6217.83Z" fill="#EBEBEB"/>
<path d="M2002.05 6217.83H1516.76V6222.35H2002.05V6217.83Z" fill="#EBEBEB"/>
<path d="M4064.12 6141.68H3218.79V6146.19H4064.12V6141.68Z" fill="#EBEBEB"/>
<path d="M4277.98 5103.78H793.431C766.101 5103.78 739.89 5092.93 720.564 5073.6C701.239 5054.27 690.382 5028.06 690.382 5000.73V102.185C690.62 75.0114 701.581 49.0316 720.881 29.9009C740.181 10.7701 766.256 0.0370441 793.431 0.038086H4277.98C4305.31 0.038086 4331.52 10.8951 4350.85 30.2206C4370.17 49.5461 4381.03 75.7571 4381.03 103.088V5000.73C4381.03 5028.06 4370.17 5054.27 4350.85 5073.6C4331.52 5092.93 4305.31 5103.78 4277.98 5103.78ZM793.431 3.64754C767.312 3.69524 742.276 14.0922 723.807 32.5612C705.338 51.0303 694.941 76.066 694.893 102.185V5000.73C694.941 5026.85 705.338 5051.89 723.807 5070.36C742.276 5088.83 767.312 5099.22 793.431 5099.27H4277.98C4304.1 5099.22 4329.14 5088.83 4347.61 5070.36C4366.07 5051.89 4376.47 5026.85 4376.52 5000.73V102.185C4376.47 76.066 4366.07 51.0303 4347.61 32.5612C4329.14 14.0922 4304.1 3.69524 4277.98 3.64754H793.431Z" fill="#EBEBEB"/>
<path d="M8181.77 5103.78H4696.86C4669.54 5103.73 4643.36 5092.86 4624.04 5073.55C4604.73 5054.23 4593.86 5028.05 4593.81 5000.73V102.185C4594.09 75.0262 4605.07 49.0737 4624.36 29.953C4643.65 10.8323 4669.7 0.0840754 4696.86 0.0380859H8181.77C8208.88 0.132012 8234.86 10.907 8254.09 30.0276C8273.31 49.1482 8284.22 75.0738 8284.46 102.185V5000.73C8284.46 5028 8273.65 5054.16 8254.4 5073.47C8235.15 5092.79 8209.04 5103.69 8181.77 5103.78ZM4696.86 3.64754C4670.74 3.69524 4645.7 14.0922 4627.23 32.5612C4608.76 51.0303 4598.37 76.066 4598.32 102.185V5000.73C4598.37 5026.85 4608.76 5051.89 4627.23 5070.36C4645.7 5088.83 4670.74 5099.22 4696.86 5099.27H8181.77C8207.89 5099.22 8232.92 5088.83 8251.39 5070.36C8269.86 5051.89 8280.26 5026.85 8280.31 5000.73V102.185C8280.26 76.066 8269.86 51.0303 8251.39 32.5612C8232.92 14.0922 8207.89 3.69524 8181.77 3.64754H4696.86Z" fill="#EBEBEB"/>
<path d="M6450.5 1762.53H6648.84L6625.38 1285.36H6450.5V1762.53Z" fill="#F5F5F5"/>
<path d="M7677.53 1817.75L7769.03 2044.42H7677.53L7116.62 1817.75H7677.53Z" fill="#F5F5F5"/>
<path d="M7769.03 1817.75V2044.42L7208.12 1817.75H7769.03Z" fill="#E6E6E6"/>
<path d="M5523.78 1817.75L5615.28 2044.42H5523.78L4962.87 1817.75H5523.78Z" fill="#F5F5F5"/>
<path d="M5615.28 1817.75V2044.42L5054.37 1817.75H5615.28Z" fill="#E6E6E6"/>
<path d="M7875.69 1763.97H7570.69V1829.3H7875.69V1763.97Z" fill="#E6E6E6"/>
<path d="M4816.15 1829.48L7570.87 1829.48V1764.15L4816.15 1764.15V1829.48Z" fill="#F5F5F5"/>
<path d="M6159.4 1762.53H6584.95L6637.47 1184.29H6211.92L6159.4 1762.53Z" fill="#E6E6E6"/>
<path d="M6137.38 1762.53H6562.94L6615.45 1184.29H6189.9L6137.38 1762.53Z" fill="#F0F0F0"/>
<path d="M6527.2 1698.46L6575.21 1248.36H6225.63L6177.63 1698.46H6527.2Z" fill="white"/>
<path d="M5776.98 1762.53H6068.98L6034.51 1059.77H5776.98V1762.53Z" fill="#E0E0E0"/>
<path d="M5348 1762.53H5974.78L6052.38 910.879H5425.42L5348 1762.53Z" fill="#F0F0F0"/>
<path d="M5315.51 1762.53H5942.29L6019.9 910.879H5392.94L5315.51 1762.53Z" fill="#F5F5F5"/>
<path d="M5889.78 1668.14L5960.7 1005.09H5445.63L5374.71 1668.14H5889.78Z" fill="#E0E0E0"/>
<path d="M7195.85 1762.53H7542L7501.21 929.468H7195.85V1762.53Z" fill="#EBEBEB"/>
<path d="M6687.28 1762.53H7430.46L7522.32 752.967H6779.32L6687.28 1762.53Z" fill="#F0F0F0"/>
<path d="M6648.84 1762.53H7391.84L7483.7 752.967H6740.7L6648.84 1762.53Z" fill="#FAFAFA"/>
<path d="M7329.58 1650.81L7413.5 864.859H6803.14L6719.04 1650.81H7329.58Z" fill="#F0F0F0"/>
<path d="M1382.49 4724.79H3978.94L3978.94 577.548H1382.49L1382.49 4724.79Z" fill="#E6E6E6"/>
<path d="M1273.85 4724.79H3928.23L3928.23 577.548H1273.85L1273.85 4724.79Z" fill="#F0F0F0"/>
<path d="M1382.49 4926.92H3978.94V4724.79H1382.49V4926.92Z" fill="#E6E6E6"/>
<path d="M1092.47 4926.92H3746.85V4724.79H1092.47V4926.92Z" fill="#F5F5F5"/>
<path d="M3775.91 4572.65L3775.91 729.866L1425.98 729.866L1425.98 4572.65H3775.91Z" fill="#FAFAFA"/>
<path d="M3454.13 4572.65L3050.95 729.866H2396.92L2800.28 4572.65H3454.13Z" fill="white"/>
<path d="M2659.87 4572.65L2256.52 729.866H2001.51L2404.86 4572.65H2659.87Z" fill="white"/>
<path d="M1445.3 4572.47L1445.3 729.686H1425.98L1425.98 4572.47H1445.3Z" fill="#E6E6E6"/>
<path d="M2169.35 4657.11H2140.47C2140.47 4597.74 2140.47 4446.68 2137.59 4100.9C2132.35 3474.12 2122.43 3435.86 2122.43 3435.86L2191.19 3724.62C2234.68 4045.68 2178.55 4367.46 2169.35 4657.11Z" fill="#E6E6E6"/>
<path d="M2205.8 3728.23C2262.11 3610.38 2381.94 3575.91 2504.85 3546.67C2553.03 3535.12 2378.52 3729.31 2292.61 3867.19C2226.2 3974.39 2184.33 4003.99 2166.28 4110.83C2155.99 3977.64 2157.44 3829.83 2205.8 3728.23Z" fill="#E6E6E6"/>
<path d="M2126.58 3792.84C2090.48 3722.63 1987.43 3633.66 1952.24 3635.1C1925.53 3636.01 2030.02 3790.49 2081.1 3876.57C2120.8 3943.35 2142.28 3966.81 2160.87 4023.84C2151.84 3958.33 2157.8 3853.47 2126.58 3792.84Z" fill="#E6E6E6"/>
<path d="M2206.71 3979.62C2250.74 3913.93 2363.18 3837.59 2398.01 3842.83C2424.54 3846.98 2302.72 3988.47 2242.26 4067.87C2195.16 4129.78 2170.07 4150.17 2146.07 4205.03C2162.49 4140.96 2168.63 4036.11 2206.71 3979.62Z" fill="#E6E6E6"/>
<path d="M2131.45 3939.02C2075.14 3821.17 1907.3 3733.64 1784.4 3704.4C1736.22 3692.85 1959.1 3940.28 2044.64 4078.16C2111.06 4185.36 2152.93 4214.96 2170.97 4321.8C2181.26 4188.43 2179.82 4040.62 2131.45 3939.02Z" fill="#E6E6E6"/>
<path d="M2155.45 3454.27C2096.26 3319.46 2007.28 3180.49 1888.53 3129.42C1841.79 3109.75 1996.82 3389.84 2055.47 3570.49C2101.13 3710.72 2161.77 3875.49 2171.15 3993.88C2201.11 3817.02 2248.03 3665.6 2155.45 3454.27Z" fill="#E6E6E6"/>
<path d="M2146.25 4724.79C2234.68 4724.79 2308.67 4638.35 2312.82 4527.72L2327.62 4338.76H1965.05L1979.85 4527.72C1984.91 4638.16 2058.18 4724.79 2146.25 4724.79Z" fill="#E6E6E6"/>
<path d="M1941.59 4461.3H2351.08L2362.81 4394.17H1929.86L1941.59 4461.3Z" fill="#E6E6E6"/>
<path d="M1941.59 4361.5H2351.08L2362.81 4294.37H1929.86L1941.59 4361.5Z" fill="#E6E6E6"/>
<path d="M6166.98 3889.93C6166.19 3886.08 6164.08 3882.62 6161.02 3880.15C6157.95 3877.68 6154.13 3876.35 6150.2 3876.39H5500.5C5496.56 3876.35 5492.74 3877.68 5489.68 3880.15C5486.62 3882.62 5484.51 3886.08 5483.71 3889.93L5252.53 5908.69H5288.62L5514.21 3910.5H6136.84L6362.43 5908.69H6397.44L6166.98 3889.93Z" fill="#F0F0F0"/>
<path d="M7425.23 3889.93C7424.44 3886.08 7422.33 3882.62 7419.27 3880.15C7416.2 3877.68 7412.38 3876.35 7408.45 3876.39H6758.75C6754.81 3876.35 6750.99 3877.68 6747.93 3880.15C6744.87 3882.62 6742.76 3886.08 6741.96 3889.93L6511.32 5908.69H6546.33L6772.46 3910.5H7394.55L7620.86 5908.69H7655.69L7425.23 3889.93Z" fill="#F0F0F0"/>
<path d="M7443.82 3746.45H5399.79C5302.16 3746.45 5222.93 3793.38 5222.93 3851.49V3855.1C5222.93 3876.21 5251.81 3893.36 5287.36 3893.36H7556.07C7592.17 3893.36 7620.68 3875.31 7620.68 3855.1V3851.49C7620.68 3793.38 7541.45 3746.45 7443.82 3746.45Z" fill="#E0E0E0"/>
<path d="M6255.77 3265.5C6255.77 3393.05 6306.44 3515.39 6396.64 3605.58C6486.84 3695.78 6609.17 3746.45 6736.73 3746.45C6864.29 3746.45 6986.62 3695.78 7076.82 3605.58C7167.02 3515.39 7217.69 3393.05 7217.69 3265.5H6255.77Z" fill="#E6E6E6"/>
<path d="M5861.62 3375.76C5861.62 3474.08 5900.68 3568.36 5970.19 3637.88C6039.71 3707.4 6134 3746.45 6232.31 3746.45C6330.62 3746.45 6424.91 3707.4 6494.43 3637.88C6563.95 3568.36 6603 3474.08 6603 3375.76H5861.62Z" fill="#EBEBEB"/>
<path d="M4512.6 6723.7C6445.13 6723.7 8011.76 6632.23 8011.76 6519.4C8011.76 6406.57 6445.13 6315.11 4512.6 6315.11C2580.06 6315.11 1013.43 6406.57 1013.43 6519.4C1013.43 6632.23 2580.06 6723.7 4512.6 6723.7Z" fill="#F5F5F5"/>
<path d="M7921.71 2205.22C7949.86 2263.52 7975.85 2321.81 7999.49 2381.36C8023.13 2440.92 8046.23 2501.2 8065.91 2564.18C8068.43 2572.12 8070.78 2580.06 8073.12 2588.18L8076.55 2600.1L8078.36 2606.59L8080.7 2616.7C8086.19 2642.37 8085.45 2668.98 8078.54 2694.3C8066.94 2733.91 8046.24 2770.25 8018.08 2800.42C7971.12 2851.44 7915.3 2893.51 7853.31 2924.58L7810.36 2861.24C7852.66 2821.04 7890.43 2776.31 7922.97 2727.87C7935.57 2709.22 7944.11 2688.13 7948.06 2665.97C7948.73 2660.4 7947.99 2654.75 7945.89 2649.55L7939.39 2632.94C7936.87 2625.9 7934.16 2619.05 7931.09 2611.83C7908.53 2555.52 7883.27 2498.49 7857.82 2441.64L7781.66 2270.55L7921.71 2205.22Z" fill="#7F3E3B"/>
<path d="M7807.11 2851.49L7703.7 2914.84L7813.97 3009.41C7813.97 3009.41 7888.86 2948.77 7887.6 2877.66L7838.87 2850.77C7834 2848.04 7828.48 2846.66 7822.89 2846.79C7817.3 2846.92 7811.85 2848.54 7807.11 2851.49Z" fill="#7F3E3B"/>
<path d="M7682.22 3038.46L7769.57 3079.43L7813.97 3009.95L7703.7 2915.38L7682.22 3038.46Z" fill="#7F3E3B"/>
<path d="M7565.46 6373.94C7578.91 6373.6 7592.28 6371.79 7605.34 6368.53C7606.04 6368.39 7606.67 6368.03 7607.15 6367.51C7607.64 6367 7607.95 6366.34 7608.05 6365.64C7608.21 6364.94 7608.14 6364.21 7607.85 6363.56C7607.56 6362.91 7607.05 6362.37 7606.42 6362.03C7601.37 6358.6 7555.35 6329.01 7537.84 6336.95C7535.86 6337.83 7534.16 6339.24 7532.92 6341.02C7531.68 6342.8 7530.95 6344.89 7530.81 6347.05C7530.03 6350.44 7530.15 6353.97 7531.16 6357.3C7532.17 6360.63 7534.04 6363.63 7536.58 6366C7544.96 6372 7555.19 6374.81 7565.46 6373.94ZM7595.23 6363.48C7568.89 6368.71 7549.21 6367.81 7541.09 6360.77C7539.42 6359.14 7538.21 6357.09 7537.58 6354.84C7536.94 6352.6 7536.91 6350.22 7537.48 6347.95C7537.51 6347.01 7537.8 6346.1 7538.31 6345.3C7538.81 6344.51 7539.53 6343.87 7540.37 6343.44C7550.12 6339.29 7576.47 6352.65 7595.23 6363.48Z" fill="#7E57C2"/>
<path d="M7604.62 6368.53H7606.42C7606.93 6368.2 7607.35 6367.74 7607.63 6367.2C7607.91 6366.67 7608.06 6366.07 7608.05 6365.46C7608.05 6363.48 7608.05 6319.98 7591.45 6305.55C7589.46 6303.63 7587.06 6302.19 7584.43 6301.35C7581.8 6300.5 7579.02 6300.27 7576.29 6300.67C7573.46 6300.7 7570.73 6301.71 7568.56 6303.52C7566.39 6305.32 7564.91 6307.83 7564.37 6310.6C7560.95 6328.65 7588.38 6360.23 7602.81 6368.53C7603.4 6368.72 7604.03 6368.72 7604.62 6368.53ZM7578.81 6307.35C7581.74 6307.38 7584.57 6308.47 7586.75 6310.42C7596.2 6324.49 7601.11 6341.12 7600.83 6358.06C7586.39 6346.51 7569.25 6321.97 7571.23 6311.68C7571.23 6310.06 7572.68 6307.89 7577.19 6307.35H7578.81Z" fill="#7E57C2"/>
<path d="M7591.26 1679.69C7573.22 1769.93 7537.12 1950.4 7599.39 2010.86C7599.39 2010.86 7574.84 2101.09 7408.09 2101.09C7224.91 2101.09 7320.56 2010.86 7320.56 2010.86C7420.54 1987.03 7418.01 1912.86 7400.69 1843.02L7591.26 1679.69Z" fill="#7F3E3B"/>
<path d="M7403.57 1931.09C7392.2 1946.79 7383 1969.35 7391.84 1968.99C7543.44 1962.49 7580.26 1971.15 7578.09 1954.01C7575.92 1936.86 7578.09 1919.18 7569.79 1919.18C7561.49 1919.18 7408.99 1924.23 7403.57 1931.09Z" fill="#7E57C2"/>
<path d="M7563.47 1968.81C7573.83 1972.15 7584.73 1973.5 7595.6 1972.78C7602.47 1974.76 7608.3 1979.36 7611.84 1985.59C7613.36 1975.18 7610.87 1964.58 7604.87 1955.94C7598.87 1947.29 7589.82 1941.25 7579.53 1939.03C7541.09 1928.56 7551.02 1963.75 7563.47 1968.81Z" fill="#7E57C2"/>
<path d="M7545.97 1928.92C7556.07 1908.53 7582.06 1899.87 7590 1913.4C7597.94 1926.94 7583.68 1938.31 7565.64 1940.11C7547.59 1941.92 7538.93 1943.18 7545.97 1928.92Z" fill="#7E57C2"/>
<path d="M7555.71 1930C7573.76 1916.47 7600.65 1920.08 7602.09 1935.96C7603.54 1951.84 7585.13 1955.27 7568.16 1948.77C7551.2 1942.28 7542.9 1939.57 7555.71 1930Z" fill="#7E57C2"/>
<path d="M7284.1 1488.21C7282.97 1488.04 7281.89 1487.61 7280.95 1486.95C7280.01 1486.29 7279.23 1485.43 7278.69 1484.42C7274.8 1476.34 7269.06 1469.29 7261.95 1463.84C7254.83 1458.38 7246.53 1454.67 7237.72 1453.02C7236.7 1453.04 7235.68 1452.84 7234.74 1452.44C7233.8 1452.04 7232.96 1451.45 7232.26 1450.7C7231.57 1449.95 7231.04 1449.06 7230.72 1448.09C7230.4 1447.12 7230.28 1446.09 7230.38 1445.07C7230.49 1444.06 7230.81 1443.07 7231.32 1442.19C7231.83 1441.3 7232.52 1440.54 7233.35 1439.94C7234.18 1439.34 7235.13 1438.93 7236.13 1438.73C7237.13 1438.52 7238.17 1438.53 7239.16 1438.76C7250.35 1440.71 7260.92 1445.27 7270.02 1452.08C7279.11 1458.88 7286.47 1467.74 7291.5 1477.92C7292.33 1479.6 7292.48 1481.54 7291.9 1483.33C7291.33 1485.11 7290.09 1486.6 7288.43 1487.49C7287.09 1488.16 7285.58 1488.41 7284.1 1488.21Z" fill="#263238"/>
<path d="M7231.4 1567.26C7217.53 1593.62 7200.03 1617.92 7179.43 1639.44C7185.13 1644.56 7191.87 1648.38 7199.2 1650.62C7206.52 1652.87 7214.25 1653.49 7221.84 1652.44L7231.4 1567.26Z" fill="#630F0F"/>
<path d="M7244.58 1547.76C7243.31 1559.86 7235.74 1568.88 7227.79 1567.98C7219.85 1567.08 7214.62 1556.61 7215.88 1544.52C7217.15 1532.42 7224.73 1523.22 7232.67 1524.12C7240.61 1525.02 7246.02 1535.67 7244.58 1547.76Z" fill="#263238"/>
<path d="M7236.1 1525.21L7207.94 1513.48C7207.94 1513.48 7219.67 1538.02 7236.1 1525.21Z" fill="#263238"/>
<path d="M7780.4 6365.1H7629.16L7641.07 6014.98H7792.13L7780.4 6365.1Z" fill="#7F3E3B"/>
<path d="M7616.71 6347.59H7786.54C7789.46 6347.52 7792.31 6348.53 7794.54 6350.43C7796.77 6352.33 7798.23 6354.98 7798.63 6357.88L7817.94 6492.15C7818.32 6495.55 7817.98 6498.99 7816.94 6502.24C7815.89 6505.49 7814.17 6508.49 7811.89 6511.03C7809.6 6513.57 7806.8 6515.6 7803.68 6516.98C7800.55 6518.36 7797.17 6519.06 7793.75 6519.04C7734.38 6518.14 7705.86 6514.53 7631.33 6514.53C7585.49 6514.53 7518.35 6519.4 7454.83 6519.4C7391.3 6519.4 7388.05 6456.6 7414.4 6451C7532.97 6425.38 7551.74 6390.37 7591.63 6356.8C7598.68 6350.94 7607.54 6347.69 7616.71 6347.59Z" fill="#263238"/>
<g opacity="0.2">
<path d="M7792.31 6014.98H7641.07L7634.94 6195.46H7786.17L7792.31 6014.98Z" fill="black"/>
</g>
<path d="M7656.6 1552.1C7630.79 1699.9 7623.03 1763.07 7539.29 1830.92C7412.96 1933.07 7237.36 1869 7218.59 1716.51C7201.63 1579.17 7246.92 1360.62 7399.06 1317.66C7432.61 1308.05 7468.06 1307.17 7502.04 1315.12C7536.02 1323.06 7567.4 1339.57 7593.21 1363.06C7619.01 1386.55 7638.39 1416.25 7649.48 1449.34C7660.57 1482.42 7663.02 1517.8 7656.6 1552.1Z" fill="#7F3E3B"/>
<path d="M7299.44 2961.94C7299.44 2961.94 7387.15 3999.48 7478.11 4584.2C7551.74 5056.5 7609.67 6160.63 7609.67 6160.63H7815.23C7815.23 6160.63 7883.45 5097.11 7857.28 4629.14C7795.2 3519.24 7962.13 3281.56 7750.62 2961.94H7299.44Z" fill="#7E57C2"/>
<path opacity="0.2" d="M7530.45 3521.95C7521.78 3832.36 7463.13 4024.56 7417.11 4128.15C7392.93 3925.66 7370.73 3714.33 7352.14 3527.9C7415.48 3316.75 7537.12 3288.24 7530.45 3521.95Z" fill="black"/>
<path d="M7397.26 6300.67C7397.52 6300.11 7397.65 6299.49 7397.65 6298.87C7397.65 6298.24 7397.52 6297.63 7397.26 6297.06C7397.02 6296.37 7396.58 6295.77 7396.01 6295.32C7395.43 6294.87 7394.74 6294.6 7394.01 6294.54C7386.43 6294.54 7318.75 6292.01 7306.3 6308.97C7305.11 6310.55 7304.34 6312.41 7304.09 6314.38C7303.84 6316.34 7304.1 6318.33 7304.86 6320.16C7305.8 6323.25 7307.5 6326.05 7309.8 6328.32C7312.1 6330.59 7314.93 6332.25 7318.03 6333.16C7339.15 6339.65 7375.96 6315.11 7395.99 6301.03L7397.26 6300.67ZM7313.34 6312.58C7321.28 6303.74 7357.01 6301.21 7383.72 6301.39C7355.75 6320.7 7332.65 6329.91 7320.92 6326.3C7318.89 6325.71 7317.03 6324.63 7315.52 6323.15C7314.01 6321.67 7312.89 6319.84 7312.25 6317.82C7311.8 6317.15 7311.55 6316.37 7311.55 6315.56C7311.55 6314.75 7311.8 6313.97 7312.25 6313.3L7313.34 6312.58Z" fill="#7E57C2"/>
<path d="M7397.26 6300.67C7397.61 6300.14 7397.8 6299.51 7397.8 6298.87C7397.8 6298.22 7397.61 6297.6 7397.26 6297.06C7397.26 6295.62 7376.14 6260.97 7352.14 6253.93C7348.69 6252.99 7345.09 6252.76 7341.56 6253.26C7338.02 6253.76 7334.62 6254.97 7331.57 6256.82C7323.08 6261.87 7322.54 6267.65 7323.62 6271.62C7328.32 6288.4 7374.52 6302.66 7394.19 6302.48C7394.81 6302.47 7395.42 6302.29 7395.96 6301.98C7396.5 6301.66 7396.95 6301.21 7397.26 6300.67ZM7332.11 6264.58L7335.54 6262.05C7337.76 6260.63 7340.28 6259.72 7342.9 6259.37C7345.51 6259.03 7348.18 6259.27 7350.7 6260.07C7366.35 6267.17 7379.37 6279.05 7387.87 6293.99C7366.58 6291.83 7333.73 6278.83 7330.84 6268.73C7330.73 6268.01 7330.79 6267.28 7331.01 6266.6C7331.23 6265.91 7331.61 6265.28 7332.11 6264.76V6264.58Z" fill="#7E57C2"/>
<path d="M7563.65 6255.91L7420.72 6305.72L7369.83 6172.9L7303.41 5998.92L7295.65 5978.71L7438.4 5928.72L7447.25 5951.46L7511.5 6120.02L7563.65 6255.91Z" fill="#7F3E3B"/>
<path opacity="0.2" d="M7511.5 6120.02L7369.83 6172.9L7303.41 5998.92L7447.25 5951.46L7511.5 6120.02Z" fill="black"/>
<path d="M7137.38 2961.94C7137.38 2961.94 6911.07 3993.16 6911.25 4523.93C6911.25 5003.44 7314.78 6123.27 7314.78 6123.27L7506.26 6044.4C7506.26 6044.4 7320.56 4839.75 7277.42 4561.28C7382.1 4128.15 7562.57 3519.24 7562.57 2961.94H7137.38Z" fill="#7E57C2"/>
<path d="M7396.17 6278.11L7549.94 6205.92C7552.59 6204.7 7555.59 6204.47 7558.4 6205.26C7561.22 6206.05 7563.65 6207.83 7565.28 6210.26L7639.63 6323.77C7641.4 6326.69 7642.53 6329.95 7642.96 6333.34C7643.38 6336.72 7643.09 6340.16 7642.11 6343.43C7641.12 6346.69 7639.46 6349.72 7637.23 6352.3C7635 6354.88 7632.25 6356.97 7629.16 6358.42C7575.02 6382.61 7547.77 6391.45 7480.09 6423.03C7438.58 6442.52 7362.97 6505.33 7300.7 6517.6C7238.44 6529.87 7222.92 6469.05 7247.65 6458.4C7359 6410.22 7355.93 6344.35 7377.22 6297.06C7381.12 6288.71 7387.83 6282 7396.17 6278.11Z" fill="#263238"/>
<path d="M7299.98 6161.35L7546.33 6070.39L7523.05 5970.95L7259.2 6068.22L7299.98 6161.35Z" fill="#263238"/>
<path d="M7581.52 6164.6H7844.11L7857.82 6072.55L7579.89 6063.17L7581.52 6164.6Z" fill="#263238"/>
<path d="M7990.11 2284.99L7838.33 2405.91L7748.09 2478.1C7748.09 2478.1 7738.53 2452.65 7726.98 2416.2C7704.78 2345.81 7676.27 2234.28 7696.12 2183.03C7727.34 2101.81 7786.35 2028.54 7861.07 2044.78C7923.51 2059.04 7990.11 2284.99 7990.11 2284.99Z" fill="#263238"/>
<path opacity="0.2" d="M7818.48 2421.61L7747.19 2478.64C7747.19 2478.64 7737.63 2453.19 7726.08 2416.74L7780.22 2148.74L7818.48 2421.61Z" fill="black"/>
<path d="M7065.01 2049.66C7065.01 2049.66 6992.82 2074.92 7137.2 2961.94H7750.8C7740.51 2712.17 7740.33 2558.05 7859.08 2045.15C7773.1 2027.41 7685.95 2015.95 7598.3 2010.86C7505.48 2004.17 7412.3 2004.17 7319.47 2010.86C7201.63 2021.32 7065.01 2049.66 7065.01 2049.66Z" fill="#263238"/>
<path d="M7129.44 2240.42C7115.9 2319.46 7099.84 2396.52 7080.89 2475.03C7062.88 2554.67 7039.67 2633.04 7011.41 2709.64C7002.81 2731.97 6992.43 2753.58 6980.37 2774.25C6976 2781.4 6971.11 2788.21 6965.75 2794.65C6960.59 2801.11 6954.92 2807.14 6948.78 2812.69C6935.46 2824.68 6920.13 2834.21 6903.49 2840.85C6886.21 2847.41 6867.83 2850.6 6849.34 2850.23C6833.13 2849.67 6817.08 2846.76 6801.7 2841.57C6776.95 2832.9 6753.83 2820.16 6733.3 2803.85C6699.09 2776.41 6668.73 2744.48 6643.06 2708.92C6630.43 2692.14 6618.88 2674.99 6608.05 2657.49C6596.79 2639.98 6586.43 2621.91 6577.01 2603.34L6640.9 2561.11C6665.44 2588.19 6692.51 2615.26 6719.59 2640.52C6744.76 2664.47 6772.47 2685.59 6802.24 2703.51C6813.47 2710.13 6825.64 2715 6838.34 2717.94C6848.26 2719.57 6851.15 2717.94 6851.51 2715.78C6851.87 2713.61 6853.13 2714.15 6854.94 2711.81C6856.05 2710.43 6857.07 2708.98 6858.01 2707.48C6858.01 2707.48 6858.01 2707.48 6859.81 2703.69C6866.35 2689.84 6871.9 2675.55 6876.42 2660.92C6887.42 2627.53 6896.99 2590.71 6905.83 2553.9C6914.68 2517.08 6923.88 2479.54 6931.64 2442C6947.52 2366.75 6963.04 2290.23 6977.84 2214.97L7129.44 2240.42Z" fill="#7F3E3B"/>
<path d="M7065.01 2049.66C6989.93 2067.7 6899.34 2340.22 6899.34 2340.22L7157.95 2523.58C7157.95 2523.58 7261 2241.86 7236.28 2162.63C7210.65 2078.89 7156.15 2027.46 7065.01 2049.66Z" fill="#263238"/>
<path d="M7317.49 1567.26C7242.23 1533.33 7261.72 1446.7 7309.91 1463.48C7137.38 1339.5 7230.32 1281.39 7282.3 1311.71C7259.56 1278.32 7182.13 1183.21 7189.53 1094.06C7196.93 1004.91 7362.25 1046.77 7437.5 1159.57C7407.72 1070.78 7504.28 1062.11 7576.1 1170.22C7605.03 1214.89 7626.38 1264.04 7639.27 1315.68C7639.27 1315.68 7721.93 1185.2 7743.04 1310.26C7766.32 1448.87 7696.48 1498.13 7696.48 1498.13C7696.48 1498.13 7817.58 1508.96 7756.76 1589.63C7738.97 1609.63 7718.72 1627.27 7696.48 1642.15C7696.48 1642.15 7740.88 1672.47 7681.32 1731.12C7631.69 1780.03 7582.06 1824.25 7496.34 1828.76C7400.14 1833.99 7275.26 1728.42 7317.49 1567.26Z" fill="#263238"/>
<path d="M7639.27 1320.19C7638.13 1320.19 7637.04 1319.77 7636.2 1319C7635.36 1318.23 7634.85 1317.17 7634.76 1316.04C7629.18 1263.67 7615.03 1212.58 7592.89 1164.8C7560.22 1096.95 7512.04 1065.9 7484.61 1074.57C7466.56 1080.16 7460.42 1101.64 7466.56 1131.78C7466.72 1132.38 7466.76 1133.01 7466.67 1133.63C7466.58 1134.25 7466.36 1134.84 7466.03 1135.37C7465.69 1135.9 7465.25 1136.35 7464.74 1136.7C7464.22 1137.05 7463.64 1137.29 7463.02 1137.4C7462.41 1137.52 7461.78 1137.5 7461.17 1137.36C7460.56 1137.21 7459.99 1136.94 7459.49 1136.57C7458.99 1136.19 7458.58 1135.72 7458.27 1135.17C7457.96 1134.63 7457.78 1134.02 7457.72 1133.4C7451.04 1098.39 7460.42 1073.12 7482.44 1065.9C7513.48 1055.8 7565.82 1085.4 7601.91 1160.29C7624.6 1209.07 7639.05 1261.27 7644.68 1314.78C7644.73 1315.37 7644.67 1315.97 7644.48 1316.53C7644.3 1317.1 7644.01 1317.62 7643.62 1318.08C7643.24 1318.53 7642.76 1318.9 7642.23 1319.17C7641.7 1319.44 7641.13 1319.6 7640.53 1319.65L7639.27 1320.19Z" fill="#263238"/>
<path d="M7367.84 1580.79C7361.03 1608.36 7345.06 1632.79 7322.54 1650.09C7292.04 1673.37 7267.14 1653.34 7267.5 1620.31C7267.5 1590.72 7283.92 1542.71 7318.57 1532.06C7353.22 1521.42 7375.06 1548.13 7367.84 1580.79Z" fill="#7F3E3B"/>
<path d="M6657.86 2560.57L6586.58 2524.48L6558.24 2652.61C6558.24 2652.61 6644.51 2667.41 6681.33 2614.17L6657.86 2560.57Z" fill="#7F3E3B"/>
<path d="M6502.84 2539.46L6488.76 2647.92L6558.42 2652.25L6586.58 2524.12L6502.84 2539.46Z" fill="#7F3E3B"/>
<path d="M7761.09 2926.03L7788.88 2980.17C7791.05 2984.5 7785.99 2988.83 7778.77 2988.83H7134.31C7128.71 2988.83 7124.2 2986.13 7123.84 2982.52L7118.25 2928.37C7118.25 2924.58 7122.76 2921.34 7128.71 2921.34H7750.44C7752.48 2921 7754.57 2921.27 7756.46 2922.1C7758.35 2922.93 7759.96 2924.3 7761.09 2926.03Z" fill="#7E57C2"/>
<path opacity="0.2" d="M7761.09 2926.03L7788.88 2980.17C7791.05 2984.5 7785.99 2988.83 7778.77 2988.83H7134.31C7128.71 2988.83 7124.2 2986.13 7123.84 2982.52L7118.25 2928.37C7118.25 2924.58 7122.76 2921.34 7128.71 2921.34H7750.44C7752.48 2921 7754.57 2921.27 7756.46 2922.1C7758.35 2922.93 7759.96 2924.3 7761.09 2926.03Z" fill="white"/>
<path d="M7676.99 2995.87H7693.59C7696.84 2995.87 7699.37 2994.07 7699.19 2992.08L7691.43 2919.89C7691.43 2917.73 7688.36 2916.1 7684.93 2916.1H7668.33C7665.08 2916.1 7662.55 2917.73 7662.73 2919.89L7670.49 2992.08C7670.85 2993.71 7673.56 2995.87 7676.99 2995.87Z" fill="#7E57C2"/>
<path d="M7273.81 2995.87H7290.6C7293.85 2995.87 7296.37 2994.07 7296.19 2992.08L7288.25 2919.89C7288.25 2917.73 7285.18 2916.1 7281.94 2916.1H7265.33C7261.9 2916.1 7259.38 2917.73 7259.56 2919.89L7267.5 2992.08C7267.14 2993.71 7270.02 2995.87 7273.81 2995.87Z" fill="#7E57C2"/>
<path d="M6010.51 1385.88C6020.98 1430.64 6067.54 1484.78 6122.4 1476.12C6078.19 1455.36 6064.29 1353.22 6064.29 1353.22L6010.51 1385.88Z" fill="#263238"/>
<path d="M6015.93 1385.88C6015.93 1431.72 6047.69 1495.43 6102.91 1499.94C6065.19 1469.26 6055.27 1373.61 6055.27 1373.61L6015.93 1385.88Z" fill="#263238"/>
<path d="M4887.07 6270.17L4743.96 6248.15L4756.77 5910.67L4899.89 5932.69L4887.07 6270.17Z" fill="#FFC3BD"/>
<path d="M5780.95 6371.42H5636.21L5597.59 6035.92H5742.51L5780.95 6371.42Z" fill="#FFC3BD"/>
<path d="M5622.32 6354.63H5799C5801.83 6354.63 5804.58 6355.62 5806.75 6357.44C5808.93 6359.25 5810.4 6361.77 5810.91 6364.56L5834.19 6493.42C5834.69 6496.6 5834.49 6499.86 5833.6 6502.97C5832.71 6506.07 5831.15 6508.94 5829.04 6511.38C5826.92 6513.82 5824.3 6515.77 5821.36 6517.09C5818.42 6518.42 5815.22 6519.08 5811.99 6519.04C5755.14 6518.14 5713.82 6514.71 5642.17 6514.71C5598.13 6514.71 5465.31 6519.4 5404.49 6519.4C5343.67 6519.4 5338.07 6459.31 5363.34 6453.71C5475.95 6429.35 5561.86 6395.78 5597.95 6363.48C5604.7 6357.61 5613.38 6354.46 5622.32 6354.63Z" fill="#263238"/>
<path d="M4747.21 6231.73L4903.68 6255.73C4906.52 6256.18 4909.13 6257.59 4911.07 6259.72C4913.01 6261.86 4914.15 6264.59 4914.33 6267.46L4922.99 6399.03C4923.19 6402.2 4922.68 6405.39 4921.48 6408.33C4920.29 6411.28 4918.44 6413.92 4916.08 6416.06C4913.72 6418.19 4910.91 6419.77 4907.85 6420.66C4904.8 6421.56 4901.58 6421.75 4898.44 6421.23C4842.32 6411.66 4761.29 6395.78 4690.36 6385.13C4607.52 6372.32 4558.62 6367.08 4461.34 6352.11C4402.69 6343.08 4395.47 6281.18 4420.92 6279.92C4536.6 6272.52 4605 6282.98 4711.11 6238.05C4722.3 6232.56 4734.82 6230.37 4747.21 6231.73Z" fill="#263238"/>
<path d="M5484.44 2060.67C5461.52 2117.51 5436.61 2168.95 5410.98 2223.09C5385.36 2277.23 5356.84 2328.13 5327.43 2379.2C5298.01 2430.27 5266.43 2481.35 5231.23 2530.98C5195.69 2581.94 5156.42 2630.2 5113.75 2675.35L5111.76 2677.52L5108.33 2680.95L5101.47 2687.63C5096.96 2691.96 5091.01 2696.47 5085.77 2700.8C5080.54 2705.13 5073.68 2709.28 5067.73 2713.07C5060.81 2717.15 5053.64 2720.76 5046.25 2723.9C5015.11 2737.14 4980.66 2740.54 4947.53 2733.65C4921.68 2728 4897.16 2717.4 4875.34 2702.42C4858.61 2690.95 4843.08 2677.83 4828.96 2663.26C4805.2 2638.77 4783.92 2611.99 4765.44 2583.31C4747.39 2556.42 4732.41 2529.17 4718.15 2502.46C4664.3 2396.44 4621.48 2285.17 4590.38 2170.39L4691.98 2131.95C4717.79 2180.5 4744.5 2230.67 4772.84 2278.32C4801.17 2325.96 4829.32 2373.6 4860 2417.28C4886.86 2458.49 4918.82 2496.15 4955.11 2529.35C4961.48 2534.72 4968.37 2539.44 4975.69 2543.43C4981.28 2546.32 4984.53 2545.95 4982.36 2544.87C4977.5 2543.26 4972.25 2543.26 4967.38 2544.87C4966.5 2545.03 4965.65 2545.34 4964.86 2545.77H4963.96C4963.96 2545.77 4963.96 2545.77 4963.96 2544.87L4965.94 2542.53C5030.97 2458.22 5088.06 2368.08 5136.49 2273.26C5162.29 2224.9 5187.02 2175.45 5211.2 2125.64C5235.38 2075.83 5259.03 2024.39 5281.04 1976.21L5484.44 2060.67Z" fill="#FFC3BD"/>
<path d="M5547.06 1988.84C5572.87 2124.73 5403.95 2319.1 5403.95 2319.1L5155.8 2212.26C5155.8 2212.26 5181.42 2056.51 5280.68 1944.08C5402.14 1806.38 5518.73 1840.85 5547.06 1988.84Z" fill="#263238"/>
<path opacity="0.2" d="M5412.97 2036.84C5480.65 2012.66 5530.64 2020.6 5548.68 2036.84C5536.41 2166.06 5404.31 2318.38 5404.31 2318.38L5228.53 2242.76C5241.52 2182.67 5306.67 2075.46 5412.97 2036.84Z" fill="black"/>
<path d="M4700.65 2170.93L4695.05 2062.65L4549.59 2086.47C4549.59 2086.47 4522.7 2189.88 4625.75 2212.8L4700.65 2170.93Z" fill="#FFC3BD"/>
<path d="M4680.25 2018.25L4560.06 2042.44L4549.59 2085.57L4695.05 2061.75L4680.25 2018.25Z" fill="#FFC3BD"/>
<path opacity="0.2" d="M4756.77 5910.85L4750.1 6084.65L4893.39 6106.66L4900.07 5932.87L4756.77 5910.85Z" fill="black"/>
<path opacity="0.2" d="M5742.51 6036.1H5597.59L5617.44 6208.99H5762.36L5742.51 6036.1Z" fill="black"/>
<path d="M6197.12 1990.82C5988.13 2523.4 5962.51 3107.76 5937.24 3223.99L5173.66 3091.52C5155.62 2371.8 5336.09 1974.04 5384.45 1880.74C5387.93 1874.05 5393.08 1868.39 5399.41 1864.31C5405.74 1860.22 5413.03 1857.86 5420.55 1857.45C5549.04 1851.38 5677.82 1856.21 5805.5 1871.89C5931.83 1889.04 6197.66 1990.82 6197.66 1990.82" fill="#263238"/>
<path d="M5508.62 3118.23C5508.62 3111.73 5497.43 2455.54 5645.24 2041.54L5653.9 2044.42C5506.45 2456.98 5517.64 3111.55 5517.64 3118.05L5508.62 3118.23Z" fill="white"/>
<path d="M5691.08 2100.73C5687.29 2113.54 5679.53 2122.93 5673.03 2121.48C5666.53 2120.04 5664.91 2108.31 5668.52 2095.32C5672.13 2082.32 5680.07 2073.12 5686.56 2074.56C5693.06 2076.01 5694.69 2087.74 5691.08 2100.73Z" fill="white"/>
<path d="M5655.52 2250.34C5652.64 2263.52 5645.42 2273.26 5639.1 2272.18C5632.78 2271.1 5630.08 2259.55 5632.96 2246.37C5635.85 2233.2 5643.07 2223.63 5649.39 2224.71C5655.7 2225.8 5658.41 2237.89 5655.52 2250.34Z" fill="white"/>
<path d="M5627.91 2405.55C5625.2 2418.72 5618.17 2428.47 5611.85 2427.56C5605.53 2426.66 5602.64 2415.11 5605.17 2401.94C5607.7 2388.76 5614.92 2378.84 5621.23 2379.92C5627.55 2381 5630.44 2392.37 5627.91 2405.55Z" fill="white"/>
<path d="M5604.45 2557.51C5602.65 2570.86 5596.15 2581.15 5589.83 2580.61C5583.52 2580.06 5579.91 2568.69 5581.71 2555.34C5583.51 2541.98 5590.01 2531.7 5596.33 2532.42C5602.64 2533.14 5606.25 2544.69 5604.45 2557.51Z" fill="white"/>
<path opacity="0.2" d="M6122.95 2205.04C6097.68 2288.42 6076.02 2371.44 6057.79 2451.93C6033.79 2306.29 6023.14 2156.68 6023.14 2156.68L6122.95 2205.04Z" fill="black"/>
<path d="M5976.58 1545.42C5937.96 1646.3 5888.15 1824.07 5948.97 1906.36C5914.32 1956.71 5790.88 2032.69 5649.57 2042.98C5548.68 2000.57 5581.89 1896.44 5622.5 1857.09C5743.77 1849.33 5754.06 1765.59 5747.93 1680.95L5976.58 1545.42Z" fill="#FFC3BD"/>
<path opacity="0.2" d="M5884.18 1600.82L5748.83 1680.95C5750.54 1700.71 5750.54 1720.57 5748.83 1740.33C5794.31 1741.59 5863.97 1703.33 5876.78 1657.49C5882.69 1639.21 5885.2 1620.01 5884.18 1600.82Z" fill="black"/>
<path d="M5714.72 1187.9C5575.57 1169.86 5607.88 1361.52 5661.84 1433.71C5841.05 1321.27 5799 1199.09 5714.72 1187.9Z" fill="#263238"/>
<path d="M5684.58 1230.13C5681.51 1297.81 5628.45 1388.41 5546.7 1390.39C5583.18 1362.31 5610.15 1323.69 5623.94 1279.76L5684.58 1230.13Z" fill="#263238"/>
<path d="M6016.29 1390.57C5983.08 1530.44 5970.81 1614 5886.71 1674.09C5760.38 1764.33 5597.05 1669.58 5587.85 1522.68C5579.54 1390.39 5635.31 1183.75 5783.48 1151.63C5816.11 1144.34 5850.06 1145.53 5882.11 1155.07C5914.15 1164.61 5943.22 1182.19 5966.56 1206.14C5989.89 1230.09 6006.71 1259.61 6015.41 1291.89C6024.12 1324.17 6024.42 1358.14 6016.29 1390.57Z" fill="#FFC3BD"/>
<path d="M6029.64 1246.38C5890.32 1228.33 5922.62 1419.81 5976.58 1492C6150.38 1396.35 6113.74 1257.39 6029.64 1246.38Z" fill="#263238"/>
<path d="M6021.88 1268.39C5941.93 1316.94 5858.55 1245.29 5820.29 1214.25C5782.03 1183.21 5695.95 1243.85 5593.98 1219.67C5533.7 1205.23 5525.22 1145.85 5525.22 1107.96C5569.08 1188.45 5641.63 1200.36 5684.76 1166.25C5727.89 1132.14 5779.87 1069.88 5842.13 1102C5904.39 1134.12 5992.64 1174.19 6032.53 1164.26C6102.01 1146.76 6112.12 1213.53 6021.88 1268.39Z" fill="#263238"/>
<path d="M5810.01 1191.15C5758.21 1252.33 5643.07 1299.44 5565.11 1241.68C5619.58 1241.71 5672.75 1225.02 5717.43 1193.86L5810.01 1191.15Z" fill="#263238"/>
<path d="M5885.26 1214.25C5876.42 1281.39 5912.52 1379.93 5992.64 1396.35C5961.69 1362.27 5941.96 1319.48 5936.16 1273.81L5885.26 1214.25Z" fill="#263238"/>
<path d="M6040.65 1383.72C6016.83 1447.06 5938.5 1516.9 5860.18 1493.44C5928.58 1471.61 5959.8 1390.39 5959.8 1390.39L6040.65 1383.72Z" fill="#263238"/>
<path d="M5701.36 1138.45C5708.76 1123.84 5755.5 1070.24 5859.1 1052.73C6016.83 1026.38 6106.88 1155.6 6186.47 1083.59C6209.75 1062.66 6233.03 1108.5 6205.96 1137.73C6182.14 1164.26 6196.04 1366.93 6092.45 1347.62C6028.56 1335.53 5701.36 1138.45 5701.36 1138.45Z" fill="#7E57C2"/>
<path opacity="0.2" d="M5701.36 1138.45C5708.76 1123.84 5755.5 1070.24 5859.1 1052.73C6016.83 1026.38 6106.88 1155.6 6186.47 1083.59C6209.75 1062.66 6233.03 1108.5 6205.96 1137.73C6182.14 1164.26 6196.04 1366.93 6092.45 1347.62C6028.56 1335.53 5701.36 1138.45 5701.36 1138.45Z" fill="white"/>
<path d="M5637.48 1184.84C5608.42 1178.34 5684.94 1124.2 5705.15 1123.48C5725.37 1122.75 6099.3 1245.29 6108.33 1353.58C6102.52 1370.45 6094.83 1386.61 6085.41 1401.76C6084.52 1403.13 6083.36 1404.3 6082.01 1405.21C6080.65 1406.11 6079.13 1406.74 6077.53 1407.04C6075.93 1407.35 6074.28 1407.32 6072.69 1406.97C6071.1 1406.62 6069.59 1405.96 6068.26 1405.01C6021.16 1371.62 5813.62 1224.36 5637.48 1184.84Z" fill="#7E57C2"/>
<path d="M6218.23 1170.22C6260.3 1170.22 6294.39 1136.12 6294.39 1094.06C6294.39 1052 6260.3 1017.9 6218.23 1017.9C6176.17 1017.9 6142.08 1052 6142.08 1094.06C6142.08 1136.12 6176.17 1170.22 6218.23 1170.22Z" fill="#7E57C2"/>
<path d="M6052.2 1525.75C6033.98 1553.47 6005.59 1572.92 5973.15 1579.89C5930.92 1588.19 5914.68 1548.31 5930.38 1508.96C5944.82 1472.87 5984.52 1426.85 6024.41 1436.77C6064.29 1446.7 6074.94 1491.46 6052.2 1525.75Z" fill="#FFC3BD"/>
<path d="M4713.64 6043.14L4956.19 6080.32C4956.19 6080.32 5006.19 5235.35 5094.08 4792.65C5120.97 4657.84 5195.14 4485.85 5261.19 4287.33C5344.39 4037.74 5444.37 3769.01 5525.04 3558.76C5610.22 3337.32 5673.03 3178.33 5673.03 3178.33L5173.66 3091.52C5173.66 3091.52 4743.24 4257.55 4683.32 4695.56C4620.88 5151.07 4713.64 6043.14 4713.64 6043.14Z" fill="#7E57C2"/>
<path opacity="0.3" d="M4713.64 6043.14L4956.19 6080.32C4956.19 6080.32 5006.19 5235.35 5094.08 4792.65C5120.97 4657.84 5195.14 4485.85 5261.19 4287.33C5344.39 4037.74 5444.37 3769.01 5525.04 3558.76C5610.22 3337.32 5673.03 3178.33 5673.03 3178.33L5173.66 3091.52C5173.66 3091.52 4743.24 4257.55 4683.32 4695.56C4620.88 5151.07 4713.64 6043.14 4713.64 6043.14Z" fill="black"/>
<path opacity="0.2" d="M5261.19 4287.33C5344.39 4037.73 5444.37 3769.01 5525.04 3558.76L5484.26 3440.37C5343.67 3576.45 5262.64 4034.31 5261.19 4287.33Z" fill="black"/>
<path d="M5411.53 3132.85C5411.53 3132.85 5370.92 4380.27 5388.97 4804.2C5408.82 5268.73 5550.49 6175.79 5550.49 6175.79H5815.78C5815.78 6175.79 5756.77 5353.38 5761.64 4900.21C5768.14 4384.06 5936.52 3224.35 5936.52 3224.35L5411.53 3132.85Z" fill="#7E57C2"/>
<path opacity="0.3" d="M5411.53 3132.85C5411.53 3132.85 5370.92 4380.27 5388.97 4804.2C5408.82 5268.73 5550.49 6175.79 5550.49 6175.79H5815.78C5815.78 6175.79 5756.77 5353.38 5761.64 4900.21C5768.14 4384.06 5936.52 3224.35 5936.52 3224.35L5411.53 3132.85Z" fill="black"/>
<path d="M5518.73 6181.2H5831.12V6087.9L5481.91 6081.76L5518.73 6181.2Z" fill="#7E57C2"/>
<path d="M4682.42 6044.04L4971.35 6088.44L4985.61 5995.13L4663.47 5940.63L4682.42 6044.04Z" fill="#7E57C2"/>
<path d="M5806.94 1394.91C5804.95 1406.46 5797.19 1414.58 5788.89 1412.95C5780.59 1411.33 5776.8 1401.22 5778.79 1389.85C5780.77 1378.48 5788.53 1370 5796.83 1371.8C5805.13 1373.61 5808.92 1383.35 5806.94 1394.91Z" fill="#263238"/>
<path d="M5676.82 1371.62C5674.83 1383.17 5667.07 1391.3 5659.67 1389.67C5652.27 1388.05 5647.58 1377.94 5649.57 1366.57C5651.55 1355.2 5659.31 1346.72 5667.61 1348.52C5675.92 1350.33 5678.8 1360.8 5676.82 1371.62Z" fill="#263238"/>
<path d="M5705.15 1383.17C5685.35 1416 5661.05 1445.88 5632.96 1471.97C5639.96 1479.08 5648.44 1484.56 5657.8 1488.03C5667.16 1491.49 5677.16 1492.85 5687.11 1492L5705.15 1383.17Z" fill="#ED847E"/>
<path d="M5729.52 1531.16C5742.73 1531.92 5755.95 1529.96 5768.37 1525.39C5780.78 1520.83 5792.13 1513.76 5801.71 1504.63C5802.03 1504.31 5802.28 1503.93 5802.46 1503.52C5802.63 1503.1 5802.72 1502.65 5802.72 1502.2C5802.72 1501.74 5802.63 1501.29 5802.46 1500.88C5802.28 1500.46 5802.03 1500.08 5801.71 1499.76C5801.04 1499.15 5800.17 1498.81 5799.27 1498.81C5798.37 1498.81 5797.5 1499.15 5796.83 1499.76C5786.15 1509.61 5773.29 1516.81 5759.31 1520.76C5745.32 1524.71 5730.6 1525.31 5716.34 1522.5C5715.44 1522.39 5714.53 1522.63 5713.79 1523.16C5713.05 1523.7 5712.55 1524.49 5712.37 1525.39C5712.21 1526.27 5712.41 1527.18 5712.91 1527.93C5713.42 1528.67 5714.2 1529.18 5715.08 1529.36C5719.85 1530.27 5724.67 1530.87 5729.52 1531.16Z" fill="#263238"/>
<path d="M5842.31 1357.73C5843.44 1358 5844.61 1358 5845.74 1357.73C5847.33 1356.88 5848.54 1355.45 5849.11 1353.74C5849.68 1352.03 5849.58 1350.16 5848.81 1348.52C5844.02 1338.74 5836.97 1330.23 5828.25 1323.71C5819.52 1317.18 5809.38 1312.82 5798.64 1310.99C5796.82 1310.79 5795 1311.33 5793.58 1312.48C5792.16 1313.63 5791.25 1315.3 5791.06 1317.12C5790.87 1318.94 5791.4 1320.76 5792.56 1322.18C5793.71 1323.6 5795.37 1324.51 5797.19 1324.7C5805.66 1326.21 5813.64 1329.72 5820.48 1334.93C5827.33 1340.14 5832.83 1346.9 5836.54 1354.66C5837.15 1355.62 5838.01 1356.41 5839.02 1356.95C5840.03 1357.49 5841.17 1357.75 5842.31 1357.73Z" fill="#263238"/>
<path d="M5616.54 1315.68C5617.65 1315.74 5618.76 1315.53 5619.77 1315.06C5620.78 1314.59 5621.66 1313.87 5622.32 1312.97C5627.12 1305.79 5633.58 1299.86 5641.15 1295.69C5648.71 1291.51 5657.17 1289.21 5665.81 1288.97C5667.65 1289.02 5669.43 1288.35 5670.78 1287.1C5672.13 1285.85 5672.94 1284.13 5673.03 1282.29C5673.03 1280.49 5672.34 1278.75 5671.1 1277.44C5669.85 1276.13 5668.15 1275.35 5666.35 1275.25C5655.48 1275.41 5644.8 1278.19 5635.22 1283.34C5625.64 1288.49 5617.44 1295.87 5611.31 1304.85C5610.75 1305.56 5610.35 1306.38 5610.12 1307.26C5609.89 1308.13 5609.84 1309.05 5609.98 1309.94C5610.11 1310.84 5610.43 1311.69 5610.91 1312.46C5611.38 1313.23 5612.01 1313.9 5612.75 1314.41C5613.84 1315.23 5615.17 1315.68 5616.54 1315.68Z" fill="#263238"/>
<path d="M5573.41 6380.08C5586.25 6379.72 5599.02 6377.96 5611.49 6374.85C5612.15 6374.64 5612.75 6374.27 5613.23 6373.76C5613.7 6373.26 5614.04 6372.63 5614.2 6371.96C5614.29 6371.31 5614.2 6370.65 5613.95 6370.04C5613.69 6369.44 5613.28 6368.92 5612.75 6368.53C5607.52 6365.28 5562.04 6336.59 5545.62 6344.71C5543.83 6345.65 5542.32 6347.05 5541.25 6348.76C5540.17 6350.47 5539.56 6352.43 5539.48 6354.45C5538.93 6357.75 5539.22 6361.13 5540.32 6364.29C5541.43 6367.44 5543.31 6370.27 5545.8 6372.5C5553.87 6378.1 5563.61 6380.77 5573.41 6380.08ZM5601.74 6369.97C5576.84 6374.85 5558.07 6373.94 5550.31 6367.27C5548.65 6365.73 5547.39 6363.8 5546.67 6361.66C5545.94 6359.52 5545.77 6357.22 5546.16 6354.99C5546.16 6354.16 5546.38 6353.34 5546.79 6352.61C5547.2 6351.89 5547.79 6351.28 5548.5 6350.84C5556.99 6346.51 5583.15 6358.96 5601.74 6370.7V6369.97Z" fill="#7E57C2"/>
<path d="M5610.59 6374.85C5611.23 6375.03 5611.92 6375.03 5612.57 6374.85C5613.14 6374.34 5613.54 6373.66 5613.7 6372.92C5613.86 6372.17 5613.78 6371.39 5613.47 6370.69C5613.47 6368.89 5611.67 6327.02 5595.43 6313.3C5593.47 6311.58 5591.17 6310.31 5588.68 6309.56C5586.19 6308.81 5583.57 6308.61 5580.99 6308.97C5578.39 6308.95 5575.87 6309.81 5573.83 6311.42C5571.8 6313.03 5570.38 6315.29 5569.8 6317.82C5566.01 6334.06 5593.62 6365.82 5608.24 6373.94L5610.59 6374.85ZM5583.88 6316.55C5586.76 6316.54 5589.54 6317.64 5591.64 6319.62C5601.33 6332.75 5606.63 6348.6 5606.8 6364.92C5592.36 6353.55 5574.85 6328.83 5577.2 6320.16C5577.2 6319.26 5577.2 6317.09 5582.25 6316.55H5583.88Z" fill="#7E57C2"/>
<path d="M4730.24 6249.42C4730.87 6249.26 4731.45 6248.95 4731.93 6248.51C4732.4 6248.07 4732.75 6247.51 4732.95 6246.89C4733.14 6246.21 4733.12 6245.48 4732.89 6244.81C4732.67 6244.13 4732.25 6243.54 4731.69 6243.1C4725.73 6238.77 4672.67 6200.87 4653.72 6207.91C4651.96 6208.56 4650.4 6209.65 4649.17 6211.07C4647.94 6212.49 4647.08 6214.2 4646.69 6216.03C4645.8 6219.13 4645.7 6222.41 4646.4 6225.56C4647.09 6228.7 4648.55 6231.63 4650.66 6234.08C4664.19 6250.32 4706.06 6251.04 4729.88 6249.96L4730.24 6249.42ZM4658.06 6213.32C4669.42 6211.34 4698.84 6227.94 4719.78 6242.2C4687.47 6242.2 4664.01 6237.69 4656.43 6228.48C4655.1 6226.91 4654.19 6225.03 4653.78 6223.01C4653.37 6220.99 4653.48 6218.9 4654.08 6216.93C4654.17 6216.21 4654.45 6215.53 4654.89 6214.96C4655.34 6214.38 4655.93 6213.94 4656.61 6213.68L4658.06 6213.32Z" fill="#7E57C2"/>
<path d="M4730.24 6249.42H4731.33C4731.84 6249.12 4732.28 6248.7 4732.59 6248.2C4732.91 6247.7 4733.09 6247.12 4733.13 6246.53C4733.13 6244.91 4735.3 6205.74 4719.42 6187.88C4717.16 6185.28 4714.39 6183.17 4711.29 6181.68C4708.18 6180.19 4704.81 6179.35 4701.37 6179.21C4691.98 6179.21 4688.55 6183 4687.29 6186.79C4682.24 6202.5 4711.66 6238.77 4727.9 6249.24C4728.66 6249.46 4729.46 6249.52 4730.24 6249.42ZM4697.58 6185.89H4701.01C4703.54 6185.99 4706.02 6186.62 4708.29 6187.74C4710.56 6188.86 4712.56 6190.44 4714.18 6192.39C4723.03 6206.44 4727.26 6222.91 4726.27 6239.49C4710.39 6226.14 4690.18 6198.16 4693.97 6188.78C4694.15 6187.88 4694.51 6186.43 4697.58 6185.89Z" fill="#7E57C2"/>
<path d="M6220.4 2078.89C6242.96 2126.36 6261.37 2171.66 6280.32 2218.58C6299.27 2265.5 6316.41 2312.6 6332.29 2360.43C6365.46 2457.55 6391.28 2557.03 6409.53 2658.03C6413.69 2684.38 6417.84 2710.36 6420 2737.62L6421.99 2757.83V2762.88V2773.17C6422.43 2780.44 6422.43 2787.73 6421.99 2795.01C6418.68 2824.85 6407.33 2853.23 6389.14 2877.12C6374.62 2895.71 6356.82 2911.49 6336.62 2923.68C6321.12 2933.02 6304.74 2940.82 6287.72 2946.96C6259.32 2957.13 6229.92 2964.21 6200.01 2968.08C6147.2 2975.13 6093.84 2977.12 6040.65 2974.03C5989.22 2971.6 5938.02 2965.57 5887.43 2955.99L5893.2 2847.7C5984.61 2838.89 6075.14 2822.66 6163.91 2799.16C6182.01 2793.63 6199.59 2786.5 6216.43 2777.86C6230.51 2771 6238.45 2760.72 6232.85 2764.15C6229.24 2768.23 6226.8 2773.22 6225.81 2778.58C6225.81 2779.85 6225.81 2781.29 6225.81 2782.19V2783.28V2779.3L6222.93 2763.24C6219.68 2741.95 6214.44 2720.11 6209.57 2698.27C6199.1 2654.6 6186.83 2610.2 6172.39 2565.99C6157.96 2521.77 6142.8 2477.2 6126.74 2433.16C6110.67 2389.12 6093.17 2344.73 6076.02 2300.69C6058.88 2256.66 6039.93 2212.08 6021.88 2170.57L6220.4 2078.89Z" fill="#FFC3BD"/>
<path d="M6197.12 1990.82C6272.01 2031.43 6323.45 2275.43 6323.45 2275.43L6101.47 2411.86C6101.47 2411.86 6044.08 2299.25 6001.85 2206.31C5921.72 2028.9 6049.49 1911.05 6197.12 1990.82Z" fill="#263238"/>
<path d="M5911.97 2845.18L5765.97 2838.86L5830.04 2977.82C5830.04 2977.82 5967.74 2969.52 5949.51 2903.65L5911.97 2845.18Z" fill="#FFC3BD"/>
<path d="M5669.78 2934.51L5742.51 3025.11L5830.58 2977.1L5765.79 2838.68L5669.78 2934.51Z" fill="#FFC3BD"/>
<path d="M2266.98 2167.87C2275.83 2213.89 2285.03 2263.34 2297.12 2310.62C2309.21 2357.9 2319.86 2406.09 2333.22 2453.01C2339.71 2476.65 2346.75 2500.11 2353.97 2523.21C2361.19 2546.32 2368.41 2569.6 2376.17 2592.7C2383.93 2615.8 2392.05 2638.36 2400.89 2660.55C2405.23 2671.92 2409.56 2683.11 2414.43 2693.94L2421.47 2710.36L2425.08 2718.49L2426.88 2722.64V2724.8L2425.98 2723.18C2424.54 2720.83 2422.91 2718.85 2420.57 2715.78C2417.96 2713.2 2415.18 2710.78 2412.26 2708.56C2406.79 2704.86 2400.67 2702.23 2394.22 2700.8C2384.29 2699.54 2382.67 2700.8 2383.03 2700.8C2389.33 2699.09 2395.39 2696.61 2401.07 2693.4C2420.43 2682.89 2438.9 2670.82 2456.3 2657.31C2494.02 2629.51 2531.92 2598.11 2568.91 2565.63C2605.91 2533.14 2643.27 2499.93 2679.72 2466.01C2716.18 2432.08 2752.99 2397.61 2789.27 2363.5L2846.48 2414.03C2815.8 2455.36 2783.85 2494.52 2751.19 2533.86C2718.52 2573.21 2684.23 2611.1 2649.22 2649C2613.53 2687.38 2575.82 2723.82 2536.25 2758.19C2514.71 2776.97 2491.78 2794.1 2467.67 2809.44C2451.88 2819.47 2434.74 2827.19 2416.78 2832.36C2401 2836.88 2384.41 2837.8 2368.23 2835.07C2355.23 2832.84 2342.89 2827.72 2332.13 2820.09C2321.4 2812.72 2312.46 2803.04 2305.97 2791.76L2303.8 2787.97L2302.36 2785.26L2301.27 2782.91L2299.11 2778.58L2294.6 2769.56L2285.93 2751.51C2279.8 2739.6 2274.38 2727.69 2269.15 2715.42C2257.96 2691.41 2248.03 2667.23 2238.29 2643.23C2218.98 2594.68 2202.19 2545.41 2186.67 2495.78C2171.15 2446.15 2157.44 2396.34 2145.35 2345.99C2133.25 2295.64 2122.79 2246.01 2114.3 2192.59L2266.98 2167.87Z" fill="#B55B52"/>
<path d="M2206.35 2000.21C2293.51 2018.25 2346.93 2445.43 2346.93 2445.43L2121.52 2454.82C2121.52 2454.82 2033.99 2190.06 2060.16 2083.77C2079.11 2006.34 2114.85 1981.98 2206.35 2000.21Z" fill="#7E57C2"/>
<path d="M2112.32 2441.1C2111.3 2453.68 2112.89 2466.34 2117.01 2478.28C2122.43 2488.38 2326.18 2464.2 2342.78 2459.15C2359.39 2454.09 2360.83 2423.05 2360.83 2417.1C2360.83 2411.14 2112.32 2425.58 2112.32 2441.1Z" fill="#7E57C2"/>
<path opacity="0.1" d="M2112.32 2441.1C2111.3 2453.68 2112.89 2466.34 2117.01 2478.28C2122.43 2488.38 2326.18 2464.2 2342.78 2459.15C2359.39 2454.09 2360.83 2423.05 2360.83 2417.1C2360.83 2411.14 2112.32 2425.58 2112.32 2441.1Z" fill="black"/>
<path opacity="0.2" d="M2291.71 2447.78L2283.95 2418.18L2231.25 2214.61L2214.83 2423.05L2212.66 2451.03L2210.68 2475.93C2240.27 2473.22 2271.68 2469.62 2296.58 2466.37L2291.71 2447.78Z" fill="black"/>
<path d="M2766.89 2400.31L2775.19 2338.05L2885.46 2318.56C2885.46 2318.56 2874.09 2414.57 2815.8 2437.49L2766.89 2400.31Z" fill="#B55B52"/>
<path d="M2781.15 2249.44L2895.03 2240.6L2885.46 2317.66L2775.19 2337.15L2781.15 2249.44Z" fill="#B55B52"/>
<path d="M2051.14 6332.62H2201.65L2224.39 5983.94H2073.88L2051.14 6332.62Z" fill="#B55B52"/>
<path d="M1176.57 6026.72L1323.12 6061.19L1449.99 5732.91L1303.44 5698.44L1176.57 6026.72Z" fill="#B55B52"/>
<path d="M1345.86 6048.73L1194.26 5973.66C1191.67 5972.34 1188.7 5972 1185.88 5972.7C1183.07 5973.39 1180.6 5975.08 1178.92 5977.45L1101.68 6089.16C1099.86 6092.03 1098.66 6095.24 1098.17 6098.6C1097.68 6101.96 1097.9 6105.39 1098.82 6108.66C1099.74 6111.93 1101.34 6114.96 1103.51 6117.58C1105.68 6120.19 1108.38 6122.31 1111.42 6123.81C1165.56 6149.07 1191.73 6158.46 1258.51 6191.49C1299.47 6211.7 1397.83 6284.43 1454.5 6312.4C1511.17 6340.37 1541.85 6285.87 1520.73 6269.27C1452.4 6216.44 1398.42 6147.32 1363.72 6068.22C1360.21 6059.85 1353.89 6052.96 1345.86 6048.73Z" fill="#263238"/>
<path d="M2213.2 6315.11H2044.1C2041.18 6315.08 2038.35 6316.1 2036.13 6317.99C2033.91 6319.88 2032.44 6322.51 2032.01 6325.4L2012.7 6459.31C2012.34 6462.69 2012.71 6466.11 2013.76 6469.34C2014.82 6472.57 2016.54 6475.54 2018.82 6478.07C2021.1 6480.59 2023.89 6482.6 2027 6483.97C2030.12 6485.34 2033.48 6486.04 2036.88 6486.02C2095.9 6484.93 2124.23 6481.51 2199.31 6481.51C2245.15 6481.51 2339.71 6486.2 2402.88 6486.2C2466.04 6486.2 2469.47 6423.75 2443.12 6418.16C2325.28 6392.71 2278.71 6357.7 2239.01 6324.31C2231.78 6318.27 2222.63 6315 2213.2 6315.11Z" fill="#263238"/>
<g opacity="0.2">
<path d="M2224.39 5983.94L2212.66 6163.69H2062.15L2073.88 5983.94H2224.39Z" fill="black"/>
<path d="M1303.44 5698.44L1449.99 5733.09L1380.14 5913.56L1237.93 5867.72L1303.44 5698.44Z" fill="black"/>
</g>
<path d="M2206.35 2000.21C2206.35 2000.21 2279.8 2020.42 2198.4 2911.59L1588.95 2954.54C1581.73 2705.49 1570.9 2552.45 1416.96 2052.18C1501.06 2028.53 1586.77 2011.04 1673.41 1999.85C1764.96 1986.45 1857.37 1979.69 1949.89 1979.63C2069.55 1982.16 2206.35 2000.21 2206.35 2000.21Z" fill="#7E57C2"/>
<path opacity="0.2" d="M1458.65 2172.38L1455.4 2181.22C1524.52 2416.92 1556.1 2564.72 1571.63 2692.68C1598.36 2647.73 1613.73 2596.93 1616.38 2544.69C1626.13 2364.22 1540.95 2183.75 1458.65 2172.38Z" fill="black"/>
<path d="M1508.64 1424.68C1450.35 1477.38 1510.63 1542.89 1495.65 1610.03C1480.67 1677.16 1513.69 1693.23 1507.56 1736.36C1502.76 1778.06 1489.36 1818.31 1468.22 1854.57C1468.22 1854.57 1989.96 1898.78 2090.3 1818.47C2140.47 1778.41 2023.17 1613.1 2040.13 1550.83C2057.09 1488.57 2104.56 1406.46 2048.07 1324.16C1975.88 1219.49 1760.76 1151.81 1590.94 1295.1C1475.61 1311.53 1508.64 1424.68 1508.64 1424.68Z" fill="#263238"/>
<path d="M1689.65 1685.28C1713.48 1773.17 1761.84 1947.69 1703.19 2011.58C1703.19 2011.58 1766.35 2029.62 1853.7 2051.46C1916.87 2022.04 1932.57 1999.49 1932.57 1999.49C1860.38 1980.17 1857.49 1889.04 1869.95 1819.01L1689.65 1685.28Z" fill="#B55B52"/>
<path d="M1689.65 1997.14C1699.22 1980.36 1681.53 1939.39 1678.46 1904.74C1675.4 1870.09 1712.21 1880.01 1755.89 1890.48C1799.56 1900.95 1910.91 1854.39 1915.42 1894.27C1919.94 1934.15 1922.82 1981.44 1939.43 1988.3C1956.03 1995.15 1928.06 2047.67 1852.08 2064.28C1776.1 2080.88 1668 2035.04 1689.65 1997.14Z" fill="#7E57C2"/>
<path opacity="0.1" d="M1695.79 1927.84C1753.33 1937.9 1811.91 1940.57 1870.13 1935.78C1845.4 1952.2 1742.71 1961.23 1695.79 1927.84Z" fill="black"/>
<path opacity="0.2" d="M1763.29 1739.61L1869.95 1818.47C1866.71 1834.88 1864.95 1851.56 1864.71 1868.28C1826.45 1865.39 1764.55 1837.24 1753.36 1796.09C1748.13 1777.32 1760.58 1749.17 1763.29 1739.61Z" fill="black"/>
<path d="M1577.04 1519.25C1610.43 1664.89 1621.44 1727.15 1708.24 1789.96C1838.9 1885.07 2010.35 1812.16 2021.18 1659.48C2030.93 1522.14 1974.62 1307.02 1820.86 1272.36C1786.96 1264.53 1751.63 1265.5 1718.22 1275.19C1684.81 1284.88 1654.44 1302.96 1630 1327.71C1605.55 1352.46 1587.85 1383.06 1578.58 1416.59C1569.31 1450.12 1568.78 1485.46 1577.04 1519.25Z" fill="#B55B52"/>
<path d="M1638.58 1288.97C1720.33 1266.41 1881.5 1176.9 1993.21 1359.89C1982.74 1384.98 1872.11 1395.99 1872.11 1395.99C1872.11 1395.99 1856.59 1331.2 1825.37 1310.62C1835.91 1340.81 1843.82 1371.84 1849.01 1403.39C1849.01 1403.39 1716.91 1450.13 1655.36 1445.98C1593.82 1441.83 1564.95 1309.18 1638.58 1288.97Z" fill="#263238"/>
<path d="M2198.4 2911.59C2198.4 2911.59 2398.19 4060.11 2420.38 4517.79C2443.67 4994.96 2244.79 6127.96 2244.79 6127.96H2041.21C2041.21 6127.96 2100.23 5046.93 2049.33 4580.41C1993.93 4072.75 1751.38 2942.99 1751.38 2942.99L2198.4 2911.59Z" fill="#263238"/>
<path d="M2023.71 6136.26H2262.47L2279.98 6060.1L2012.52 6050.72L2023.71 6136.26Z" fill="#7E57C2"/>
<path opacity="0.2" d="M1955.49 3218.03C2126.58 3508.77 2045.73 4066.25 2006.74 4275.24C1958.02 3969.88 1885.83 3597.56 1830.78 3324.33C1842.51 3166.78 1876.62 3083.94 1955.49 3218.03Z" fill="black"/>
<path d="M2037.24 2923.68C2037.24 2923.68 1983.1 4136.09 1906.4 4529.88C1814.72 4996.94 1427.97 5877.64 1427.97 5877.64L1233.6 5807.08C1233.6 5807.08 1446.02 4886.67 1511.71 4588.9C1631 4047.48 1450.53 3303.21 1588.41 2955.63L2037.24 2923.68Z" fill="#263238"/>
<path d="M1201.48 5816.1L1439.88 5905.26L1493.48 5839.75L1217.54 5722.08L1201.48 5816.1Z" fill="#7E57C2"/>
<path d="M1818.15 1519.43C1820.14 1531.34 1828.08 1540 1836.2 1538.74C1844.32 1537.48 1848.83 1526.65 1846.85 1514.74C1844.86 1502.83 1836.92 1493.98 1828.8 1495.43C1820.68 1496.87 1816.16 1507.34 1818.15 1519.43Z" fill="#263238"/>
<path d="M1953.5 1497.95C1955.49 1509.87 1963.43 1518.53 1971.55 1517.26C1979.67 1516 1984.18 1505.17 1982.2 1493.26C1980.21 1481.35 1972.27 1472.51 1964.15 1473.77C1956.03 1475.03 1951.52 1484.96 1953.5 1497.95Z" fill="#263238"/>
<path d="M1960.72 1474.13L1988.15 1461.14C1988.15 1461.14 1977.15 1486.04 1960.72 1474.13Z" fill="#263238"/>
<path d="M1915.42 1525.39C1930.5 1551.01 1949.09 1574.39 1970.65 1594.87C1965.27 1600.22 1958.78 1604.34 1951.64 1606.92C1944.5 1609.51 1936.88 1610.51 1929.32 1609.85L1915.42 1525.39Z" fill="#A02724"/>
<path d="M1871.75 1667.6C1877.8 1667.57 1883.84 1667.03 1889.8 1665.97C1890.25 1665.9 1890.68 1665.74 1891.07 1665.51C1891.46 1665.27 1891.8 1664.96 1892.06 1664.59C1892.33 1664.22 1892.52 1663.8 1892.63 1663.36C1892.74 1662.91 1892.76 1662.45 1892.68 1662C1892.61 1661.55 1892.45 1661.12 1892.22 1660.73C1891.98 1660.34 1891.67 1660.01 1891.3 1659.74C1890.93 1659.47 1890.51 1659.28 1890.07 1659.17C1889.62 1659.06 1889.16 1659.04 1888.71 1659.12C1873.85 1661.87 1858.55 1661.09 1844.04 1656.86C1829.53 1652.63 1816.21 1645.06 1805.16 1634.75C1804.86 1634.33 1804.48 1633.98 1804.03 1633.71C1803.59 1633.45 1803.09 1633.29 1802.58 1633.24C1802.07 1633.18 1801.55 1633.24 1801.06 1633.4C1800.57 1633.57 1800.12 1633.83 1799.74 1634.19C1799.37 1634.54 1799.07 1634.96 1798.87 1635.44C1798.67 1635.92 1798.58 1636.43 1798.59 1636.95C1798.61 1637.46 1798.74 1637.97 1798.97 1638.43C1799.2 1638.89 1799.52 1639.3 1799.92 1639.62C1809.43 1648.83 1820.68 1656.05 1833.02 1660.85C1845.35 1665.66 1858.52 1667.95 1871.75 1667.6Z" fill="#263238"/>
<path d="M1622.88 1622.12C1693.44 1537.84 1716.72 1397.97 1619.09 1311.53C1555.92 1375.41 1500.16 1570.14 1622.88 1622.12Z" fill="#263238"/>
<path d="M1552.86 1641.25C1565.63 1667.13 1588.05 1686.96 1615.3 1696.47C1651.39 1708.56 1671.61 1676.62 1663.12 1641.25C1655.54 1609.49 1627.03 1565.09 1590.94 1568.16C1582.8 1568.97 1574.99 1571.8 1568.22 1576.38C1561.45 1580.97 1555.93 1587.17 1552.15 1594.42C1548.37 1601.67 1546.46 1609.75 1546.58 1617.92C1546.71 1626.1 1548.86 1634.11 1552.86 1641.25Z" fill="#B55B52"/>
<path d="M1764.19 1483.52C1765.7 1483.7 1767.23 1483.37 1768.54 1482.59C1769.85 1481.8 1770.86 1480.61 1771.41 1479.19C1784.58 1449.05 1825.55 1440.2 1826.63 1440.02C1827.54 1439.85 1828.41 1439.5 1829.18 1438.98C1829.95 1438.47 1830.61 1437.8 1831.11 1437.03C1831.62 1436.25 1831.96 1435.38 1832.12 1434.47C1832.28 1433.56 1832.26 1432.62 1832.05 1431.72C1831.92 1430.76 1831.59 1429.83 1831.09 1428.99C1830.58 1428.16 1829.91 1427.44 1829.11 1426.88C1828.32 1426.32 1827.41 1425.93 1826.46 1425.74C1825.5 1425.55 1824.52 1425.56 1823.56 1425.77C1821.58 1425.77 1774.3 1436.23 1758.23 1473.23C1757.84 1474.08 1757.63 1475 1757.6 1475.94C1757.57 1476.87 1757.73 1477.81 1758.07 1478.68C1758.4 1479.55 1758.91 1480.35 1759.56 1481.03C1760.21 1481.7 1760.98 1482.24 1761.84 1482.61C1762.53 1483.11 1763.34 1483.43 1764.19 1483.52Z" fill="#263238"/>
<path d="M2001.87 1424.14C2003.1 1424.32 2004.35 1424.16 2005.49 1423.68C2006.64 1423.21 2007.63 1422.43 2008.37 1421.43C2008.93 1420.69 2009.34 1419.84 2009.57 1418.94C2009.81 1418.03 2009.86 1417.09 2009.72 1416.17C2009.59 1415.25 2009.27 1414.36 2008.79 1413.56C2008.31 1412.76 2007.68 1412.06 2006.92 1411.51C1998.13 1404.38 1987.75 1399.48 1976.66 1397.21C1965.57 1394.95 1954.1 1395.4 1943.22 1398.51C1941.45 1399.14 1939.99 1400.44 1939.18 1402.13C1938.37 1403.82 1938.26 1405.77 1938.89 1407.54C1939.51 1409.31 1940.81 1410.76 1942.5 1411.57C1944.19 1412.38 1946.14 1412.49 1947.91 1411.87C1956.58 1409.61 1965.65 1409.43 1974.4 1411.34C1983.15 1413.25 1991.33 1417.21 1998.26 1422.88C1999.32 1423.64 2000.57 1424.08 2001.87 1424.14Z" fill="#263238"/>
<path d="M1408.48 6101.25H1410.28C1413.57 6100.24 1416.55 6098.39 1418.92 6095.9C1421.29 6093.4 1422.98 6090.33 1423.82 6086.99C1424.6 6085 1424.85 6082.83 1424.53 6080.71C1424.21 6078.58 1423.35 6076.58 1422.01 6074.9C1409.74 6059.92 1355.78 6066.24 1349.83 6066.96C1349.11 6066.98 1348.42 6067.24 1347.86 6067.7C1347.3 6068.16 1346.92 6068.79 1346.76 6069.49C1346.57 6070.17 1346.59 6070.9 1346.82 6071.57C1347.04 6072.25 1347.46 6072.84 1348.02 6073.28C1362.1 6085.01 1390.43 6104.86 1408.48 6101.25ZM1359.03 6072.55C1380.69 6070.75 1410.1 6070.93 1416.42 6078.87C1416.94 6079.64 1417.22 6080.56 1417.22 6081.49C1417.22 6082.42 1416.94 6083.33 1416.42 6084.1C1415.93 6086.36 1414.85 6088.45 1413.3 6090.16C1411.75 6091.87 1409.78 6093.14 1407.58 6093.85C1397.65 6096.92 1379.78 6088.8 1358.49 6072.55H1359.03Z" fill="#7E57C2"/>
<path d="M1355.24 6072.74C1373.29 6069.13 1405.59 6054.69 1409.38 6038.81C1410.14 6036.07 1409.93 6033.15 1408.78 6030.55C1407.63 6027.95 1405.61 6025.83 1403.06 6024.55C1400.76 6023.07 1398.17 6022.09 1395.47 6021.69C1392.76 6021.28 1390 6021.46 1387.36 6022.2C1366.25 6027.98 1346.94 6066.6 1346.04 6068.4C1345.73 6068.93 1345.58 6069.52 1345.58 6070.12C1345.58 6070.72 1345.73 6071.31 1346.04 6071.83C1346.37 6072.34 1346.83 6072.75 1347.36 6073.04C1347.9 6073.32 1348.5 6073.47 1349.1 6073.46C1351.17 6073.4 1353.22 6073.16 1355.24 6072.74ZM1391.33 6028.88C1392.81 6028.52 1394.35 6028.47 1395.84 6028.75C1397.34 6029.03 1398.75 6029.63 1400 6030.51C1403.97 6033.03 1403.79 6035.38 1403.43 6037C1400.72 6047.11 1374.55 6061.55 1356.68 6065.34C1363.9 6052.88 1377.62 6032.49 1390.25 6029.24L1391.33 6028.88Z" fill="#7E57C2"/>
<path d="M2269.69 6341.46C2282.41 6342.52 2295.12 6339.28 2305.79 6332.25C2308.27 6330.01 2310.15 6327.19 2311.29 6324.04C2312.42 6320.89 2312.76 6317.52 2312.28 6314.21C2312.14 6312.25 2311.5 6310.36 2310.43 6308.72C2309.36 6307.08 2307.88 6305.74 2306.15 6304.82C2288.1 6294.72 2227.82 6325.4 2220.96 6328.82C2220.32 6329.21 2219.81 6329.77 2219.49 6330.45C2219.17 6331.12 2219.05 6331.88 2219.16 6332.62C2219.23 6333.33 2219.53 6334 2220.02 6334.52C2220.51 6335.04 2221.16 6335.39 2221.87 6335.5C2237.59 6338.97 2253.6 6340.97 2269.69 6341.46ZM2296.58 6310.24C2298.83 6310.16 2301.07 6310.66 2303.08 6311.68C2303.82 6312 2304.46 6312.52 2304.91 6313.2C2305.36 6313.87 2305.6 6314.66 2305.6 6315.47C2305.9 6317.56 2305.68 6319.69 2304.96 6321.68C2304.23 6323.66 2303.03 6325.43 2301.45 6326.84C2292.25 6335.14 2267.53 6336.58 2234.14 6330.99C2253.63 6320.59 2274.74 6313.57 2296.58 6310.24Z" fill="#7E57C2"/>
<path d="M2222.95 6336.22H2224.39C2242.44 6328.1 2278.53 6295.62 2275.1 6278.47C2275.1 6274.5 2271.68 6269.45 2261.75 6268.55C2258.2 6268.12 2254.59 6268.44 2251.17 6269.5C2247.75 6270.55 2244.59 6272.32 2241.9 6274.68C2223.85 6290.38 2219.52 6330.99 2219.52 6332.61C2219.42 6333.24 2219.5 6333.88 2219.76 6334.45C2220.01 6335.03 2220.43 6335.52 2220.96 6335.86C2221.58 6336.16 2222.27 6336.28 2222.95 6336.22ZM2259.04 6275.04H2261.21C2267.71 6275.04 2268.07 6278.29 2268.25 6279.19C2269.87 6289.48 2245.87 6315.29 2227.64 6325.94C2228.96 6308.84 2235.66 6292.61 2246.77 6279.56C2250.15 6276.68 2254.43 6275.09 2258.86 6275.04H2259.04Z" fill="#7E57C2"/>
<path d="M1825.37 1496.51L1852.8 1483.52C1852.8 1483.52 1841.61 1508.42 1825.37 1496.51Z" fill="#263238"/>
<path d="M1576.86 2919.35L1565.13 2975.12C1563.14 2979.45 1568.56 2983.42 1575.6 2982.88L2202.56 2938.84C2208.15 2938.84 2212.48 2935.41 2212.48 2931.98L2214.29 2876.94C2214.29 2873.15 2209.41 2870.26 2203.28 2870.62L1585.7 2914.12C1583.91 2914.19 1582.16 2914.7 1580.62 2915.62C1579.08 2916.53 1577.78 2917.81 1576.86 2919.35Z" fill="white"/>
<path d="M1666.73 2982.52L1650.13 2983.6C1646.88 2983.6 1644.18 2982.34 1644.36 2980.17L1647.06 2907.98C1647.06 2906 1649.95 2904.01 1653.2 2903.83L1669.8 2902.57C1673.05 2902.57 1675.58 2904.01 1675.58 2906L1672.87 2978.18C1672.69 2980.35 1669.98 2982.15 1666.73 2982.52Z" fill="#263238"/>
<path d="M2157.26 2948.05L2140.65 2949.13C2137.4 2949.13 2134.7 2947.87 2134.88 2945.7L2137.59 2873.51C2137.59 2871.53 2140.47 2869.54 2143.72 2869.36L2160.32 2868.1C2163.57 2868.1 2166.28 2869.36 2166.1 2871.53L2163.39 2943.71C2163.21 2945.88 2160.51 2947.68 2157.26 2948.05Z" fill="#263238"/>
<path d="M1913.8 2965.19L1897.38 2966.27C1893.95 2966.27 1891.42 2965.01 1891.42 2962.84L1894.31 2890.66C1894.31 2888.67 1897.02 2886.69 1900.45 2886.5L1916.87 2885.24C1920.3 2885.24 1922.82 2886.69 1922.82 2888.67L1919.94 2960.86C1919.03 2963.02 1916.33 2964.83 1913.8 2965.19Z" fill="#263238"/>
<path d="M1511.35 2232.47C1517.48 2278.49 1523.26 2326.5 1530.66 2373.24C1538.06 2419.98 1544.55 2467.27 1553.4 2513.29C1562.24 2559.31 1571.45 2604.79 1584.08 2646.84C1589.38 2665.74 1596.14 2684.2 1604.29 2702.06C1606.1 2706.21 1607.72 2708.02 1609.16 2710.91C1609.92 2712.22 1610.77 2713.49 1611.69 2714.7C1614.99 2718.29 1618.98 2721.17 1623.42 2723.18C1639.15 2730.44 1655.88 2735.31 1673.05 2737.62C1694.08 2740.82 1715.31 2742.51 1736.58 2742.67C1782.46 2742.94 1828.32 2740.47 1873.92 2735.27C1920.48 2730.4 1967.4 2723.36 2014.32 2714.88C2061.25 2706.39 2108.53 2696.83 2154.55 2687.81L2177.65 2759.99C2130.91 2778.94 2084.35 2794.28 2036.88 2809.26C1989.42 2824.24 1941.23 2836.15 1892.5 2846.8C1842.17 2858.09 1791.08 2865.69 1739.64 2869.54C1712.37 2871.52 1684.99 2871.52 1657.71 2869.54C1626.71 2867.4 1596.25 2860.34 1567.47 2848.61C1549.56 2841.03 1532.98 2830.61 1518.39 2817.74C1510.52 2810.55 1503.27 2802.7 1496.73 2794.28C1491.68 2786.88 1485.9 2778.94 1482.29 2772.27C1467.74 2747.14 1455.65 2720.67 1446.2 2693.22C1429.44 2644.62 1415.76 2595.01 1405.23 2544.69C1394.4 2495.6 1385.38 2446.69 1377.44 2397.79C1369.5 2348.88 1363.18 2300.15 1359.39 2249.8L1511.35 2232.47Z" fill="#B55B52"/>
<path d="M1416.42 2051.46C1277.64 2090.44 1367.87 2582.23 1367.87 2582.23L1583 2523.4C1583 2523.4 1621.07 2260.99 1589.85 2183.75C1557.37 2103.44 1486.62 2031.61 1416.42 2051.46Z" fill="#7E57C2"/>
<path d="M1358.13 2554.8C1358.62 2567.84 1361.68 2580.66 1367.15 2592.52C1373.47 2601.9 1564.59 2544.33 1579.57 2536.39C1594.55 2528.45 1592.38 2495.78 1591.66 2490.19C1590.94 2484.59 1356.32 2538.92 1358.13 2554.8Z" fill="#7E57C2"/>
<path opacity="0.1" d="M1358.13 2554.8C1358.62 2567.84 1361.68 2580.66 1367.15 2592.52C1373.47 2601.9 1564.59 2544.33 1579.57 2536.39C1594.55 2528.45 1592.38 2495.78 1591.66 2490.19C1590.94 2484.59 1356.32 2538.92 1358.13 2554.8Z" fill="black"/>
<path d="M5109.42 2278.5C4888.83 2118.95 4613.9 2053.56 4345.11 2096.72C4076.32 2139.87 3835.67 2288.02 3676.11 2508.6C3455.43 2350.07 3180.91 2285.51 2912.71 2329.05C2644.51 2372.59 2404.51 2520.69 2245.32 2740.88C2086.13 2961.07 2020.73 3235.4 2063.46 3503.73C2106.18 3772.06 2253.55 4012.51 2473.26 4172.37L4136.85 5375.39L5339.88 3711.8C5499.38 3491.17 5564.71 3216.22 5521.49 2947.42C5478.27 2678.62 5330.04 2438 5109.42 2278.5Z" fill="#7E57C2"/>
<path opacity="0.2" d="M5109.42 2278.5C4888.83 2118.95 4613.9 2053.56 4345.11 2096.72C4076.32 2139.87 3835.67 2288.02 3676.11 2508.6C3455.43 2350.07 3180.91 2285.51 2912.71 2329.05C2644.51 2372.59 2404.51 2520.69 2245.32 2740.88C2086.13 2961.07 2020.73 3235.4 2063.46 3503.73C2106.18 3772.06 2253.55 4012.51 2473.26 4172.37L4136.85 5375.39L5339.88 3711.8C5499.38 3491.17 5564.71 3216.22 5521.49 2947.42C5478.27 2678.62 5330.04 2438 5109.42 2278.5Z" fill="white"/>
<path d="M2390.25 2710L2325.46 2820.63L2205.62 2792.12L2275.83 2656.04L2390.25 2710Z" fill="#B55B52"/>
<path d="M2131.99 2689.07L2276.37 2656.22L2206.16 2792.3C2206.16 2792.3 2109.43 2794.83 2078.57 2740.5L2108.17 2704.41C2114.18 2696.79 2122.57 2691.39 2131.99 2689.07Z" fill="#B55B52"/>
</svg>
