<svg width="9024" height="6724" viewBox="0 0 9024 6724" fill="none" xmlns="http://www.w3.org/2000/svg">
<path d="M9023.59 5908.65H0V5913.16H9023.59V5908.65Z" fill="#E0E0E0"/>
<path d="M7818.04 6191.63H7008.44V6196.14H7818.04V6191.63Z" fill="#E0E0E0"/>
<path d="M6889.69 6191.63H6732.86V6196.14H6889.69V6191.63Z" fill="#E0E0E0"/>
<path d="M5401.88 6129.37H5052.49V6133.88H5401.88V6129.37Z" fill="#E0E0E0"/>
<path d="M2240.02 6127.02H1460.56V6131.53H2240.02V6127.02Z" fill="#E0E0E0"/>
<path d="M1299.94 6127.02H1185.7V6131.53H1299.94V6127.02Z" fill="#E0E0E0"/>
<path d="M5106.99 6020.18H3416.33V6024.69H5106.99V6020.18Z" fill="#E0E0E0"/>
<path d="M4277.18 5103.74H792.452C765.153 5103.7 738.988 5092.82 719.702 5073.5C700.415 5054.18 689.583 5027.99 689.583 5000.69V102.147C689.821 75.0046 700.758 49.0519 720.019 29.9262C739.279 10.8005 765.308 0.0464965 792.452 0H4277.18C4304.51 0 4330.72 10.857 4350.05 30.1825C4369.38 49.508 4380.23 75.719 4380.23 103.049V5000.69C4380.23 5028.03 4369.38 5054.24 4350.05 5073.56C4330.72 5092.89 4304.51 5103.74 4277.18 5103.74ZM792.452 3.60945C766.349 3.65726 741.332 14.0599 722.892 32.5341C704.452 51.0084 694.095 76.0445 694.095 102.147V5000.69C694.095 5026.8 704.452 5051.83 722.892 5070.31C741.332 5088.78 766.349 5099.18 792.452 5099.23H4277.18C4303.3 5099.18 4328.34 5088.79 4346.81 5070.32C4365.28 5051.85 4375.67 5026.81 4375.72 5000.69V102.147C4375.67 76.0279 4365.28 50.9922 4346.81 32.5231C4328.34 14.0541 4303.3 3.65716 4277.18 3.60945H792.452Z" fill="#E0E0E0"/>
<path d="M8180.97 5103.74H4696.06C4668.74 5103.7 4642.56 5092.82 4623.24 5073.51C4603.93 5054.19 4593.06 5028.01 4593.01 5000.69V102.147C4593.29 74.9881 4604.27 49.0356 4623.56 29.9149C4642.85 10.7942 4668.9 0.0459895 4696.06 0H8180.97C8208.08 0.0939265 8234.06 10.8689 8253.29 29.9895C8272.51 49.1101 8283.42 75.0357 8283.66 102.147V5000.69C8283.66 5027.96 8272.85 5054.12 8253.6 5073.43C8234.36 5092.75 8208.24 5103.65 8180.97 5103.74ZM4696.06 3.60945C4669.94 3.65716 4644.9 14.0541 4626.43 32.5231C4607.97 50.9922 4597.57 76.0279 4597.52 102.147V5000.69C4597.57 5026.81 4607.97 5051.85 4626.43 5070.32C4644.9 5088.79 4669.94 5099.18 4696.06 5099.23H8180.97C8207.09 5099.18 8232.12 5088.79 8250.59 5070.32C8269.06 5051.85 8279.46 5026.81 8279.51 5000.69V102.147C8279.46 76.0279 8269.06 50.9922 8250.59 32.5231C8232.12 14.0541 8207.09 3.65716 8180.97 3.60945H4696.06Z" fill="#E0E0E0"/>
<path d="M4241.99 1138.96H2084.27V5910.81H4241.99V1138.96Z" fill="#E6E6E6"/>
<path d="M4241.99 1138.96H2186.6V5910.81H4241.99V1138.96Z" fill="#F0F0F0"/>
<path d="M4133.71 5802.53V1247.24H2294.88V5802.53H4133.71Z" fill="#EBEBEB"/>
<path d="M4133.71 5802.71V1247.42H4105.55V5802.71H4133.71Z" fill="#E6E6E6"/>
<path d="M3888.09 3419.94C3939.02 3419.94 3980.31 3378.65 3980.31 3327.72C3980.31 3276.79 3939.02 3235.5 3888.09 3235.5C3837.15 3235.5 3795.86 3276.79 3795.86 3327.72C3795.86 3378.65 3837.15 3419.94 3888.09 3419.94Z" fill="#E6E6E6"/>
<path d="M3924.18 3400.81C3975.11 3400.81 4016.4 3359.52 4016.4 3308.59C4016.4 3257.66 3975.11 3216.37 3924.18 3216.37C3873.25 3216.37 3831.96 3257.66 3831.96 3308.59C3831.96 3359.52 3873.25 3400.81 3924.18 3400.81Z" fill="#FAFAFA"/>
<path d="M7638.65 551.522H5189.65V4216.91H7638.65V551.522Z" fill="#E0E0E0"/>
<path d="M7692.97 551.522H5243.97V4216.91H7692.97V551.522Z" fill="#F0F0F0"/>
<path d="M7595.34 4107.18V661.249L5341.79 661.249V4107.18H7595.34Z" fill="#FAFAFA"/>
<path d="M7595.34 4107.18V661.249H7554.19V4107.18H7595.34Z" fill="#E0E0E0"/>
<path d="M7652.55 1735.6H5284.4V1882.86H7652.55V1735.6Z" fill="#F0F0F0"/>
<path d="M7799.45 369.967H5083.17C5079.2 369.967 5075.39 371.545 5072.58 374.355C5069.77 377.164 5068.19 380.974 5068.19 384.946C5068.19 388.936 5069.76 392.765 5072.57 395.603C5075.37 398.441 5079.18 400.059 5083.17 400.106H7799.45C7803.46 400.059 7807.29 398.447 7810.12 395.614C7812.95 392.781 7814.57 388.953 7814.61 384.946C7814.56 380.957 7812.95 377.148 7810.11 374.343C7807.27 371.539 7803.44 369.967 7799.45 369.967Z" fill="#E0E0E0"/>
<path d="M7889.69 384.946C7889.72 399.839 7885.34 414.406 7877.09 426.806C7868.85 439.206 7857.1 448.879 7843.36 454.603C7829.61 460.327 7814.47 461.843 7799.86 458.96C7785.25 456.076 7771.82 448.923 7761.28 438.405C7750.74 427.888 7743.55 414.479 7740.63 399.875C7737.72 385.272 7739.2 370.131 7744.89 356.369C7750.58 342.607 7760.22 330.843 7772.6 322.566C7784.98 314.289 7799.54 309.87 7814.43 309.87C7834.36 309.87 7853.47 317.774 7867.58 331.848C7881.69 345.923 7889.64 365.018 7889.69 384.946Z" fill="#E0E0E0"/>
<path d="M5209.86 469.227C5204.48 469.179 5199.34 467.01 5195.56 463.19C5191.77 459.371 5189.65 454.211 5189.65 448.834V405.34C5189.65 399.962 5191.77 394.802 5195.56 390.983C5199.34 387.164 5204.48 384.994 5209.86 384.947C5215.26 384.994 5220.42 387.157 5224.23 390.972C5228.04 394.786 5230.21 399.946 5230.25 405.34V448.834C5230.21 454.228 5228.04 459.387 5224.23 463.202C5220.42 467.016 5215.26 469.18 5209.86 469.227Z" fill="#E0E0E0"/>
<path d="M7572.78 469.227C7567.39 469.18 7562.23 467.016 7558.41 463.202C7554.6 459.387 7552.43 454.228 7552.39 448.834V405.34C7552.43 399.946 7554.6 394.786 7558.41 390.972C7562.23 387.157 7567.39 384.994 7572.78 384.947C7578.16 384.994 7583.3 387.164 7587.08 390.983C7590.87 394.802 7592.99 399.962 7592.99 405.34V448.834C7592.99 454.211 7590.87 459.371 7587.08 463.19C7583.3 467.01 7578.16 469.179 7572.78 469.227Z" fill="#E0E0E0"/>
<path opacity="0.4" d="M7794.76 384.947H5284.4V1437.64H7794.76V384.947Z" fill="#E0E0E0"/>
<path d="M5526.95 384.946C5526.99 399.839 5522.6 414.406 5514.36 426.806C5506.11 439.206 5494.37 448.879 5480.62 454.603C5466.87 460.327 5451.73 461.843 5437.12 458.96C5422.51 456.076 5409.09 448.923 5398.54 438.405C5388 427.888 5380.81 414.479 5377.9 399.875C5374.98 385.272 5376.46 370.131 5382.15 356.369C5387.84 342.607 5397.48 330.843 5409.86 322.566C5422.24 314.289 5436.8 309.87 5451.69 309.87C5471.62 309.87 5490.74 317.774 5504.84 331.848C5518.95 345.923 5526.9 365.018 5526.95 384.946Z" fill="#E0E0E0"/>
<path d="M5572.25 4768.97H5088.95V5840.79H5572.25V4768.97Z" fill="#E6E6E6"/>
<path d="M7565.74 5840.79H5181.89V5908.65H7565.74V5840.79Z" fill="#E6E6E6"/>
<path d="M5572.25 5840.79H7658.32V4768.97H5572.25V5840.79Z" fill="#F0F0F0"/>
<path d="M5762.29 5252.45H7468.29V4900.89H5762.29V5252.45Z" fill="#E6E6E6"/>
<path d="M5762.29 5708.69H7468.29V5357.13H5762.29V5708.69Z" fill="#E6E6E6"/>
<path d="M6832.84 5052.49H6398.09C6386.33 5052.49 6376.79 5062.03 6376.79 5073.79V5079.38C6376.79 5091.14 6386.33 5100.68 6398.09 5100.68H6832.84C6844.61 5100.68 6854.14 5091.14 6854.14 5079.38V5073.79C6854.14 5062.03 6844.61 5052.49 6832.84 5052.49Z" fill="#F0F0F0"/>
<path d="M6832.84 5508.9H6398.09C6386.33 5508.9 6376.79 5518.44 6376.79 5530.2V5535.79C6376.79 5547.56 6386.33 5557.09 6398.09 5557.09H6832.84C6844.61 5557.09 6854.14 5547.56 6854.14 5535.79V5530.2C6854.14 5518.44 6844.61 5508.9 6832.84 5508.9Z" fill="#F0F0F0"/>
<path d="M6174.3 4610.88C6233.11 4610.88 6280.78 4563.2 6280.78 4504.4C6280.78 4445.59 6233.11 4397.92 6174.3 4397.92C6115.5 4397.92 6067.82 4445.59 6067.82 4504.4C6067.82 4563.2 6115.5 4610.88 6174.3 4610.88Z" fill="#F0F0F0"/>
<path d="M6341.78 4590.84C6400.59 4590.84 6448.26 4543.17 6448.26 4484.37C6448.26 4425.56 6400.59 4377.89 6341.78 4377.89C6282.97 4377.89 6235.3 4425.56 6235.3 4484.37C6235.3 4543.17 6282.97 4590.84 6341.78 4590.84Z" fill="#F0F0F0"/>
<path d="M6963.51 4533.63C6963.51 4554.69 6957.26 4575.28 6945.56 4592.79C6933.86 4610.3 6917.23 4623.95 6897.78 4632.01C6878.32 4640.07 6856.91 4642.17 6836.26 4638.07C6815.6 4633.96 6796.63 4623.82 6781.74 4608.93C6766.85 4594.03 6756.7 4575.06 6752.6 4554.41C6748.49 4533.75 6750.6 4512.34 6758.65 4492.89C6766.71 4473.43 6780.36 4456.8 6797.87 4445.1C6815.38 4433.4 6835.97 4427.16 6857.03 4427.16C6885.27 4427.16 6912.35 4438.37 6932.32 4458.34C6952.29 4478.31 6963.51 4505.39 6963.51 4533.63Z" fill="#F0F0F0"/>
<path d="M6688.65 4582.72C6688.68 4603.83 6682.45 4624.48 6670.75 4642.05C6659.04 4659.61 6642.39 4673.31 6622.89 4681.41C6603.39 4689.5 6581.93 4691.63 6561.23 4687.52C6540.52 4683.41 6521.5 4673.25 6506.57 4658.32C6491.64 4643.39 6481.48 4624.37 6477.37 4603.67C6473.26 4582.96 6475.39 4561.5 6483.48 4542C6491.58 4522.51 6505.28 4505.85 6522.85 4494.14C6540.41 4482.44 6561.06 4476.21 6582.17 4476.24C6610.41 4476.24 6637.49 4487.46 6657.46 4507.43C6677.43 4527.4 6688.65 4554.48 6688.65 4582.72Z" fill="#F0F0F0"/>
<path d="M5865.34 4523.89C5865.34 4523.89 5883.38 4768.97 6543.91 4768.97C7204.44 4768.97 7222.48 4523.89 7222.48 4523.89H5865.34Z" fill="#E6E6E6"/>
<path d="M1115.32 4391.42H786.315V5818.23H1115.32V4391.42Z" fill="#E6E6E6"/>
<path d="M2471.92 5818.23H849.481V5908.65H2471.92V5818.23Z" fill="#E6E6E6"/>
<path d="M1115.14 5818.23H2534.91V4391.42H1115.14L1115.14 5818.23Z" fill="#F0F0F0"/>
<path d="M1244.71 5035.17H2405.69V4567.2H1244.71V5035.17Z" fill="#E6E6E6"/>
<path d="M1244.71 5642.63H2405.69V5174.67H1244.71V5642.63Z" fill="#E6E6E6"/>
<path d="M1955.41 4833.22H1694.81C1690.55 4833.22 1686.32 4832.37 1682.39 4830.72C1678.46 4829.07 1674.89 4826.66 1671.9 4823.62C1668.91 4820.58 1666.56 4816.97 1664.98 4813.01C1663.39 4809.05 1662.62 4804.82 1662.69 4800.55C1662.69 4792.03 1666.07 4783.86 1672.1 4777.84C1678.12 4771.81 1686.29 4768.43 1694.81 4768.43H1955.41C1963.93 4768.43 1972.1 4771.81 1978.13 4777.84C1984.15 4783.86 1987.54 4792.03 1987.54 4800.55C1987.61 4804.82 1986.83 4809.05 1985.25 4813.01C1983.67 4816.97 1981.31 4820.58 1978.32 4823.62C1975.33 4826.66 1971.77 4829.07 1967.83 4830.72C1963.9 4832.37 1959.68 4833.22 1955.41 4833.22Z" fill="#F0F0F0"/>
<path d="M1955.41 5440.69H1694.81C1686.29 5440.69 1678.12 5437.3 1672.1 5431.28C1666.07 5425.25 1662.69 5417.08 1662.69 5408.56C1662.74 5400.07 1666.14 5391.95 1672.16 5385.96C1678.18 5379.98 1686.32 5376.62 1694.81 5376.62H1955.41C1963.9 5376.62 1972.05 5379.98 1978.06 5385.96C1984.08 5391.95 1987.49 5400.07 1987.54 5408.56C1987.54 5417.08 1984.15 5425.25 1978.13 5431.28C1972.1 5437.3 1963.93 5440.69 1955.41 5440.69Z" fill="#F0F0F0"/>
<path d="M1757.07 4117.1C1757.07 4117.1 1486.37 3649.5 1862.29 3277.19C1862.29 3277.19 1960.47 3341.08 1959.02 3427.16C1957.58 3513.25 1853.81 3535.44 1876.01 3607.63C1898.2 3679.82 1996.2 3750.02 1931.95 3809.4C1867.7 3868.78 1942.24 3921.65 1937.91 3994.38C1933.58 4067.11 1757.07 4117.1 1757.07 4117.1Z" fill="#F0F0F0"/>
<path d="M1362.02 4042.57C1362.02 4042.57 1371.05 4391.42 1717.01 4391.42C2062.97 4391.42 2071.82 4042.57 2071.82 4042.57H1362.02Z" fill="#E6E6E6"/>
<path d="M1777.65 4159.88C1777.65 4159.88 1887.74 3630.55 1413.09 3395.94C1413.09 3395.94 1340.91 3487.62 1368.7 3568.83C1396.49 3650.04 1502.43 3637.95 1504.05 3713.21C1505.68 3788.47 1434.75 3886.1 1514.52 3922.19C1594.29 3958.29 1540.15 4032.1 1567.22 4099.78C1594.29 4167.46 1777.65 4159.88 1777.65 4159.88Z" fill="#E6E6E6"/>
<path d="M1613.96 1550.07H1072.36V2912.45H1613.96V1550.07Z" fill="#E0E0E0"/>
<path d="M1723.51 1550.07H1148.7V2912.45H1723.51V1550.07Z" fill="#F0F0F0"/>
<path d="M1635.98 2824.93V1637.6H1236.23V2824.93H1635.98Z" fill="#FAFAFA"/>
<path d="M4511.8 6723.66C6444.33 6723.66 8010.97 6632.19 8010.97 6519.37C8010.97 6406.54 6444.33 6315.07 4511.8 6315.07C2579.26 6315.07 1012.63 6406.54 1012.63 6519.37C1012.63 6632.19 2579.26 6723.66 4511.8 6723.66Z" fill="#F5F5F5"/>
<path d="M6617.18 2533.64C6614.29 2584.36 6608.16 2630.92 6601.3 2679.29C6594.44 2727.65 6584.52 2774.57 6574.05 2821.86C6552.56 2918.33 6520.68 3012.18 6478.94 3101.77C6464.2 3129.94 6443.95 3154.86 6419.38 3175.04C6399.21 3192.21 6377.73 3207.77 6355.14 3221.6C6312.98 3247.43 6269.01 3270.17 6223.57 3289.64C6135.37 3327.45 6044.38 3358.4 5951.42 3382.22L5929.04 3315.27C5970.55 3297.22 6013.14 3277.19 6054.29 3256.8C6095.44 3236.4 6136.58 3215.83 6175.93 3193.45C6214.82 3172.13 6252.37 3148.45 6288.36 3122.52C6304.94 3110.63 6320.62 3097.54 6335.28 3083.36C6346.5 3073.1 6355.73 3060.86 6362.54 3047.27C6379.02 3006.9 6393.18 2965.63 6404.95 2923.64C6416.5 2880.51 6427.14 2837.02 6436.17 2792.8C6445.19 2748.59 6452.41 2703.83 6458.91 2658.89C6465.4 2613.95 6470.64 2568.66 6474.61 2525.34L6617.18 2533.64Z" fill="#E58A7B"/>
<path d="M6519.91 2364.18C6462.34 2378.8 6422.09 2615.76 6422.09 2615.76L6580.73 2724.04C6580.73 2724.04 6732.86 2485.1 6689.01 2421.93C6642.45 2354.62 6604.01 2341.98 6519.91 2364.18Z" fill="#7E57C2"/>
<path opacity="0.5" d="M6519.91 2364.18C6462.34 2378.8 6422.09 2615.76 6422.09 2615.76L6580.73 2724.04C6580.73 2724.04 6732.86 2485.1 6689.01 2421.93C6642.45 2354.62 6604.01 2341.98 6519.91 2364.18Z" fill="black"/>
<path d="M6525.14 2416.34L6480.92 2655.1L6570.08 2715.56L6525.14 2416.34Z" fill="#7E57C2"/>
<path opacity="0.7" d="M6525.14 2416.34L6480.92 2655.1L6570.08 2715.56L6525.14 2416.34Z" fill="black"/>
<path d="M5961.71 3311.66L5862.63 3211.32L5849.63 3352.81C5849.63 3352.81 5923.81 3402.98 5975.96 3376.09L5961.71 3311.66Z" fill="#E58A7B"/>
<path d="M5746.04 3196.34L5741.53 3315.27L5849.63 3352.81L5862.63 3211.32L5746.04 3196.34Z" fill="#E58A7B"/>
<path d="M6831.4 6350.44H6691.72L6682.33 6027.04H6822.02L6831.4 6350.44Z" fill="#E58A7B"/>
<path d="M8063.84 5701.83L7957.37 5792.24L7713.73 5574.78L7820.21 5484.36L8063.84 5701.83Z" fill="#E58A7B"/>
<path d="M7928.31 5781.42L8031 5663.21C8032.7 5661.11 8035.13 5659.73 8037.8 5659.32C8040.47 5658.92 8043.19 5659.54 8045.44 5661.04L8150.65 5729.26C8153.24 5731.06 8155.43 5733.4 8157.05 5736.11C8158.68 5738.81 8159.71 5741.84 8160.09 5744.97C8160.46 5748.11 8160.17 5751.29 8159.23 5754.3C8158.29 5757.32 8156.72 5760.1 8154.62 5762.47C8118.53 5803.07 8098.13 5820.76 8052.83 5872.73C8024.86 5904.68 7987.32 5954.31 7948.88 5999.07C7910.44 6043.82 7864.6 6007.37 7876.69 5985.53C7930.84 5887.71 7917.84 5853.24 7918.74 5805.06C7918.95 5796.28 7922.35 5787.87 7928.31 5781.42Z" fill="#263238"/>
<path d="M6686.84 6334.56H6843.85C6846.56 6334.53 6849.19 6335.49 6851.24 6337.25C6853.3 6339 6854.65 6341.45 6855.04 6344.13L6873.09 6468.29C6873.42 6471.42 6873.09 6474.59 6872.11 6477.58C6871.13 6480.57 6869.54 6483.32 6867.43 6485.66C6865.31 6487.99 6862.73 6489.85 6859.85 6491.12C6856.97 6492.39 6853.86 6493.03 6850.71 6493.02C6796.57 6493.02 6769.5 6488.87 6700.56 6488.87C6658.15 6488.87 6570.26 6493.38 6511.79 6493.38C6453.31 6493.38 6449.88 6435.27 6474.43 6430.03C6583.79 6406.57 6626.93 6374.09 6663.74 6343.04C6670.26 6337.69 6678.41 6334.7 6686.84 6334.56Z" fill="#263238"/>
<path d="M6682.33 6027.22L6687.2 6193.97H6826.89L6822.2 6027.22H6682.33Z" fill="#CF6F64"/>
<path d="M7820.39 5484.36L7713.91 5574.78L7839.52 5686.85L7946 5596.43L7820.39 5484.36Z" fill="#CF6F64"/>
<path d="M6519.91 2364.18C6519.91 2364.18 6453.49 2387.64 6586.68 3207.17H7153.9C7144.34 2976.34 7144.16 2833.95 7254.43 2360.03C7175.06 2343.54 7094.6 2332.86 7013.68 2328.09C6927.89 2321.85 6841.76 2321.85 6755.96 2328.09C6645.33 2337.83 6519.91 2364.18 6519.91 2364.18Z" fill="#7E57C2"/>
<path opacity="0.5" d="M6519.91 2364.18C6519.91 2364.18 6453.49 2387.64 6586.68 3207.17H7153.9C7144.34 2976.34 7144.16 2833.95 7254.43 2360.03C7175.06 2343.54 7094.6 2332.86 7013.68 2328.09C6927.89 2321.85 6841.76 2321.85 6755.96 2328.09C6645.33 2337.83 6519.91 2364.18 6519.91 2364.18Z" fill="black"/>
<path d="M6839.88 2386.92L6891.14 2491.59C6891.14 2491.59 7106.08 2425.9 7077.93 2331.34L7005.74 2323.03L6839.88 2386.92Z" fill="#7E57C2"/>
<path opacity="0.6" d="M6839.88 2386.92L6891.14 2491.59C6891.14 2491.59 7106.08 2425.9 7077.93 2331.34L7005.74 2323.03L6839.88 2386.92Z" fill="#FAFAFA"/>
<path d="M6835.91 2377.18L6763.72 2484.01C6763.72 2484.01 6610.68 2417.6 6716.26 2328.27L6761.2 2323.03L6835.91 2377.18Z" fill="#7E57C2"/>
<path opacity="0.6" d="M6835.91 2377.18L6763.72 2484.01C6763.72 2484.01 6610.68 2417.6 6716.26 2328.27L6761.2 2323.03L6835.91 2377.18Z" fill="#FAFAFA"/>
<path d="M7066.38 1606.2C7132.61 1542.49 7069.08 1243.09 7243.42 1342.17C7465.04 1468.5 7608.15 1303.19 7534.16 1240.38C7689.73 1251.39 7674.57 1428.43 7609.78 1523.54C7445.37 1765.56 7113.66 1535.45 7111.67 1658.36C7109.69 1781.26 7066.38 1606.2 7066.38 1606.2Z" fill="#263238"/>
<path d="M6970.73 1563.07C7046.7 1502.97 7306.22 1552.96 7128.28 1794.97L6970.73 1563.07Z" fill="#7E57C2"/>
<path opacity="0.3" d="M6970.73 1563.07C7046.7 1502.97 7306.22 1552.96 7128.28 1794.97L6970.73 1563.07Z" fill="black"/>
<path d="M7010.79 1675.5C7232.05 1708.53 7247.57 2068.03 6904.13 2123.79L7010.79 1675.5Z" fill="#263238"/>
<path d="M6988.05 2037.71C6971.81 2120.54 6955.57 2272.32 7013.68 2327.73C7013.68 2327.73 6990.94 2411.65 6837 2411.65C6667.71 2411.65 6755.96 2327.73 6755.96 2327.73C6848.37 2305.53 6846.2 2237.49 6829.96 2172.7L6988.05 2037.71Z" fill="#E58A7B"/>
<path d="M6923.62 2093.47L6829.96 2173.24C6834.07 2188.23 6836.73 2203.58 6837.9 2219.08C6873.99 2213.85 6921.82 2175.05 6925.61 2138.23C6927.68 2123.32 6927.01 2108.15 6923.62 2093.47Z" fill="#CF6F64"/>
<path d="M6638.84 1941.7C6562.5 1843.34 6463.06 1589.6 6760.66 1565.23L6638.84 1941.7Z" fill="#263238"/>
<path d="M6982.46 1826.19C7000.5 1963.71 7011.33 2021.47 6956.47 2104.48C6873.99 2229.55 6701.1 2222.15 6642.27 2092.93C6589.03 1976.71 6568.09 1771.51 6690.27 1691.38C6717.15 1673.58 6748.14 1662.94 6780.28 1660.48C6812.43 1658.03 6844.67 1663.82 6873.95 1677.33C6903.22 1690.84 6928.56 1711.61 6947.55 1737.66C6966.54 1763.71 6978.56 1794.19 6982.46 1826.19Z" fill="#E58A7B"/>
<path d="M6587.22 3206.44C6587.22 3206.44 6477.13 4282.24 6486.16 4708.15C6495.72 5151.21 6658.15 6161.67 6658.15 6161.67H6846.92C6846.92 6161.67 6816.96 5177.02 6833.75 4742.08C6851.79 4267.62 7002.67 3206.44 7002.67 3206.44H6587.22Z" fill="#7E57C2"/>
<path opacity="0.6" d="M6587.22 3206.44C6587.22 3206.44 6477.13 4282.24 6486.16 4708.15C6495.72 5151.21 6658.15 6161.67 6658.15 6161.67H6846.92C6846.92 6161.67 6816.96 5177.02 6833.75 4742.08C6851.79 4267.62 7002.67 3206.44 7002.67 3206.44H6587.22Z" fill="#FAFAFA"/>
<path d="M6862.8 6168.35H6641.18L6624.94 6097.78L6873.09 6089.12L6862.8 6168.35Z" fill="#7E57C2"/>
<path opacity="0.4" d="M6862.8 6168.35H6641.18L6624.94 6097.78L6873.09 6089.12L6862.8 6168.35Z" fill="#FAFAFA"/>
<path d="M6831.4 3474.08C6692.08 3754.36 6803.43 4265.63 6852.7 4455.85C6877.96 4170.16 6920.55 3820.95 6953.76 3564.5C6932.65 3419.4 6895.65 3344.87 6831.4 3474.08Z" fill="#7E57C2"/>
<path opacity="0.4" d="M6831.4 3474.08C6692.08 3754.36 6803.43 4265.63 6852.7 4455.85C6877.96 4170.16 6920.55 3820.95 6953.76 3564.5C6932.65 3419.4 6895.65 3344.87 6831.4 3474.08Z" fill="#FAFAFA"/>
<path d="M6736.47 3206.44C6736.47 3206.44 6864.97 4325.37 6962.06 4683.97C7077.2 5110.42 7792.23 5684.14 7792.23 5684.14L7937.51 5560.7C7937.51 5560.7 7418.84 4937.53 7330.77 4712.48C7142.72 4233.15 7303.7 3518.84 7153.36 3206.08L6736.47 3206.44Z" fill="#7E57C2"/>
<path opacity="0.6" d="M6736.47 3206.44C6736.47 3206.44 6864.97 4325.37 6962.06 4683.97C7077.2 5110.42 7792.23 5684.14 7792.23 5684.14L7937.51 5560.7C7937.51 5560.7 7418.84 4937.53 7330.77 4712.48C7142.72 4233.15 7303.7 3518.84 7153.36 3206.08L6736.47 3206.44Z" fill="#FAFAFA"/>
<path d="M7961.16 5554.2L7781.04 5707.06L7713.91 5666.82L7917.48 5477.32L7961.16 5554.2Z" fill="#7E57C2"/>
<path opacity="0.4" d="M7961.16 5554.2L7781.04 5707.06L7713.91 5666.82L7917.48 5477.32L7961.16 5554.2Z" fill="#FAFAFA"/>
<path d="M6783.94 1904.7C6786.1 1915.71 6781.95 1925.82 6774.73 1927.26C6767.51 1928.7 6759.93 1920.76 6757.77 1909.21C6755.6 1897.66 6759.75 1888.1 6766.97 1886.65C6774.19 1885.21 6781.77 1893.51 6783.94 1904.7Z" fill="#263238"/>
<path d="M6659.41 1929.24C6661.58 1940.25 6657.43 1950.36 6650.21 1951.8C6642.99 1953.25 6635.41 1945.31 6633.24 1933.76C6631.08 1922.21 6635.05 1912.64 6642.27 1911.2C6649.49 1909.75 6656.88 1918.05 6659.41 1929.24Z" fill="#263238"/>
<path d="M6645.33 1911.74L6617.18 1909.21C6617.18 1909.21 6634.87 1927.26 6645.33 1911.74Z" fill="#263238"/>
<path d="M6695.51 1941.7C6690.63 1968.84 6682.07 1995.19 6670.06 2020.02C6676.45 2022.97 6683.41 2024.49 6690.45 2024.49C6697.49 2024.49 6704.45 2022.97 6710.85 2020.02L6695.51 1941.7Z" fill="#DF5753"/>
<path d="M6757.95 2055.57C6757.09 2055.57 6756.26 2055.23 6755.65 2054.62C6755.04 2054.01 6754.7 2053.19 6754.7 2052.33C6754.7 2051.46 6755.04 2050.64 6755.65 2050.03C6756.26 2049.42 6757.09 2049.08 6757.95 2049.08C6771.76 2046.67 6784.81 2041.03 6796.04 2032.62C6807.27 2024.22 6816.35 2013.29 6822.56 2000.71C6822.72 2000.31 6822.97 1999.94 6823.28 1999.63C6823.58 1999.32 6823.95 1999.08 6824.35 1998.91C6824.75 1998.74 6825.18 1998.66 6825.62 1998.66C6826.06 1998.66 6826.49 1998.74 6826.89 1998.91C6827.29 1999.07 6827.66 1999.32 6827.97 1999.62C6828.28 1999.93 6828.52 2000.3 6828.69 2000.7C6828.86 2001.1 6828.94 2001.53 6828.94 2001.97C6828.95 2002.4 6828.86 2002.84 6828.69 2003.24C6822.16 2016.89 6812.43 2028.78 6800.34 2037.89C6788.25 2047 6774.14 2053.06 6759.21 2055.57H6757.95Z" fill="#263238"/>
<path d="M6641.36 1740.11C6641.36 1740.11 6758.85 1918.24 6975.42 1941.7C6975.42 1941.7 7199.02 1738.67 7061.5 1597.9C6838.8 1370.14 6573.15 1660.34 6641.36 1740.11Z" fill="#263238"/>
<path d="M7029.56 1932.49C7029.27 1945.75 7026.34 1958.82 7020.95 1970.93C7015.56 1983.04 7007.81 1993.97 6998.16 2003.06C6972.17 2027.42 6942.93 2008.11 6936.44 1975.08C6930.66 1945.31 6936.44 1896.94 6969.82 1884.85C6977.03 1882.43 6984.72 1881.85 6992.21 1883.17C6999.69 1884.49 7006.72 1887.67 7012.66 1892.4C7018.61 1897.14 7023.26 1903.29 7026.22 1910.3C7029.17 1917.3 7030.32 1924.93 7029.56 1932.49Z" fill="#E58A7B"/>
<path d="M6812.45 1857.06C6810.8 1857.07 6809.2 1856.5 6807.94 1855.43C6801.9 1849.73 6794.6 1845.54 6786.64 1843.19C6778.67 1840.84 6770.27 1840.39 6762.1 1841.9C6761.26 1842.14 6760.38 1842.21 6759.51 1842.11C6758.64 1842 6757.8 1841.72 6757.04 1841.28C6756.28 1840.84 6755.62 1840.26 6755.09 1839.56C6754.57 1838.85 6754.19 1838.05 6753.98 1837.2C6753.54 1835.5 6753.78 1833.7 6754.66 1832.18C6755.54 1830.66 6756.98 1829.55 6758.67 1829.08C6768.96 1826.97 6779.61 1827.36 6789.73 1830.22C6799.84 1833.08 6809.12 1838.32 6816.78 1845.51C6818.02 1846.75 6818.71 1848.44 6818.71 1850.2C6818.71 1851.95 6818.02 1853.64 6816.78 1854.89C6815.67 1856.14 6814.12 1856.92 6812.45 1857.06Z" fill="#263238"/>
<path d="M6589.75 1882.86C6588.92 1883.05 6588.05 1883.05 6587.22 1882.86C6586.41 1882.55 6585.66 1882.07 6585.03 1881.46C6584.4 1880.84 6583.91 1880.11 6583.57 1879.3C6583.23 1878.49 6583.06 1877.62 6583.07 1876.75C6583.08 1875.87 6583.26 1875 6583.61 1874.2C6587.41 1864.41 6593.51 1855.67 6601.4 1848.73C6609.28 1841.79 6618.72 1836.85 6628.91 1834.32C6629.76 1834.13 6630.63 1834.13 6631.47 1834.29C6632.32 1834.46 6633.12 1834.8 6633.83 1835.29C6634.54 1835.78 6635.15 1836.41 6635.6 1837.15C6636.06 1837.88 6636.36 1838.7 6636.49 1839.55C6636.67 1840.4 6636.68 1841.29 6636.52 1842.14C6636.35 1843 6636.01 1843.82 6635.53 1844.54C6635.04 1845.27 6634.41 1845.89 6633.67 1846.36C6632.94 1846.84 6632.12 1847.16 6631.26 1847.31C6623.14 1849.39 6615.63 1853.38 6609.36 1858.93C6603.08 1864.48 6598.22 1871.45 6595.16 1879.25C6594.66 1880.28 6593.89 1881.15 6592.94 1881.79C6591.99 1882.42 6590.89 1882.79 6589.75 1882.86Z" fill="#263238"/>
<path d="M7453.49 3055.93V3039.87C7453.49 3018.21 7450.42 2997.46 7448.25 2976.52C7437.32 2895.47 7420.07 2815.4 7396.64 2737.04C7373.98 2659.43 7346.99 2583.15 7315.79 2508.56L7182.78 2562.7C7209.67 2632.36 7235.12 2705.81 7258.4 2778C7269.59 2814.1 7280.23 2850.19 7289.44 2886.29C7298.64 2922.38 7307.49 2958.48 7313.8 2994.57L7317.59 3018.57C7305.14 3014.42 7292.33 3009.91 7279.33 3004.5C7211.11 2976.7 7141.45 2940.61 7072.69 2905.96L7032.81 2964.25C7093.99 3017.39 7159.97 3064.76 7229.88 3105.74C7248.67 3116.62 7268.14 3126.26 7288.18 3134.62C7299.41 3139.49 7311 3143.53 7322.83 3146.71C7329.87 3148.7 7337.05 3150.21 7344.3 3151.22C7353.95 3152.45 7363.71 3152.45 7373.36 3151.22C7389.28 3149.82 7404.51 3144.07 7417.39 3134.62C7433.43 3122.7 7444.74 3105.51 7449.34 3086.07C7452.07 3076.26 7453.47 3066.12 7453.49 3055.93ZM7356.39 3029.04H7359.64C7361.63 3028.86 7359.1 3029.22 7355.49 3029.04H7356.39Z" fill="#E58A7B"/>
<path d="M7254.97 2359.31C7311.82 2377.36 7380.04 2572.27 7380.04 2572.27L7159.68 2730C7159.68 2730 7079.19 2566.67 7103.19 2493.22C7127.37 2416.7 7189.64 2339.64 7254.97 2359.31Z" fill="#7E57C2"/>
<path opacity="0.5" d="M7254.97 2359.31C7311.82 2377.36 7380.04 2572.27 7380.04 2572.27L7159.68 2730C7159.68 2730 7079.19 2566.67 7103.19 2493.22C7127.37 2416.7 7189.64 2339.64 7254.97 2359.31Z" fill="black"/>
<path d="M7890.05 5848.73C7887.17 5848.65 7884.35 5847.93 7881.79 5846.62C7879.23 5845.31 7877 5843.44 7875.25 5841.15C7873.87 5839.72 7872.91 5837.94 7872.47 5836C7872.02 5834.06 7872.11 5832.04 7872.72 5830.14C7877.78 5813 7926.87 5799.1 7931.74 5797.66C7932.38 5797.47 7933.06 5797.47 7933.7 5797.66C7934.35 5797.85 7934.92 5798.23 7935.35 5798.74C7935.66 5799.29 7935.83 5799.91 7935.83 5800.55C7935.83 5801.18 7935.66 5801.8 7935.35 5802.35C7926.68 5818.77 7909.36 5846.57 7891.85 5848.73H7890.05ZM7926.14 5806.32C7906.83 5812.46 7881.93 5823.11 7879.22 5832.13C7878.94 5832.95 7878.91 5833.83 7879.13 5834.67C7879.36 5835.51 7879.83 5836.26 7880.48 5836.82C7881.72 5838.61 7883.41 5840.03 7885.37 5840.95C7887.34 5841.87 7889.51 5842.25 7891.67 5842.05C7900.88 5840.97 7913.51 5827.8 7925.96 5806.32H7926.14Z" fill="#7E57C2"/>
<path d="M7910.62 5806.86C7896.19 5808.35 7881.74 5804.29 7870.2 5795.49C7868.53 5793.46 7867.61 5790.91 7867.61 5788.27C7867.61 5785.64 7868.53 5783.09 7870.2 5781.05C7871.63 5778.99 7873.48 5777.26 7875.62 5775.95C7877.77 5774.65 7880.16 5773.8 7882.65 5773.48C7902.5 5771.13 7933.18 5797.12 7934.45 5798.38C7934.91 5798.72 7935.27 5799.2 7935.46 5799.75C7935.65 5800.29 7935.68 5800.89 7935.53 5801.45C7935.45 5802.03 7935.2 5802.58 7934.82 5803.03C7934.43 5803.48 7933.93 5803.81 7933.36 5803.98C7925.96 5806.05 7918.3 5807.02 7910.62 5806.86ZM7886.08 5779.79H7883.91C7882.31 5779.97 7880.77 5780.5 7879.4 5781.35C7878.03 5782.19 7876.86 5783.32 7875.97 5784.66C7873.63 5788.09 7874.53 5790.08 7875.97 5791.34C7881.93 5799.1 7909.36 5801.99 7926.14 5799.1C7914.9 5789.3 7901.26 5782.64 7886.62 5779.79H7886.08Z" fill="#7E57C2"/>
<path d="M6634.51 6358.75C6622.54 6359.84 6610.56 6356.78 6600.58 6350.08C6598.33 6348.11 6596.61 6345.61 6595.57 6342.8C6594.53 6340 6594.21 6336.98 6594.62 6334.02C6594.73 6332.19 6595.3 6330.43 6596.28 6328.88C6597.26 6327.33 6598.61 6326.06 6600.22 6325.18C6617.36 6315.97 6672.41 6344.31 6679.26 6347.56C6679.88 6347.88 6680.37 6348.38 6680.7 6348.99C6681.02 6349.6 6681.15 6350.3 6681.07 6350.99C6681 6351.65 6680.72 6352.27 6680.26 6352.76C6679.8 6353.25 6679.2 6353.58 6678.54 6353.69C6664.06 6356.82 6649.32 6358.51 6634.51 6358.75ZM6609.6 6329.87C6607.48 6329.74 6605.36 6330.17 6603.47 6331.13C6602.82 6331.44 6602.27 6331.93 6601.89 6332.53C6601.5 6333.14 6601.3 6333.84 6601.3 6334.56C6600.95 6336.51 6601.11 6338.52 6601.78 6340.39C6602.44 6342.26 6603.58 6343.92 6605.09 6345.21C6613.57 6352.79 6636.49 6354.23 6667.53 6349C6649.45 6339.38 6629.86 6332.91 6609.6 6329.87Z" fill="#7E57C2"/>
<path d="M6677.46 6353.87H6676.02C6659.41 6346.29 6626.57 6316.33 6629.09 6299.73C6629.09 6295.94 6632.34 6291.25 6641.54 6290.35C6644.79 6289.99 6648.07 6290.32 6651.18 6291.32C6654.29 6292.31 6657.16 6293.95 6659.59 6296.12C6677.64 6310.74 6680.53 6348.28 6680.53 6350.26C6680.62 6350.82 6680.55 6351.38 6680.32 6351.89C6680.1 6352.41 6679.73 6352.84 6679.26 6353.15C6678.76 6353.58 6678.12 6353.83 6677.46 6353.87ZM6644.25 6297.2H6642.27C6636.13 6297.2 6635.77 6300.09 6635.59 6301C6634.15 6310.38 6656.34 6334.2 6673.31 6344.49C6672.05 6328.55 6665.72 6313.44 6655.26 6301.36C6652.25 6298.86 6648.52 6297.4 6644.61 6297.2H6644.25Z" fill="#7E57C2"/>
<path d="M7092.54 2922.02L7045.62 2778.54L6970.91 2899.28C6970.91 2899.28 7014.94 2977.42 7073.05 2976.16L7092.54 2922.02Z" fill="#E58A7B"/>
<path d="M6947.62 2713.21L6890.6 2817.71L6970.36 2899.28L7045.08 2778.54L6947.62 2713.21Z" fill="#E58A7B"/>
<path d="M6770.22 1887.19L6742.25 1884.67C6742.25 1884.67 6759.93 1902.72 6770.22 1887.19Z" fill="#263238"/>
<path d="M7162.39 3173.06L7177 3223.95C7178.99 3227.74 7174.3 3231.89 7167.62 3231.89H6583.97C6578.74 3231.89 6574.59 3229.36 6574.23 3226.12L6569.18 3176.3C6569.18 3172.7 6573.15 3169.81 6578.74 3169.81H7153.18C7154.87 3169.54 7156.59 3169.7 7158.19 3170.27C7159.8 3170.84 7161.24 3171.8 7162.39 3173.06Z" fill="#263238"/>
<path d="M7085.33 3237.3H7100.67C7103.73 3237.3 7106.08 3235.68 7105.9 3233.88L7098.68 3167.82C7098.68 3165.84 7095.79 3164.39 7092.72 3164.39H7077.38C7074.32 3164.39 7071.97 3165.84 7072.15 3167.82L7079.37 3233.88C7079.55 3235.68 7082.26 3237.3 7085.33 3237.3Z" fill="#7E57C2"/>
<path opacity="0.6" d="M7085.33 3237.3H7100.67C7103.73 3237.3 7106.08 3235.68 7105.9 3233.88L7098.68 3167.82C7098.68 3165.84 7095.79 3164.39 7092.72 3164.39H7077.38C7074.32 3164.39 7071.97 3165.84 7072.15 3167.82L7079.37 3233.88C7079.55 3235.68 7082.26 3237.3 7085.33 3237.3Z" fill="#FAFAFA"/>
<path d="M6627.11 3237.3H6642.45C6645.51 3237.3 6647.86 3235.68 6647.68 3233.88L6640.46 3167.82C6640.46 3165.84 6637.57 3164.39 6634.51 3164.39H6619.17C6616.1 3164.39 6613.75 3165.84 6613.93 3167.82L6621.15 3233.88C6621.33 3235.68 6623.32 3237.3 6627.11 3237.3Z" fill="#7E57C2"/>
<path opacity="0.6" d="M6627.11 3237.3H6642.45C6645.51 3237.3 6647.86 3235.68 6647.68 3233.88L6640.46 3167.82C6640.46 3165.84 6637.57 3164.39 6634.51 3164.39H6619.17C6616.1 3164.39 6613.75 3165.84 6613.93 3167.82L6621.15 3233.88C6621.33 3235.68 6623.32 3237.3 6627.11 3237.3Z" fill="#FAFAFA"/>
<path d="M6856.13 3237.3H6871.65C6874.71 3237.3 6877.06 3235.68 6876.7 3233.88L6869.48 3167.82C6869.48 3165.84 6866.59 3164.39 6863.52 3164.39H6848.18C6845.12 3164.39 6842.77 3165.84 6842.95 3167.82L6850.17 3233.88C6850.66 3235.01 6851.51 3235.95 6852.58 3236.57C6853.65 3237.19 6854.9 3237.45 6856.13 3237.3Z" fill="#7E57C2"/>
<path opacity="0.6" d="M6856.13 3237.3H6871.65C6874.71 3237.3 6877.06 3235.68 6876.7 3233.88L6869.48 3167.82C6869.48 3165.84 6866.59 3164.39 6863.52 3164.39H6848.18C6845.12 3164.39 6842.77 3165.84 6842.95 3167.82L6850.17 3233.88C6850.66 3235.01 6851.51 3235.95 6852.58 3236.57C6853.65 3237.19 6854.9 3237.45 6856.13 3237.3Z" fill="#FAFAFA"/>
<path d="M5045.99 6519.37H6239.81C6267.66 6519.69 6295.27 6514.19 6320.86 6503.22C6346.46 6492.25 6369.48 6476.04 6388.44 6455.65C6407.41 6435.26 6421.9 6411.13 6430.99 6384.8C6440.08 6358.48 6443.56 6330.55 6441.22 6302.8L6155.71 2219.8C6150.76 2161.42 6124.32 2106.95 6081.51 2066.94C6038.7 2026.94 5982.57 2004.24 5923.99 2003.24H4730.17C4702.32 2002.91 4674.71 2008.41 4649.12 2019.39C4623.52 2030.36 4600.51 2046.56 4581.54 2066.95C4562.58 2087.34 4548.08 2111.48 4538.99 2137.8C4529.9 2164.12 4526.42 2192.05 4528.76 2219.8L4814.27 6302.98C4819.26 6361.33 4845.72 6415.76 4888.52 6455.73C4931.33 6495.7 4987.44 6518.37 5045.99 6519.37Z" fill="#7E57C2"/>
<path opacity="0.2" d="M5045.99 6519.37H6239.81C6267.66 6519.69 6295.27 6514.19 6320.86 6503.22C6346.46 6492.25 6369.48 6476.04 6388.44 6455.65C6407.41 6435.26 6421.9 6411.13 6430.99 6384.8C6440.08 6358.48 6443.56 6330.55 6441.22 6302.8L6155.71 2219.8C6150.76 2161.42 6124.32 2106.95 6081.51 2066.94C6038.7 2026.94 5982.57 2004.24 5923.99 2003.24H4730.17C4702.32 2002.91 4674.71 2008.41 4649.12 2019.39C4623.52 2030.36 4600.51 2046.56 4581.54 2066.95C4562.58 2087.34 4548.08 2111.48 4538.99 2137.8C4529.9 2164.12 4526.42 2192.05 4528.76 2219.8L4814.27 6302.98C4819.26 6361.33 4845.72 6415.76 4888.52 6455.73C4931.33 6495.7 4987.44 6518.37 5045.99 6519.37Z" fill="black"/>
<path d="M4415.37 3478.81L4397.37 3480.07L4417.26 3764.52L4435.26 3763.27L4415.37 3478.81Z" fill="#7E57C2"/>
<path opacity="0.5" d="M4415.37 3478.81L4397.37 3480.07L4417.26 3764.52L4435.26 3763.27L4415.37 3478.81Z" fill="black"/>
<path d="M4889.7 6519.37H6083.35C6111.19 6519.69 6138.8 6514.19 6164.39 6503.22C6189.99 6492.25 6213.01 6476.04 6231.97 6455.65C6250.94 6435.26 6265.43 6411.13 6274.52 6384.8C6283.61 6358.48 6287.09 6330.55 6284.75 6302.8L5999.25 2219.8C5994.29 2161.42 5967.85 2106.95 5925.04 2066.94C5882.24 2026.94 5826.1 2004.24 5767.52 2003.24H4573.88C4546.03 2002.91 4518.43 2008.41 4492.83 2019.39C4467.24 2030.36 4444.22 2046.56 4425.25 2066.95C4406.29 2087.34 4391.8 2111.48 4382.71 2137.8C4373.62 2164.12 4370.13 2192.05 4372.47 2219.8L4657.98 6302.8C4662.93 6361.18 4689.37 6415.65 4732.18 6455.66C4774.99 6495.67 4831.12 6518.37 4889.7 6519.37Z" fill="#7E57C2"/>
<path opacity="0.5" d="M4889.7 6519.37H6083.35C6111.19 6519.69 6138.8 6514.19 6164.39 6503.22C6189.99 6492.25 6213.01 6476.04 6231.97 6455.65C6250.94 6435.26 6265.43 6411.13 6274.52 6384.8C6283.61 6358.48 6287.09 6330.55 6284.75 6302.8L5999.25 2219.8C5994.29 2161.42 5967.85 2106.95 5925.04 2066.94C5882.24 2026.94 5826.1 2004.24 5767.52 2003.24H4573.88C4546.03 2002.91 4518.43 2008.41 4492.83 2019.39C4467.24 2030.36 4444.22 2046.56 4425.25 2066.95C4406.29 2087.34 4391.8 2111.48 4382.71 2137.8C4373.62 2164.12 4370.13 2192.05 4372.47 2219.8L4657.98 6302.8C4662.93 6361.18 4689.37 6415.65 4732.18 6455.66C4774.99 6495.67 4831.12 6518.37 4889.7 6519.37Z" fill="black"/>
<path d="M5111.32 3303.72H5332.22C5337.42 3303.93 5342.6 3303.02 5347.42 3301.04C5352.23 3299.07 5356.56 3296.07 5360.11 3292.27C5363.65 3288.46 5366.34 3283.94 5367.97 3279C5369.61 3274.06 5370.16 3268.82 5369.58 3263.65L5316.7 2507.48C5315.8 2496.65 5310.91 2486.55 5302.97 2479.14C5295.02 2471.74 5284.61 2467.55 5273.75 2467.41H5053.21C5048.03 2467.22 5042.87 2468.16 5038.07 2470.14C5033.28 2472.13 5028.98 2475.13 5025.45 2478.93C5021.92 2482.73 5019.25 2487.25 5017.63 2492.18C5016 2497.1 5015.46 2502.32 5016.04 2507.48L5068.91 3263.65C5069.8 3274.38 5074.62 3284.41 5082.45 3291.81C5090.28 3299.2 5100.56 3303.44 5111.32 3303.72Z" fill="#7E57C2"/>
<path opacity="0.2" d="M5111.32 3303.72H5332.22C5337.42 3303.93 5342.6 3303.02 5347.42 3301.04C5352.23 3299.07 5356.56 3296.07 5360.11 3292.27C5363.65 3288.46 5366.34 3283.94 5367.97 3279C5369.61 3274.06 5370.16 3268.82 5369.58 3263.65L5316.7 2507.48C5315.8 2496.65 5310.91 2486.55 5302.97 2479.14C5295.02 2471.74 5284.61 2467.55 5273.75 2467.41H5053.21C5048.03 2467.22 5042.87 2468.16 5038.07 2470.14C5033.28 2472.13 5028.98 2475.13 5025.45 2478.93C5021.92 2482.73 5019.25 2487.25 5017.63 2492.18C5016 2497.1 5015.46 2502.32 5016.04 2507.48L5068.91 3263.65C5069.8 3274.38 5074.62 3284.41 5082.45 3291.81C5090.28 3299.2 5100.56 3303.44 5111.32 3303.72Z" fill="black"/>
<path d="M3758.33 6519.37H2564.5C2536.66 6519.69 2509.05 6514.19 2483.46 6503.22C2457.86 6492.25 2434.84 6476.04 2415.88 6455.65C2396.91 6435.26 2382.42 6411.13 2373.33 6384.8C2364.24 6358.48 2360.76 6330.55 2363.1 6302.8L2648.6 2219.8C2653.6 2161.44 2680.05 2106.99 2722.85 2066.99C2765.65 2026.99 2821.76 2004.27 2880.33 2003.24H4074.15C4102 2002.91 4129.6 2008.41 4155.2 2019.39C4180.79 2030.36 4203.81 2046.56 4222.78 2066.95C4241.74 2087.34 4256.24 2111.48 4265.32 2137.8C4274.41 2164.12 4277.9 2192.05 4275.56 2219.8L3990.05 6302.8C3985.1 6361.18 3958.66 6415.65 3915.85 6455.66C3873.04 6495.67 3816.91 6518.37 3758.33 6519.37Z" fill="#7E57C2"/>
<path opacity="0.5" d="M3758.33 6519.37H2564.5C2536.66 6519.69 2509.05 6514.19 2483.46 6503.22C2457.86 6492.25 2434.84 6476.04 2415.88 6455.65C2396.91 6435.26 2382.42 6411.13 2373.33 6384.8C2364.24 6358.48 2360.76 6330.55 2363.1 6302.8L2648.6 2219.8C2653.6 2161.44 2680.05 2106.99 2722.85 2066.99C2765.65 2026.99 2821.76 2004.27 2880.33 2003.24H4074.15C4102 2002.91 4129.6 2008.41 4155.2 2019.39C4180.79 2030.36 4203.81 2046.56 4222.78 2066.95C4241.74 2087.34 4256.24 2111.48 4265.32 2137.8C4274.41 2164.12 4277.9 2192.05 4275.56 2219.8L3990.05 6302.8C3985.1 6361.18 3958.66 6415.65 3915.85 6455.66C3873.04 6495.67 3816.91 6518.37 3758.33 6519.37Z" fill="black"/>
<path d="M3256.25 1939.89H3188.94V1957.94H3256.25V1939.89Z" fill="#7E57C2"/>
<path opacity="0.3" d="M3256.25 1939.89H3188.94V1957.94H3256.25V1939.89Z" fill="black"/>
<path d="M3068.2 1939.89H2856.51V1957.94H3068.2V1939.89Z" fill="#7E57C2"/>
<path opacity="0.3" d="M3068.2 1939.89H2856.51V1957.94H3068.2V1939.89Z" fill="black"/>
<path d="M3601.86 6519.37H2408.22C2380.37 6519.69 2352.76 6514.19 2327.17 6503.22C2301.57 6492.25 2278.55 6476.04 2259.59 6455.65C2240.63 6435.26 2226.13 6411.13 2217.04 6384.8C2207.95 6358.48 2204.47 6330.55 2206.81 6302.8L2492.32 2219.8C2497.27 2161.42 2523.71 2106.95 2566.52 2066.94C2609.33 2026.93 2665.46 2004.23 2724.04 2003.24H3917.68C3945.53 2002.91 3973.14 2008.41 3998.73 2019.39C4024.33 2030.36 4047.34 2046.56 4066.31 2066.95C4085.27 2087.34 4099.77 2111.48 4108.86 2137.8C4117.95 2164.12 4121.43 2192.05 4119.09 2219.8L3833.58 6302.8C3828.63 6361.18 3802.19 6415.65 3759.38 6455.66C3716.57 6495.67 3660.44 6518.37 3601.86 6519.37Z" fill="#7E57C2"/>
<path opacity="0.3" d="M3601.86 6519.37H2408.22C2380.37 6519.69 2352.76 6514.19 2327.17 6503.22C2301.57 6492.25 2278.55 6476.04 2259.59 6455.65C2240.63 6435.26 2226.13 6411.13 2217.04 6384.8C2207.95 6358.48 2204.47 6330.55 2206.81 6302.8L2492.32 2219.8C2497.27 2161.42 2523.71 2106.95 2566.52 2066.94C2609.33 2026.93 2665.46 2004.23 2724.04 2003.24H3917.68C3945.53 2002.91 3973.14 2008.41 3998.73 2019.39C4024.33 2030.36 4047.34 2046.56 4066.31 2066.95C4085.27 2087.34 4099.77 2111.48 4108.86 2137.8C4117.95 2164.12 4121.43 2192.05 4119.09 2219.8L3833.58 6302.8C3828.63 6361.18 3802.19 6415.65 3759.38 6455.66C3716.57 6495.67 3660.44 6518.37 3601.86 6519.37Z" fill="black"/>
<path d="M3780.89 6284.39H2209.16C2205.39 6284.37 2201.66 6283.59 2198.21 6282.08C2194.76 6280.57 2191.65 6278.37 2189.08 6275.61C2186.51 6272.85 2184.53 6269.6 2183.27 6266.05C2182 6262.5 2181.48 6258.73 2181.72 6254.97L2459.83 2277.55C2460.33 2270.58 2463.46 2264.06 2468.59 2259.3C2473.71 2254.54 2480.45 2251.91 2487.44 2251.93H4058.99C4062.78 2251.92 4066.52 2252.69 4069.99 2254.19C4073.47 2255.69 4076.59 2257.88 4079.18 2260.64C4081.77 2263.4 4083.77 2266.66 4085.04 2270.22C4086.32 2273.78 4086.85 2277.57 4086.6 2281.34L3807.96 6258.76C3807.5 6265.66 3804.46 6272.13 3799.44 6276.88C3794.42 6281.63 3787.8 6284.32 3780.89 6284.39Z" fill="#7E57C2"/>
<path opacity="0.9" d="M3780.89 6284.39H2209.16C2205.39 6284.37 2201.66 6283.59 2198.21 6282.08C2194.76 6280.57 2191.65 6278.37 2189.08 6275.61C2186.51 6272.85 2184.53 6269.6 2183.27 6266.05C2182 6262.5 2181.48 6258.73 2181.72 6254.97L2459.83 2277.55C2460.33 2270.58 2463.46 2264.06 2468.59 2259.3C2473.71 2254.54 2480.45 2251.91 2487.44 2251.93H4058.99C4062.78 2251.92 4066.52 2252.69 4069.99 2254.19C4073.47 2255.69 4076.59 2257.88 4079.18 2260.64C4081.77 2263.4 4083.77 2266.66 4085.04 2270.22C4086.32 2273.78 4086.85 2277.57 4086.6 2281.34L3807.96 6258.76C3807.5 6265.66 3804.46 6272.13 3799.44 6276.88C3794.42 6281.63 3787.8 6284.32 3780.89 6284.39Z" fill="#FAFAFA"/>
<path d="M3742.63 2659.07H2722.42C2694.69 2659.55 2668.12 2670.3 2647.85 2689.23C2627.58 2708.17 2615.05 2733.94 2612.69 2761.58L2506.39 4281.15C2505.28 4294.3 2506.94 4307.53 2511.25 4320C2515.56 4332.47 2522.43 4343.9 2531.42 4353.55C2540.41 4363.21 2551.33 4370.87 2563.46 4376.06C2575.59 4381.24 2588.67 4383.83 2601.86 4383.66H2672.61L2636.51 4495.01C2719.98 4487.49 2797.17 4447.51 2851.46 4383.66H3622.07C3649.8 4383.18 3676.37 4372.44 3696.64 4353.5C3716.91 4334.57 3729.43 4308.79 3731.8 4281.15L3838.1 2761.58C3839.18 2748.44 3837.5 2735.22 3833.18 2722.76C3828.86 2710.31 3821.99 2698.89 3813 2689.24C3804.02 2679.59 3793.11 2671.93 3781 2666.73C3768.88 2661.54 3755.81 2658.93 3742.63 2659.07Z" fill="#7E57C2"/>
<path opacity="0.6" d="M3742.63 2659.07H2722.42C2694.69 2659.55 2668.12 2670.3 2647.85 2689.23C2627.58 2708.17 2615.05 2733.94 2612.69 2761.58L2506.39 4281.15C2505.28 4294.3 2506.94 4307.53 2511.25 4320C2515.56 4332.47 2522.43 4343.9 2531.42 4353.55C2540.41 4363.21 2551.33 4370.87 2563.46 4376.06C2575.59 4381.24 2588.67 4383.83 2601.86 4383.66H2672.61L2636.51 4495.01C2719.98 4487.49 2797.17 4447.51 2851.46 4383.66H3622.07C3649.8 4383.18 3676.37 4372.44 3696.64 4353.5C3716.91 4334.57 3729.43 4308.79 3731.8 4281.15L3838.1 2761.58C3839.18 2748.44 3837.5 2735.22 3833.18 2722.76C3828.86 2710.31 3821.99 2698.89 3813 2689.24C3804.02 2679.59 3793.11 2671.93 3781 2666.73C3768.88 2661.54 3755.81 2658.93 3742.63 2659.07Z" fill="#FAFAFA"/>
<path d="M2580.75 4689.56H3600.96C3614.15 4689.39 3627.23 4691.98 3639.36 4697.16C3651.49 4702.35 3662.4 4710.01 3671.4 4719.67C3680.39 4729.32 3687.26 4740.75 3691.57 4753.22C3695.88 4765.69 3697.53 4778.92 3696.43 4792.07L3650.77 5444.84C3648.4 5472.47 3635.88 5498.25 3615.61 5517.18C3595.34 5536.12 3568.77 5546.86 3541.04 5547.34H3470.11L3489.97 5658.69C3450.83 5655.42 3412.86 5643.79 3378.61 5624.58C3344.36 5605.37 3314.64 5579.03 3291.45 5547.34H2520.47C2507.28 5547.52 2494.2 5544.93 2482.07 5539.74C2469.93 5534.56 2459.02 5526.89 2450.03 5517.24C2441.04 5507.58 2434.17 5496.15 2429.86 5483.68C2425.55 5471.21 2423.89 5457.98 2425 5444.84L2470.66 4792.07C2473.03 4764.37 2485.61 4738.54 2505.95 4719.6C2526.3 4700.66 2552.95 4689.95 2580.75 4689.56Z" fill="#7E57C2"/>
<path opacity="0.6" d="M2580.75 4689.56H3600.96C3614.15 4689.39 3627.23 4691.98 3639.36 4697.16C3651.49 4702.35 3662.4 4710.01 3671.4 4719.67C3680.39 4729.32 3687.26 4740.75 3691.57 4753.22C3695.88 4765.69 3697.53 4778.92 3696.43 4792.07L3650.77 5444.84C3648.4 5472.47 3635.88 5498.25 3615.61 5517.18C3595.34 5536.12 3568.77 5546.86 3541.04 5547.34H3470.11L3489.97 5658.69C3450.83 5655.42 3412.86 5643.79 3378.61 5624.58C3344.36 5605.37 3314.64 5579.03 3291.45 5547.34H2520.47C2507.28 5547.52 2494.2 5544.93 2482.07 5539.74C2469.93 5534.56 2459.02 5526.89 2450.03 5517.24C2441.04 5507.58 2434.17 5496.15 2429.86 5483.68C2425.55 5471.21 2423.89 5457.98 2425 5444.84L2470.66 4792.07C2473.03 4764.37 2485.61 4738.54 2505.95 4719.6C2526.3 4700.66 2552.95 4689.95 2580.75 4689.56Z" fill="#FAFAFA"/>
<path d="M3502.06 2117.48C3501.34 2126.63 3497.25 2135.18 3490.58 2141.49C3483.91 2147.79 3475.14 2151.39 3465.96 2151.59C3461.57 2151.65 3457.21 2150.8 3453.17 2149.07C3449.13 2147.35 3445.5 2144.8 3442.5 2141.59C3439.51 2138.37 3437.22 2134.57 3435.79 2130.41C3434.36 2126.26 3433.82 2121.85 3434.2 2117.48C3434.99 2108.36 3439.1 2099.84 3445.76 2093.56C3452.41 2087.27 3461.14 2083.64 3470.29 2083.37C3474.69 2083.3 3479.04 2084.16 3483.08 2085.88C3487.12 2087.6 3490.76 2090.15 3493.75 2093.37C3496.75 2096.58 3499.03 2100.39 3500.46 2104.54C3501.89 2108.69 3502.44 2113.1 3502.06 2117.48Z" fill="#7E57C2"/>
<path opacity="0.5" d="M3502.06 2117.48C3501.34 2126.63 3497.25 2135.18 3490.58 2141.49C3483.91 2147.79 3475.14 2151.39 3465.96 2151.59C3461.57 2151.65 3457.21 2150.8 3453.17 2149.07C3449.13 2147.35 3445.5 2144.8 3442.5 2141.59C3439.51 2138.37 3437.22 2134.57 3435.79 2130.41C3434.36 2126.26 3433.82 2121.85 3434.2 2117.48C3434.99 2108.36 3439.1 2099.84 3445.76 2093.56C3452.41 2087.27 3461.14 2083.64 3470.29 2083.37C3474.69 2083.3 3479.04 2084.16 3483.08 2085.88C3487.12 2087.6 3490.76 2090.15 3493.75 2093.37C3496.75 2096.58 3499.03 2100.39 3500.46 2104.54C3501.89 2108.69 3502.44 2113.1 3502.06 2117.48Z" fill="black"/>
<path d="M3326.28 2151.59H3088.23C3083.85 2151.62 3079.51 2150.75 3075.48 2149.02C3071.45 2147.29 3067.83 2144.74 3064.84 2141.53C3061.85 2138.32 3059.56 2134.52 3058.12 2130.38C3056.68 2126.24 3056.12 2121.85 3056.47 2117.48C3057.22 2108.34 3061.33 2099.81 3067.99 2093.51C3074.65 2087.22 3083.4 2083.6 3092.57 2083.37H3330.61C3334.99 2083.33 3339.34 2084.2 3343.36 2085.93C3347.39 2087.67 3351.02 2090.22 3354 2093.43C3356.99 2096.63 3359.28 2100.43 3360.72 2104.57C3362.16 2108.71 3362.72 2113.11 3362.37 2117.48C3361.62 2126.61 3357.52 2135.15 3350.85 2141.44C3344.19 2147.74 3335.44 2151.35 3326.28 2151.59Z" fill="#7E57C2"/>
<path opacity="0.5" d="M3326.28 2151.59H3088.23C3083.85 2151.62 3079.51 2150.75 3075.48 2149.02C3071.45 2147.29 3067.83 2144.74 3064.84 2141.53C3061.85 2138.32 3059.56 2134.52 3058.12 2130.38C3056.68 2126.24 3056.12 2121.85 3056.47 2117.48C3057.22 2108.34 3061.33 2099.81 3067.99 2093.51C3074.65 2087.22 3083.4 2083.6 3092.57 2083.37H3330.61C3334.99 2083.33 3339.34 2084.2 3343.36 2085.93C3347.39 2087.67 3351.02 2090.22 3354 2093.43C3356.99 2096.63 3359.28 2100.43 3360.72 2104.57C3362.16 2108.71 3362.72 2113.11 3362.37 2117.48C3361.62 2126.61 3357.52 2135.15 3350.85 2141.44C3344.19 2147.74 3335.44 2151.35 3326.28 2151.59Z" fill="black"/>
<path d="M2055.39 2935.74L2083.73 2991.14C2093.65 3009.19 2103.76 3028.86 2114.23 3047.45C2135.16 3084.81 2156.46 3121.8 2178.84 3157.72C2221.55 3228.45 2270.47 3295.25 2325.02 3357.32C2338.55 3370.85 2353.17 3387.1 2362.56 3394.5C2375.67 3405.08 2389.68 3414.5 2404.43 3422.65C2439.57 3441.19 2476.14 3456.88 2513.79 3469.57C2594.92 3496.5 2677.53 3518.74 2761.22 3536.17L2755.44 3635.61C2661.46 3641.12 2567.15 3635.6 2474.45 3619.18C2425.06 3610.63 2376.68 3597.02 2330.07 3578.58C2304.14 3568.22 2279.34 3555.22 2256.08 3539.78C2244.04 3531.75 2232.58 3522.89 2221.79 3513.25L2193.27 3488.16C2124.41 3421.34 2063.27 3347.01 2011 3266.54C1984.83 3227.38 1960.1 3187.67 1937.55 3146.89C1926.18 3126.49 1914.99 3105.92 1904.34 3085.17C1893.69 3064.41 1883.58 3044.2 1872.94 3020.74L2055.39 2935.74Z" fill="#E58A7B"/>
<path d="M2725.12 3536.17L2805.43 3479.5L2847.85 3643.37C2847.85 3643.37 2777.1 3668.27 2723.86 3632.36L2725.12 3536.17Z" fill="#E58A7B"/>
<path d="M2916.24 3442.32L2944.76 3579.48L2847.66 3643.37L2805.25 3479.5L2916.24 3442.32Z" fill="#E58A7B"/>
<path d="M3426.44 3297.04L3404.6 3293.07C3381.79 3289.12 3358.37 3290.54 3336.2 3297.22L3273.22 3316.35C3305.37 3249.9 3317.41 3175.51 3307.87 3102.31C3300.29 3047.09 3258.78 3059.72 3258.78 3059.72C3258.78 3059.72 3197.96 3289.28 3071.63 3377.35L3031.93 3404.96L3088.59 3809.4L3135.34 3805.07C3153.38 3805.07 3256.07 3805.07 3322.31 3805.07C3341.77 3804.23 3360.8 3799.03 3377.98 3789.84C3395.16 3780.66 3410.06 3767.73 3421.57 3752.01C3455.31 3707.35 3474.64 3653.46 3476.97 3597.53L3488.88 3409.29C3491.77 3353.71 3465.06 3303.72 3426.44 3297.04Z" fill="#7E57C2"/>
<path opacity="0.9" d="M3426.44 3297.04L3404.6 3293.07C3381.79 3289.12 3358.37 3290.54 3336.2 3297.22L3273.22 3316.35C3305.37 3249.9 3317.41 3175.51 3307.87 3102.31C3300.29 3047.09 3258.78 3059.72 3258.78 3059.72C3258.78 3059.72 3197.96 3289.28 3071.63 3377.35L3031.93 3404.96L3088.59 3809.4L3135.34 3805.07C3153.38 3805.07 3256.07 3805.07 3322.31 3805.07C3341.77 3804.23 3360.8 3799.03 3377.98 3789.84C3395.16 3780.66 3410.06 3767.73 3421.57 3752.01C3455.31 3707.35 3474.64 3653.46 3476.97 3597.53L3488.88 3409.29C3491.77 3353.71 3465.06 3303.72 3426.44 3297.04Z" fill="#FAFAFA"/>
<path d="M2913.18 3903.25L3091.12 3864.44C3105.02 3861.56 3114.76 3842.43 3112.6 3822.03L3066.22 3358.76C3064.05 3338.37 3051.06 3324.29 3037.16 3327.18L2859.21 3365.98C2845.32 3368.87 2835.57 3388 2837.74 3408.39L2884.12 3871.66C2886.29 3892.06 2899.28 3906.13 2913.18 3903.25Z" fill="#7E57C2"/>
<path d="M2570.28 2376.09C2568.11 2386.56 2571.9 2396.12 2578.76 2397.57C2585.62 2399.01 2593.02 2391.79 2595.19 2381.33C2597.35 2370.86 2593.56 2361.11 2586.7 2359.67C2579.85 2358.23 2572.45 2365.62 2570.28 2376.09Z" fill="#263238"/>
<path d="M2571 2395.94C2576.81 2430.54 2587.31 2464.18 2602.22 2495.93C2594.04 2499.57 2585.16 2501.36 2576.2 2501.18C2567.25 2500.99 2558.45 2498.83 2550.43 2494.84L2571 2395.94Z" fill="#DF5753"/>
<path d="M2598.79 2312.02C2597.57 2312 2596.38 2311.63 2595.37 2310.94C2588.44 2307.19 2580.72 2305.14 2572.85 2304.95C2564.97 2304.76 2557.17 2306.45 2550.07 2309.86C2548.56 2310.54 2546.84 2310.6 2545.29 2310.02C2543.74 2309.45 2542.47 2308.29 2541.77 2306.79C2541.41 2306.04 2541.21 2305.22 2541.18 2304.38C2541.16 2303.55 2541.3 2302.72 2541.6 2301.94C2541.91 2301.16 2542.37 2300.46 2542.95 2299.86C2543.54 2299.27 2544.24 2298.8 2545.01 2298.49C2554.01 2294.21 2563.9 2292.15 2573.86 2292.49C2583.82 2292.84 2593.55 2295.58 2602.22 2300.47C2602.92 2300.91 2603.53 2301.49 2604 2302.17C2604.47 2302.85 2604.8 2303.61 2604.97 2304.42C2605.14 2305.23 2605.14 2306.07 2604.98 2306.88C2604.82 2307.69 2604.49 2308.46 2604.03 2309.14C2603.47 2310.02 2602.7 2310.76 2601.79 2311.26C2600.87 2311.77 2599.84 2312.03 2598.79 2312.02Z" fill="#263238"/>
<path d="M2198.87 2409.66C2216.92 2506.57 2236.77 2684.34 2168.91 2748.95C2168.91 2748.95 2195.44 2847.48 2375.73 2847.48C2574.25 2847.48 2470.3 2748.95 2470.3 2748.95C2362.02 2723.14 2365.08 2643.01 2383.85 2568.48L2198.87 2409.66Z" fill="#E58A7B"/>
<path d="M2141.48 2776.74C2128.48 2744.98 2130.65 2686.5 2140.22 2685.6C2177.75 2683.08 2378.08 2682.53 2444.31 2707.98C2453.07 2710.74 2461.19 2715.22 2468.21 2721.15C2475.22 2727.08 2480.99 2734.35 2485.17 2742.52C2489.35 2750.7 2491.86 2759.63 2492.56 2768.79C2493.26 2777.95 2492.14 2787.15 2489.25 2795.87L2141.48 2776.74Z" fill="#7E57C2"/>
<path d="M1698.78 6406.75C1687.13 6406.69 1675.52 6405.42 1664.13 6402.96C1663.55 6402.86 1663.01 6402.58 1662.59 6402.16C1662.17 6401.74 1661.89 6401.2 1661.78 6400.61C1661.7 6400.01 1661.78 6399.4 1662 6398.83C1662.22 6398.26 1662.58 6397.76 1663.05 6397.37C1664.67 6396.28 1701.31 6371.38 1720.62 6375.71C1722.7 6376.16 1724.67 6377.06 1726.38 6378.34C1728.09 6379.61 1729.51 6381.24 1730.54 6383.11C1732.12 6385.29 1732.96 6387.91 1732.96 6390.6C1732.96 6393.29 1732.12 6395.91 1730.54 6398.09C1726.09 6401.58 1720.99 6404.14 1715.54 6405.63C1710.08 6407.11 1704.39 6407.5 1698.78 6406.75ZM1672.97 6398.45C1692.83 6401.7 1719.9 6401.7 1725.67 6394.12C1725.67 6394.12 1727.84 6391.23 1725.67 6386.18C1725.09 6385.07 1724.27 6384.11 1723.27 6383.37C1722.27 6382.62 1721.12 6382.1 1719.9 6381.85C1702.91 6382.69 1686.57 6388.6 1672.97 6398.81V6398.45Z" fill="#7E57C2"/>
<path d="M1664.85 6403.5H1663.23C1662.73 6403.22 1662.32 6402.79 1662.07 6402.28C1661.81 6401.76 1661.71 6401.19 1661.78 6400.61C1661.78 6398.99 1665.03 6360.73 1679.83 6348.1C1681.71 6346.56 1683.87 6345.42 1686.2 6344.74C1688.52 6344.05 1690.96 6343.85 1693.37 6344.13C1695.72 6344.17 1697.99 6345.01 1699.8 6346.52C1701.61 6348.03 1702.84 6350.12 1703.29 6352.43C1706 6367.23 1679.47 6396.1 1665.94 6403.68L1664.85 6403.5ZM1691.56 6349.36C1688.97 6349.39 1686.47 6350.35 1684.52 6352.07C1675.15 6363.96 1669.66 6378.45 1668.82 6393.58C1682.36 6383.29 1699.32 6361.45 1697.7 6352.61C1697.7 6352.61 1697.7 6349.9 1693.01 6349.36H1691.56Z" fill="#7E57C2"/>
<path d="M1511.81 6400.25H1644.46L1766.64 6093.27H1634.17L1511.81 6400.25Z" fill="#E58A7B"/>
<path d="M1654.93 6384.91H1506.04C1503.38 6384.93 1500.81 6385.85 1498.74 6387.53C1496.68 6389.2 1495.24 6391.52 1494.67 6394.12L1468.5 6511.97C1467.9 6514.84 1467.96 6517.8 1468.67 6520.65C1469.37 6523.49 1470.72 6526.14 1472.59 6528.4C1474.46 6530.65 1476.82 6532.45 1479.49 6533.67C1482.15 6534.89 1485.06 6535.49 1487.99 6535.43C1539.97 6534.53 1565.23 6531.46 1630.74 6531.46C1670.99 6531.46 1754.01 6535.79 1809.77 6535.79C1865.54 6535.79 1872.58 6481.65 1849.84 6475.69C1747.69 6453.31 1709.25 6422.45 1676.58 6393.22C1670.65 6387.85 1662.93 6384.89 1654.93 6384.91Z" fill="#263238"/>
<path d="M2734.33 2877.98C2773.85 2950.17 2812.83 3024.17 2851.27 3097.44L2966.42 3317.43L2995.29 3371.58C3001.4 3384.7 3008.64 3397.26 3016.95 3409.11C3037.11 3433.42 3061.58 3453.79 3089.14 3469.21C3155.84 3507.27 3226.68 3537.55 3300.29 3559.45L3289.1 3658.35C3266.46 3658.82 3243.81 3658.1 3221.24 3656.18C3198.8 3654.75 3176.46 3652.16 3154.29 3648.42C3108.4 3641.35 3063.43 3629.24 3020.2 3612.32C2970.95 3593.83 2925.91 3565.67 2887.73 3529.49C2868.73 3509.82 2852.08 3488.02 2838.1 3464.52L2804.17 3410.38C2759.78 3338.19 2717 3265.64 2675.86 3192.73C2634.89 3119.28 2595.19 3045.64 2557.11 2970.39L2734.33 2877.98Z" fill="#E58A7B"/>
<path d="M1832.51 2858.85C1778.37 2974.54 1951.44 3339.81 1951.44 3339.81L2247.05 3202.65C2214.79 3099.02 2174.61 2998.02 2126.86 2900.54C2049.62 2747.32 1887.37 2740.65 1832.51 2858.85Z" fill="#7E57C2"/>
<path opacity="0.8" d="M1832.51 2858.85C1778.37 2974.54 1951.44 3339.81 1951.44 3339.81L2247.05 3202.65C2214.79 3099.02 2174.61 2998.02 2126.86 2900.54C2049.62 2747.32 1887.37 2740.65 1832.51 2858.85Z" fill="#FAFAFA"/>
<path d="M1991.15 2882.5L1924.37 3278.63C1940.25 3315.99 1951.44 3339.81 1951.44 3339.81L2247.05 3202.65C2247.05 3202.65 2113.51 2971.83 1991.15 2882.5Z" fill="#7E57C2"/>
<path opacity="0.7" d="M1991.15 2882.5L1924.37 3278.63C1940.25 3315.99 1951.44 3339.81 1951.44 3339.81L2247.05 3202.65C2247.05 3202.65 2113.51 2971.83 1991.15 2882.5Z" fill="#FAFAFA"/>
<path d="M2674.23 2785.76C2674.23 2785.76 2815.36 2945.3 2682.17 3931.76H1973.1C1968.05 3823.48 2036.44 3291.99 1931.59 2778.91C2009.97 2763.81 2089.24 2753.81 2168.91 2748.95C2269.29 2743.17 2369.92 2743.17 2470.3 2748.95C2539.12 2755.98 2607.3 2768.29 2674.23 2785.76Z" fill="#7E57C2"/>
<path opacity="0.8" d="M2674.23 2785.76C2674.23 2785.76 2815.36 2945.3 2682.17 3931.76H1973.1C1968.05 3823.48 2036.44 3291.99 1931.59 2778.91C2009.97 2763.81 2089.24 2753.81 2168.91 2748.95C2269.29 2743.17 2369.92 2743.17 2470.3 2748.95C2539.12 2755.98 2607.3 2768.29 2674.23 2785.76Z" fill="#FAFAFA"/>
<path d="M2731.44 3020.56L2621.89 3291.27L2731.44 3450.62C2742.27 3307.47 2742.27 3163.71 2731.44 3020.56Z" fill="#7E57C2"/>
<path opacity="0.7" d="M2731.44 3020.56L2621.89 3291.27L2731.44 3450.62C2742.27 3307.47 2742.27 3163.71 2731.44 3020.56Z" fill="#FAFAFA"/>
<path d="M2501.7 2873.29C2458.03 2992.4 2633.45 3353.71 2633.45 3353.71L2951.08 3193.63C2910.39 3085.33 2858.24 2981.69 2795.51 2884.48C2700.4 2745.52 2549.71 2743.17 2501.7 2873.29Z" fill="#7E57C2"/>
<path opacity="0.8" d="M2501.7 2873.29C2458.03 2992.4 2633.45 3353.71 2633.45 3353.71L2951.08 3193.63C2910.39 3085.33 2858.24 2981.69 2795.51 2884.48C2700.4 2745.52 2549.71 2743.17 2501.7 2873.29Z" fill="#FAFAFA"/>
<path d="M3273.94 3564.14L3403.88 3512.16L3439.97 3668.81C3439.97 3668.81 3336.74 3706.17 3261.67 3651.85L3273.94 3564.14Z" fill="#E58A7B"/>
<path d="M3547.17 3513.79L3527.14 3653.83L3439.79 3668.81L3403.88 3512.16L3547.17 3513.79Z" fill="#E58A7B"/>
<path d="M1633.99 6093.45H1766.64L1678.75 6313.99L1556.03 6289.08L1633.99 6093.45Z" fill="#CF6F64"/>
<path d="M2225.76 2281.16C2207.71 2411.28 2189.66 2486.54 2240.38 2566.13C2317.44 2685.78 2488.35 2659.97 2545.74 2537.98C2597.53 2428.25 2619.73 2233.7 2504.59 2156.28C2479.2 2139.34 2449.93 2129.13 2419.51 2126.58C2389.1 2124.03 2358.54 2129.24 2330.68 2141.72C2302.83 2154.19 2278.6 2173.53 2260.25 2197.92C2241.9 2222.3 2230.03 2250.94 2225.76 2281.16Z" fill="#E58A7B"/>
<path d="M2726.03 2062.43C2613.77 1958.66 2702.57 1932.31 2702.57 1932.31C2702.57 1932.31 2579.48 1881.42 2628.21 1990.42C2696.25 2142.38 2505.67 2095.64 2414.35 1990.42C2358.04 1925.45 2209.88 1992.05 2217.1 2055.39C2224.32 2118.74 1991.51 2069.65 2096.9 2207.89C2098.89 2352.27 2155.01 2492.68 2229.55 2530.76C2357.32 2595.91 2453.15 2413.63 2488.89 2267.63C2681.63 2360.21 2842.25 2169.81 2726.03 2062.43Z" fill="#263238"/>
<path d="M2391.43 2354.62C2392.16 2387.46 2403.63 2419.16 2424.1 2444.85C2451.35 2478.06 2482.39 2459.83 2489.61 2421.39C2496.11 2386.74 2489.61 2327.73 2455.32 2308.42C2421.03 2289.11 2391.25 2315.27 2391.43 2354.62Z" fill="#E58A7B"/>
<path d="M2098.17 2072.72C2156.08 2070.52 2212.9 2089.01 2258.42 2124.88C2258.42 2124.88 2225.76 1985.19 2098.17 2072.72Z" fill="#263238"/>
<path d="M2371.58 3931.76C2371.58 3931.76 2398.11 4468.84 2496.11 4942.4C2527.33 5092.37 2506.93 5252.99 2419.04 5378.42C2160.79 5746.77 1751.3 6237.29 1751.3 6237.29L1536.72 6213.29C1536.72 6213.29 1884.13 5569.18 2062.07 5249.2C2102.5 5177.02 2138.23 5110.96 2107.73 5032.64C1813.02 4284.58 1972.38 3931.76 1972.38 3931.76H2371.58Z" fill="#7E57C2"/>
<path opacity="0.3" d="M2371.58 3931.76C2371.58 3931.76 2398.11 4468.84 2496.11 4942.4C2527.33 5092.37 2506.93 5252.99 2419.04 5378.42C2160.79 5746.77 1751.3 6237.29 1751.3 6237.29L1536.72 6213.29C1536.72 6213.29 1884.13 5569.18 2062.07 5249.2C2102.5 5177.02 2138.23 5110.96 2107.73 5032.64C1813.02 4284.58 1972.38 3931.76 1972.38 3931.76H2371.58Z" fill="black"/>
<path d="M2411.47 4395.93L2206.09 4150.85C2198.33 4260.76 2264.74 4671.87 2492.5 4924.54C2456.22 4746.41 2430.05 4558.54 2411.47 4395.93Z" fill="#7E57C2"/>
<path opacity="0.4" d="M2411.47 4395.93L2206.09 4150.85C2198.33 4260.76 2264.74 4671.87 2492.5 4924.54C2456.22 4746.41 2430.05 4558.54 2411.47 4395.93Z" fill="black"/>
<path d="M1811.76 6204.62L1769.71 6291.61L1511.09 6225.2L1531.66 6144.53L1811.76 6204.62Z" fill="#7E57C2"/>
<path opacity="0.1" d="M1811.76 6204.62L1769.71 6291.61L1511.09 6225.2L1531.66 6144.53L1811.76 6204.62Z" fill="black"/>
<path d="M2582.37 6400.25H2714.84L2753.64 6093.27H2621.17L2582.37 6400.25Z" fill="#E58A7B"/>
<path d="M2772.95 6406.75C2759.27 6406.75 2745.61 6405.48 2732.16 6402.96C2731.53 6402.86 2730.95 6402.56 2730.49 6402.1C2730.04 6401.65 2729.74 6401.07 2729.64 6400.43C2729.53 6399.79 2729.62 6399.13 2729.92 6398.54C2730.21 6397.96 2730.68 6397.48 2731.26 6397.19C2733.25 6396.1 2779.45 6369.75 2801.65 6375.71C2803.72 6376.2 2805.67 6377.1 2807.38 6378.38C2809.09 6379.65 2810.51 6381.26 2811.57 6383.11C2812.98 6385.12 2813.74 6387.51 2813.74 6389.97C2813.74 6392.42 2812.98 6394.82 2811.57 6396.83C2806.34 6404.77 2789.91 6406.75 2772.95 6406.75ZM2742.27 6398.45C2767.17 6401.88 2800.74 6401.34 2806.7 6393.03C2806.7 6391.95 2808.32 6390.15 2806.7 6386.18C2806.04 6385.06 2805.15 6384.1 2804.09 6383.36C2803.03 6382.61 2801.83 6382.1 2800.56 6381.85C2786.3 6378.42 2758.51 6390.51 2743.17 6398.81L2742.27 6398.45Z" fill="#7E57C2"/>
<path d="M2732.7 6403.5C2732.11 6403.66 2731.49 6403.66 2730.9 6403.5C2730.48 6403.15 2730.16 6402.7 2729.94 6402.2C2729.72 6401.7 2729.62 6401.16 2729.64 6400.62C2729.64 6398.99 2733.43 6363.26 2750.21 6349.54C2752.65 6347.39 2755.53 6345.79 2758.64 6344.86C2761.76 6343.93 2765.04 6343.68 2768.26 6344.13C2776.92 6345.03 2779.27 6349.36 2779.81 6352.97C2782.33 6367.95 2750.57 6396.64 2734.69 6403.68L2732.7 6403.5ZM2765.19 6349.36C2761.13 6349.34 2757.21 6350.82 2754.18 6353.51C2744.13 6364.94 2737.83 6379.18 2736.13 6394.3C2752.56 6384.55 2774.03 6361.99 2772.23 6352.97C2772.23 6352.97 2772.23 6350.08 2766.09 6349.36H2765.19Z" fill="#7E57C2"/>
<path d="M2718.63 6384.91H2574.25C2571.61 6384.91 2569.04 6385.82 2567 6387.5C2564.96 6389.18 2563.57 6391.52 2563.06 6394.12L2536.71 6511.97C2536.09 6514.81 2536.11 6517.76 2536.79 6520.59C2537.46 6523.42 2538.77 6526.07 2540.61 6528.32C2542.45 6530.58 2544.77 6532.39 2547.41 6533.62C2550.05 6534.85 2552.93 6535.47 2555.84 6535.43C2608.18 6534.53 2683.62 6531.46 2749.13 6531.46C2826.01 6531.46 2892.24 6535.79 2982.3 6535.79C3036.44 6535.79 3051.78 6481.65 3029.04 6475.69C2925.27 6452.95 2840.63 6450.61 2750.93 6395.38C2741.39 6388.86 2730.18 6385.23 2718.63 6384.91Z" fill="#263238"/>
<path d="M2621.17 6093.45H2753.82L2725.3 6317.06L2595.37 6297.02L2621.17 6093.45Z" fill="#CF6F64"/>
<path d="M2682.17 3931.76C2682.17 3931.76 2793.16 4302.81 2976.52 4779.98C3036.26 4935.18 3059.36 5084.61 3017.85 5216C2889.17 5623.86 2778 6237.29 2778 6237.29L2556.92 6213.29C2556.92 6213.29 2548.44 5587.59 2626.77 5265.09C2667.01 5099.59 2653.3 5039.32 2611.97 4984.63C2048.9 4235.49 2200.13 3932.3 2200.13 3932.3L2682.17 3931.76Z" fill="#7E57C2"/>
<path opacity="0.3" d="M2682.17 3931.76C2682.17 3931.76 2793.16 4302.81 2976.52 4779.98C3036.26 4935.18 3059.36 5084.61 3017.85 5216C2889.17 5623.86 2778 6237.29 2778 6237.29L2556.92 6213.29C2556.92 6213.29 2548.44 5587.59 2626.77 5265.09C2667.01 5099.59 2653.3 5039.32 2611.97 4984.63C2048.9 4235.49 2200.13 3932.3 2200.13 3932.3L2682.17 3931.76Z" fill="black"/>
<path d="M2816.26 6199.75L2804.71 6287.82L2543.75 6243.6L2535.99 6163.11L2816.26 6199.75Z" fill="#7E57C2"/>
<path opacity="0.1" d="M2816.26 6199.75L2804.71 6287.82L2543.75 6243.6L2535.99 6163.11L2816.26 6199.75Z" fill="black"/>
<path d="M4734.32 1691.74H4508.73V1709.79H4734.32V1691.74Z" fill="#7E57C2"/>
<path opacity="0.2" d="M4734.32 1691.74H4508.73V1709.79H4734.32V1691.74Z" fill="black"/>
<path d="M4075.78 947.116H5298.11C5330.69 947.164 5361.93 960.128 5384.96 983.166C5408 1006.2 5420.97 1037.44 5421.01 1070.02V1523.72C5420.97 1556.3 5408 1587.54 5384.96 1610.58C5361.93 1633.61 5330.69 1646.58 5298.11 1646.63H5213.29L5246.32 1779.99C5198.38 1775.63 5151.84 1761.56 5109.52 1738.63C5067.2 1715.7 5029.99 1684.4 5000.15 1646.63H4075.78C4043.21 1646.53 4012 1633.55 3988.98 1610.52C3965.95 1587.5 3952.97 1556.29 3952.88 1523.72V1070.02C3952.97 1037.45 3965.95 1006.25 3988.98 983.219C4012 960.191 4043.21 947.212 4075.78 947.116Z" fill="#7E57C2"/>
<path opacity="0.2" d="M4075.78 947.116H5298.11C5330.69 947.164 5361.93 960.128 5384.96 983.166C5408 1006.2 5420.97 1037.44 5421.01 1070.02V1523.72C5420.97 1556.3 5408 1587.54 5384.96 1610.58C5361.93 1633.61 5330.69 1646.58 5298.11 1646.63H5213.29L5246.32 1779.99C5198.38 1775.63 5151.84 1761.56 5109.52 1738.63C5067.2 1715.7 5029.99 1684.4 5000.15 1646.63H4075.78C4043.21 1646.53 4012 1633.55 3988.98 1610.52C3965.95 1587.5 3952.97 1556.29 3952.88 1523.72V1070.02C3952.97 1037.45 3965.95 1006.25 3988.98 983.219C4012 960.191 4043.21 947.212 4075.78 947.116Z" fill="black"/>
<path d="M4750.2 309.87H4732.15V460.203H4750.2V309.87Z" fill="#7E57C2"/>
<path opacity="0.1" d="M4750.2 309.87H4732.15V460.203H4750.2V309.87Z" fill="#FAFAFA"/>
<path d="M4564.13 112.073H3341.8C3309.28 112.12 3278.1 125.035 3255.07 147.995C3232.04 170.955 3219.04 202.095 3218.9 234.613V688.681C3218.94 721.261 3231.91 752.494 3254.95 775.532C3277.98 798.57 3309.22 811.534 3341.8 811.582H3426.62L3392.87 944.951C3440.89 940.751 3487.55 926.807 3530 903.969C3572.44 881.132 3609.79 849.88 3639.76 812.123H4564.13C4596.7 812.028 4627.9 799.049 4650.93 776.021C4673.96 752.993 4686.94 721.788 4687.03 689.222V234.613C4686.84 202.11 4673.82 170.997 4650.81 148.047C4627.79 125.097 4596.64 112.168 4564.13 112.073Z" fill="#7E57C2"/>
<path opacity="0.1" d="M4564.13 112.073H3341.8C3309.28 112.12 3278.1 125.035 3255.07 147.995C3232.04 170.955 3219.04 202.095 3218.9 234.613V688.681C3218.94 721.261 3231.91 752.494 3254.95 775.532C3277.98 798.57 3309.22 811.534 3341.8 811.582H3426.62L3392.87 944.951C3440.89 940.751 3487.55 926.807 3530 903.969C3572.44 881.132 3609.79 849.88 3639.76 812.123H4564.13C4596.7 812.028 4627.9 799.049 4650.93 776.021C4673.96 752.993 4686.94 721.788 4687.03 689.222V234.613C4686.84 202.11 4673.82 170.997 4650.81 148.047C4627.79 125.097 4596.64 112.168 4564.13 112.073Z" fill="#FAFAFA"/>
</svg>
